M48
; DRILL file {KiCad (6.0.6)} date Tue Jul  5 19:51:38 2022
; FORMAT={-:-/ absolute / metric / decimal}
; #@! TF.CreationDate,2022-07-05T19:51:38+02:00
; #@! TF.GenerationSoftware,Kicad,Pcbnew,(6.0.6)
; #@! TF.FileFunction,MixedPlating,1,4
FMAT,2
METRIC
; #@! TA.AperFunction,Plated,PTH,ViaDrill
T1C0.250
; #@! TA.AperFunction,Plated,PTH,ComponentDrill
T2C0.600
; #@! TA.AperFunction,Plated,PTH,ComponentDrill
T3C0.800
; #@! TA.AperFunction,NonPlated,NPTH,ComponentDrill
T4C0.600
; #@! TA.AperFunction,NonPlated,NPTH,ComponentDrill
T5C0.800
; #@! TA.AperFunction,NonPlated,NPTH,ComponentDrill
T6C3.000
%
G90
G05
T1
X123.9Y-114.0
X123.9Y-125.2
X123.9Y-129.4
X123.9Y-140.6
X125.5Y-115.3
X125.5Y-115.85
X125.5Y-116.4
X125.5Y-130.7
X125.5Y-131.25
X125.5Y-131.8
X128.15Y-117.1
X128.15Y-118.35
X128.15Y-119.6
X128.15Y-120.85
X128.15Y-122.1
X128.15Y-123.35
X128.15Y-132.5
X128.15Y-133.75
X128.15Y-135.0
X128.15Y-136.25
X128.15Y-137.5
X128.15Y-138.75
X128.45Y-116.6
X128.45Y-117.85
X128.45Y-132.0
X128.45Y-133.25
X128.7Y-117.1
X128.7Y-118.35
X128.7Y-132.5
X128.7Y-133.75
X129.05Y-118.9
X129.05Y-134.3
X130.05Y-116.79
X130.05Y-118.79
X130.05Y-134.3
X130.05Y-136.3
X131.05Y-116.79
X131.05Y-119.29
X131.05Y-121.4
X131.05Y-134.3
X131.05Y-136.8
X131.05Y-139.3
X131.5Y-109.15
X131.5Y-145.55
X132.05Y-116.79
X132.05Y-118.79
X132.05Y-121.4
X132.05Y-134.3
X132.05Y-136.3
X132.05Y-139.3
X132.5Y-122.925
X132.5Y-124.875
X132.5Y-128.125
X132.8Y-143.9
X132.9Y-116.3
X132.9Y-117.3
X132.9Y-118.5
X133.05Y-119.29
X133.05Y-136.8
X133.05Y-139.3
X133.2Y-115.3
X133.35Y-113.4
X133.35Y-143.9
X133.9Y-143.9
X134.1Y-140.9
X134.6Y-113.4
X134.6Y-122.925
X134.6Y-126.2
X134.6Y-128.125
X134.6Y-140.65
X134.6Y-141.2
X134.9Y-120.3
X135.2Y-127.5
X135.3Y-116.3
X135.3Y-118.3
X135.35Y-140.9
X135.615Y-121.2
X135.8Y-115.3
X135.8Y-117.3
X135.85Y-113.4
X135.85Y-140.65
X135.85Y-141.2
X136.42Y-137.3
X136.42Y-138.3
X136.42Y-139.3
X136.42Y-140.3
X137.1Y-113.4
X137.1Y-141.2
X137.6Y-124.9
X137.8Y-114.3
X137.8Y-115.3
X137.8Y-116.3
X137.8Y-117.3
X138.2Y-120.5
X138.2Y-121.7
X138.2Y-124.225
X138.203Y-126.203
X138.35Y-113.4
X138.35Y-113.95
X138.35Y-141.2
X138.4Y-137.3
X138.4Y-139.3
X138.85Y-113.7
X138.862Y-133.875
X138.862Y-134.875
X138.9Y-136.3
X138.9Y-138.3
X139.2Y-120.5
X139.6Y-113.4
X139.6Y-113.95
X139.6Y-141.2
X140.0Y-129.5
X140.1Y-113.7
X140.3Y-110.7
X140.3Y-124.225
X140.343Y-135.475
X140.4Y-118.4
X140.475Y-122.925
X140.6Y-128.1
X140.8Y-119.6
X140.85Y-110.7
X140.85Y-141.2
X140.862Y-116.325
X140.862Y-121.525
X140.862Y-132.75
X141.0Y-135.2
X141.1Y-136.3
X141.1Y-137.3
X141.35Y-138.3
X141.4Y-110.7
X141.8Y-123.945
X142.7Y-109.15
X142.7Y-145.55
X142.963Y-116.325
X142.963Y-121.525
X142.963Y-132.75
X143.1Y-120.2
X143.2Y-114.5
X143.8Y-130.8
X144.5Y-132.9
X145.2Y-134.6
X145.435Y-113.965
X146.0Y-114.5
X146.1Y-130.15
X146.3Y-121.525
X146.5Y-115.1
X146.5Y-116.325
X146.5Y-132.1
X146.562Y-117.625
X146.562Y-128.85
X146.562Y-134.05
X146.7Y-135.8
X146.9Y-109.15
X146.9Y-145.5
X148.0Y-122.925
X148.0Y-128.1
X148.1Y-114.5
X148.2Y-143.9
X148.31Y-136.4
X148.59Y-125.3
X148.59Y-125.85
X148.59Y-126.4
X148.662Y-117.625
X148.662Y-128.85
X148.662Y-134.05
X148.747Y-119.575
X148.75Y-113.4
X148.75Y-143.9
X148.8Y-130.8
X149.1Y-114.635
X149.1Y-132.7
X149.14Y-125.3
X149.14Y-125.85
X149.14Y-126.4
X149.3Y-143.9
X149.4Y-133.7
X149.4Y-134.25
X149.4Y-134.8
X149.4Y-135.35
X149.5Y-140.9
X149.79Y-137.3
X149.79Y-138.3
X149.79Y-139.3
X149.8Y-116.2
X150.0Y-113.4
X150.0Y-140.65
X150.0Y-141.2
X150.3Y-117.6
X150.6Y-118.3
X150.75Y-140.9
X151.25Y-113.4
X151.25Y-140.65
X151.25Y-141.2
X151.3Y-123.3
X151.35Y-133.7
X151.35Y-134.25
X151.35Y-134.8
X151.35Y-135.35
X151.7Y-131.7
X151.79Y-137.3
X151.79Y-139.3
X151.8Y-140.3
X152.4Y-136.3
X152.5Y-113.4
X152.5Y-124.3
X152.5Y-124.9
X152.5Y-141.2
X152.69Y-116.3
X152.69Y-118.3
X153.1Y-124.3
X153.1Y-124.9
X153.2Y-115.3
X153.2Y-117.3
X153.22Y-114.3
X153.7Y-124.3
X153.7Y-124.9
X153.75Y-113.4
X153.75Y-113.95
X154.25Y-113.7
X154.3Y-124.3
X154.3Y-124.9
X154.4Y-120.7
X154.5Y-136.3
X154.5Y-138.3
X154.5Y-139.3
X155.0Y-113.4
X155.0Y-113.95
X155.0Y-136.9
X155.0Y-141.2
X155.14Y-126.45
X155.2Y-115.3
X155.2Y-116.3
X155.2Y-117.3
X155.2Y-120.0
X155.5Y-113.7
X155.7Y-110.7
X156.0Y-119.3
X156.1Y-116.6
X156.1Y-123.4
X156.1Y-125.8
X156.149Y-138.5
X156.25Y-110.7
X156.25Y-141.2
X156.4Y-137.5
X156.8Y-110.7
X157.1Y-140.3
X157.1Y-140.85
X157.65Y-140.3
X157.65Y-140.85
X157.79Y-130.4
X158.1Y-109.15
X158.1Y-145.45
X158.2Y-140.3
X158.2Y-140.85
X158.3Y-127.4
X159.8Y-123.4
X159.8Y-126.8
X160.24Y-137.5
X160.24Y-139.6
X160.5Y-126.2
X160.6Y-136.6
X161.2Y-128.4
X161.2Y-137.8
X161.32Y-120.0
X161.4Y-122.4
X161.9Y-130.4
X162.41Y-135.96
X162.41Y-136.51
X162.41Y-138.61
X162.41Y-139.16
X162.96Y-135.96
X162.96Y-136.51
X162.96Y-138.61
X162.96Y-139.16
X163.0Y-124.7
X163.3Y-130.4
X163.51Y-135.96
X163.51Y-136.51
X163.51Y-138.61
X163.51Y-139.16
X163.8Y-126.6
X164.06Y-135.96
X164.06Y-136.51
X164.06Y-138.61
X164.06Y-139.16
X164.61Y-135.96
X164.61Y-136.51
X164.61Y-138.61
X164.61Y-139.16
X166.0Y-117.0
X166.6Y-119.8
X167.6Y-136.4
X167.9Y-113.445
X167.935Y-130.99
X168.335Y-132.99
X168.645Y-117.6
X168.645Y-118.1
X169.2Y-136.3
X169.61Y-138.96
X169.61Y-139.51
X169.8Y-116.9
X170.1Y-109.7
X170.1Y-111.2
X170.1Y-112.7
X170.11Y-138.96
X170.11Y-139.51
X170.9Y-136.6
X170.945Y-117.6
X170.945Y-118.1
X172.035Y-116.99
X172.035Y-130.69
X172.1Y-121.4
X172.168Y-139.31
X172.4Y-137.0
X172.91Y-139.31
X173.0Y-135.1
X173.33Y-113.8
X173.335Y-122.4
X173.71Y-139.31
X174.51Y-139.4
X174.6Y-113.8
X174.6Y-138.0
X174.635Y-120.4
X175.0Y-136.8
X175.3Y-111.2
X175.71Y-139.61
X175.87Y-113.8
X175.87Y-126.4
X176.51Y-139.01
X176.51Y-139.51
X177.01Y-139.01
X177.01Y-139.51
X177.135Y-129.09
X177.6Y-112.3
X177.845Y-121.6
X177.845Y-123.4
X178.05Y-136.8
X178.745Y-120.6
X178.745Y-122.5
X178.745Y-124.6
X178.84Y-138.84
X179.19Y-142.14
X179.635Y-116.99
X179.7Y-111.69
X179.74Y-142.14
X179.745Y-121.6
X179.745Y-123.4
X180.1Y-110.6
X180.29Y-142.14
X180.71Y-111.67
X180.73Y-135.63
X180.74Y-139.54
X180.845Y-120.6
X180.845Y-122.5
X180.845Y-124.6
X180.9Y-109.8
X181.04Y-144.79
X181.04Y-145.34
X181.04Y-145.89
X181.44Y-140.69
X181.53Y-139.53
X181.745Y-121.6
X181.745Y-123.4
X181.9Y-112.5
X182.235Y-116.59
X182.235Y-130.59
X182.5Y-109.8
X182.5Y-111.8
X182.94Y-136.49
X182.94Y-138.69
X183.2Y-110.6
X183.48Y-111.82
X183.49Y-118.99
X183.54Y-137.59
X183.94Y-142.24
X184.14Y-136.49
X184.14Y-138.69
X184.55Y-134.3
X184.74Y-137.59
X185.34Y-136.49
X185.34Y-138.69
X186.03Y-133.69
X187.045Y-133.3
X187.045Y-133.85
X187.3Y-113.8
X187.3Y-116.4
X187.595Y-133.3
X187.595Y-133.85
T3
X165.2Y-118.4
X165.2Y-120.4
X165.2Y-122.4
X165.2Y-124.4
X165.2Y-126.4
X165.2Y-128.4
X165.2Y-130.4
X165.2Y-132.4
T4
X170.42Y-141.56
X176.2Y-141.56
T5
X157.8Y-117.8
X157.8Y-124.6
T6
X124.6Y-109.8
X124.6Y-144.8
X163.5Y-109.8
X163.5Y-144.8
X186.5Y-109.8
X186.5Y-144.8
T2
X168.99Y-141.63G85X168.99Y-140.53
G05
X168.99Y-145.65G85X168.99Y-144.85
G05
X177.63Y-141.63G85X177.63Y-140.53
G05
X177.63Y-145.65G85X177.63Y-144.85
G05
T0
M30
