G04 #@! TF.GenerationSoftware,KiCad,Pcbnew,(6.0.6)*
G04 #@! TF.CreationDate,2022-07-05T19:51:37+02:00*
G04 #@! TF.ProjectId,esp32-spi-hub,65737033-322d-4737-9069-2d6875622e6b,rev?*
G04 #@! TF.SameCoordinates,Original*
G04 #@! TF.FileFunction,Copper,L1,Top*
G04 #@! TF.FilePolarity,Positive*
%FSLAX46Y46*%
G04 Gerber Fmt 4.6, Leading zero omitted, Abs format (unit mm)*
G04 Created by KiCad (PCBNEW (6.0.6)) date 2022-07-05 19:51:37*
%MOMM*%
%LPD*%
G01*
G04 APERTURE LIST*
G04 Aperture macros list*
%AMRoundRect*
0 Rectangle with rounded corners*
0 $1 Rounding radius*
0 $2 $3 $4 $5 $6 $7 $8 $9 X,Y pos of 4 corners*
0 Add a 4 corners polygon primitive as box body*
4,1,4,$2,$3,$4,$5,$6,$7,$8,$9,$2,$3,0*
0 Add four circle primitives for the rounded corners*
1,1,$1+$1,$2,$3*
1,1,$1+$1,$4,$5*
1,1,$1+$1,$6,$7*
1,1,$1+$1,$8,$9*
0 Add four rect primitives between the rounded corners*
20,1,$1+$1,$2,$3,$4,$5,0*
20,1,$1+$1,$4,$5,$6,$7,0*
20,1,$1+$1,$6,$7,$8,$9,0*
20,1,$1+$1,$8,$9,$2,$3,0*%
G04 Aperture macros list end*
G04 #@! TA.AperFunction,SMDPad,CuDef*
%ADD10RoundRect,0.140000X0.140000X0.170000X-0.140000X0.170000X-0.140000X-0.170000X0.140000X-0.170000X0*%
G04 #@! TD*
G04 #@! TA.AperFunction,SMDPad,CuDef*
%ADD11RoundRect,0.140000X-0.140000X-0.170000X0.140000X-0.170000X0.140000X0.170000X-0.140000X0.170000X0*%
G04 #@! TD*
G04 #@! TA.AperFunction,SMDPad,CuDef*
%ADD12RoundRect,0.135000X-0.135000X-0.185000X0.135000X-0.185000X0.135000X0.185000X-0.135000X0.185000X0*%
G04 #@! TD*
G04 #@! TA.AperFunction,SMDPad,CuDef*
%ADD13RoundRect,0.140000X-0.170000X0.140000X-0.170000X-0.140000X0.170000X-0.140000X0.170000X0.140000X0*%
G04 #@! TD*
G04 #@! TA.AperFunction,SMDPad,CuDef*
%ADD14RoundRect,0.140000X0.170000X-0.140000X0.170000X0.140000X-0.170000X0.140000X-0.170000X-0.140000X0*%
G04 #@! TD*
G04 #@! TA.AperFunction,SMDPad,CuDef*
%ADD15RoundRect,0.135000X0.185000X-0.135000X0.185000X0.135000X-0.185000X0.135000X-0.185000X-0.135000X0*%
G04 #@! TD*
G04 #@! TA.AperFunction,SMDPad,CuDef*
%ADD16RoundRect,0.218750X0.218750X0.256250X-0.218750X0.256250X-0.218750X-0.256250X0.218750X-0.256250X0*%
G04 #@! TD*
G04 #@! TA.AperFunction,SMDPad,CuDef*
%ADD17RoundRect,0.135000X-0.185000X0.135000X-0.185000X-0.135000X0.185000X-0.135000X0.185000X0.135000X0*%
G04 #@! TD*
G04 #@! TA.AperFunction,SMDPad,CuDef*
%ADD18RoundRect,0.062500X-0.337500X-0.062500X0.337500X-0.062500X0.337500X0.062500X-0.337500X0.062500X0*%
G04 #@! TD*
G04 #@! TA.AperFunction,SMDPad,CuDef*
%ADD19RoundRect,0.062500X-0.062500X-0.337500X0.062500X-0.337500X0.062500X0.337500X-0.062500X0.337500X0*%
G04 #@! TD*
G04 #@! TA.AperFunction,SMDPad,CuDef*
%ADD20R,3.350000X3.350000*%
G04 #@! TD*
G04 #@! TA.AperFunction,SMDPad,CuDef*
%ADD21RoundRect,0.135000X0.135000X0.185000X-0.135000X0.185000X-0.135000X-0.185000X0.135000X-0.185000X0*%
G04 #@! TD*
G04 #@! TA.AperFunction,SMDPad,CuDef*
%ADD22R,0.700000X0.340000*%
G04 #@! TD*
G04 #@! TA.AperFunction,SMDPad,CuDef*
%ADD23R,0.600000X1.160000*%
G04 #@! TD*
G04 #@! TA.AperFunction,SMDPad,CuDef*
%ADD24R,0.300000X1.160000*%
G04 #@! TD*
G04 #@! TA.AperFunction,ComponentPad*
%ADD25O,0.900000X2.000000*%
G04 #@! TD*
G04 #@! TA.AperFunction,ComponentPad*
%ADD26O,0.900000X1.700000*%
G04 #@! TD*
G04 #@! TA.AperFunction,SMDPad,CuDef*
%ADD27RoundRect,0.225000X0.225000X0.250000X-0.225000X0.250000X-0.225000X-0.250000X0.225000X-0.250000X0*%
G04 #@! TD*
G04 #@! TA.AperFunction,SMDPad,CuDef*
%ADD28R,0.900000X1.700000*%
G04 #@! TD*
G04 #@! TA.AperFunction,SMDPad,CuDef*
%ADD29RoundRect,0.150000X0.150000X0.700000X-0.150000X0.700000X-0.150000X-0.700000X0.150000X-0.700000X0*%
G04 #@! TD*
G04 #@! TA.AperFunction,SMDPad,CuDef*
%ADD30RoundRect,0.250000X0.250000X1.100000X-0.250000X1.100000X-0.250000X-1.100000X0.250000X-1.100000X0*%
G04 #@! TD*
G04 #@! TA.AperFunction,SMDPad,CuDef*
%ADD31RoundRect,0.250000X0.450000X0.425000X-0.450000X0.425000X-0.450000X-0.425000X0.450000X-0.425000X0*%
G04 #@! TD*
G04 #@! TA.AperFunction,SMDPad,CuDef*
%ADD32RoundRect,0.150000X-0.150000X-0.700000X0.150000X-0.700000X0.150000X0.700000X-0.150000X0.700000X0*%
G04 #@! TD*
G04 #@! TA.AperFunction,SMDPad,CuDef*
%ADD33RoundRect,0.250000X-0.250000X-1.100000X0.250000X-1.100000X0.250000X1.100000X-0.250000X1.100000X0*%
G04 #@! TD*
G04 #@! TA.AperFunction,SMDPad,CuDef*
%ADD34R,0.800000X0.500000*%
G04 #@! TD*
G04 #@! TA.AperFunction,SMDPad,CuDef*
%ADD35R,0.800000X0.400000*%
G04 #@! TD*
G04 #@! TA.AperFunction,SMDPad,CuDef*
%ADD36RoundRect,0.250000X0.262500X0.450000X-0.262500X0.450000X-0.262500X-0.450000X0.262500X-0.450000X0*%
G04 #@! TD*
G04 #@! TA.AperFunction,SMDPad,CuDef*
%ADD37R,0.900000X2.000000*%
G04 #@! TD*
G04 #@! TA.AperFunction,SMDPad,CuDef*
%ADD38R,2.000000X0.900000*%
G04 #@! TD*
G04 #@! TA.AperFunction,SMDPad,CuDef*
%ADD39R,5.000000X5.000000*%
G04 #@! TD*
G04 #@! TA.AperFunction,SMDPad,CuDef*
%ADD40RoundRect,0.150000X-0.150000X0.587500X-0.150000X-0.587500X0.150000X-0.587500X0.150000X0.587500X0*%
G04 #@! TD*
G04 #@! TA.AperFunction,SMDPad,CuDef*
%ADD41RoundRect,0.150000X-0.700000X0.150000X-0.700000X-0.150000X0.700000X-0.150000X0.700000X0.150000X0*%
G04 #@! TD*
G04 #@! TA.AperFunction,SMDPad,CuDef*
%ADD42RoundRect,0.250000X-1.100000X0.250000X-1.100000X-0.250000X1.100000X-0.250000X1.100000X0.250000X0*%
G04 #@! TD*
G04 #@! TA.AperFunction,SMDPad,CuDef*
%ADD43RoundRect,0.250000X-0.425000X0.450000X-0.425000X-0.450000X0.425000X-0.450000X0.425000X0.450000X0*%
G04 #@! TD*
G04 #@! TA.AperFunction,SMDPad,CuDef*
%ADD44R,2.500000X1.800000*%
G04 #@! TD*
G04 #@! TA.AperFunction,SMDPad,CuDef*
%ADD45RoundRect,0.150000X-0.587500X-0.150000X0.587500X-0.150000X0.587500X0.150000X-0.587500X0.150000X0*%
G04 #@! TD*
G04 #@! TA.AperFunction,SMDPad,CuDef*
%ADD46RoundRect,0.100000X-0.637500X-0.100000X0.637500X-0.100000X0.637500X0.100000X-0.637500X0.100000X0*%
G04 #@! TD*
G04 #@! TA.AperFunction,SMDPad,CuDef*
%ADD47R,1.500000X2.000000*%
G04 #@! TD*
G04 #@! TA.AperFunction,SMDPad,CuDef*
%ADD48R,3.800000X2.000000*%
G04 #@! TD*
G04 #@! TA.AperFunction,SMDPad,CuDef*
%ADD49RoundRect,0.100000X0.637500X0.100000X-0.637500X0.100000X-0.637500X-0.100000X0.637500X-0.100000X0*%
G04 #@! TD*
G04 #@! TA.AperFunction,ComponentPad*
%ADD50R,1.350000X1.350000*%
G04 #@! TD*
G04 #@! TA.AperFunction,ComponentPad*
%ADD51O,1.350000X1.350000*%
G04 #@! TD*
G04 #@! TA.AperFunction,ViaPad*
%ADD52C,0.550000*%
G04 #@! TD*
G04 #@! TA.AperFunction,Conductor*
%ADD53C,0.500000*%
G04 #@! TD*
G04 #@! TA.AperFunction,Conductor*
%ADD54C,1.000000*%
G04 #@! TD*
G04 #@! TA.AperFunction,Conductor*
%ADD55C,0.300000*%
G04 #@! TD*
G04 #@! TA.AperFunction,Conductor*
%ADD56C,0.150000*%
G04 #@! TD*
G04 #@! TA.AperFunction,Conductor*
%ADD57C,0.200000*%
G04 #@! TD*
G04 #@! TA.AperFunction,Conductor*
%ADD58C,0.250000*%
G04 #@! TD*
G04 APERTURE END LIST*
D10*
G04 #@! TO.P,C10,1*
G04 #@! TO.N,5V_USB*
X182420000Y-141240000D03*
G04 #@! TO.P,C10,2*
G04 #@! TO.N,GND*
X181460000Y-141240000D03*
G04 #@! TD*
D11*
G04 #@! TO.P,C34,1*
G04 #@! TO.N,Net-(C34-Pad1)*
X136320000Y-116300000D03*
G04 #@! TO.P,C34,2*
G04 #@! TO.N,GND*
X137280000Y-116300000D03*
G04 #@! TD*
D12*
G04 #@! TO.P,R28,1*
G04 #@! TO.N,+3V3*
X139352500Y-133875000D03*
G04 #@! TO.P,R28,2*
G04 #@! TO.N,B1_CS2*
X140372500Y-133875000D03*
G04 #@! TD*
D13*
G04 #@! TO.P,C1,1*
G04 #@! TO.N,Net-(C1-Pad1)*
X155800000Y-136570000D03*
G04 #@! TO.P,C1,2*
G04 #@! TO.N,GND*
X155800000Y-137530000D03*
G04 #@! TD*
D14*
G04 #@! TO.P,C28,1*
G04 #@! TO.N,Net-(C28-Pad1)*
X132050000Y-135780000D03*
G04 #@! TO.P,C28,2*
G04 #@! TO.N,GND*
X132050000Y-134820000D03*
G04 #@! TD*
D15*
G04 #@! TO.P,R44,1*
G04 #@! TO.N,/SPI ports C & D/S2_MOSI*
X132050000Y-138310000D03*
G04 #@! TO.P,R44,2*
G04 #@! TO.N,Net-(C28-Pad1)*
X132050000Y-137290000D03*
G04 #@! TD*
G04 #@! TO.P,R40,1*
G04 #@! TO.N,+3V3*
X141200000Y-123945000D03*
G04 #@! TO.P,R40,2*
G04 #@! TO.N,B1_CS0*
X141200000Y-122925000D03*
G04 #@! TD*
D14*
G04 #@! TO.P,C26,1*
G04 #@! TO.N,Net-(C26-Pad1)*
X130050000Y-135780000D03*
G04 #@! TO.P,C26,2*
G04 #@! TO.N,GND*
X130050000Y-134820000D03*
G04 #@! TD*
D15*
G04 #@! TO.P,R1,1*
G04 #@! TO.N,+3V3*
X183440000Y-142250000D03*
G04 #@! TO.P,R1,2*
G04 #@! TO.N,Net-(R1-Pad2)*
X183440000Y-141230000D03*
G04 #@! TD*
D10*
G04 #@! TO.P,C15,1*
G04 #@! TO.N,+3V3*
X140342500Y-134875000D03*
G04 #@! TO.P,C15,2*
G04 #@! TO.N,GND*
X139382500Y-134875000D03*
G04 #@! TD*
D12*
G04 #@! TO.P,R48,1*
G04 #@! TO.N,/SPI ports E & F/S1_CLK*
X151180000Y-116300000D03*
G04 #@! TO.P,R48,2*
G04 #@! TO.N,Net-(C31-Pad1)*
X152200000Y-116300000D03*
G04 #@! TD*
D16*
G04 #@! TO.P,D2,1,K*
G04 #@! TO.N,Net-(D2-Pad1)*
X172387500Y-112700000D03*
G04 #@! TO.P,D2,2,A*
G04 #@! TO.N,+3V3*
X170812500Y-112700000D03*
G04 #@! TD*
D11*
G04 #@! TO.P,C33,1*
G04 #@! TO.N,Net-(C33-Pad1)*
X136320000Y-115300000D03*
G04 #@! TO.P,C33,2*
G04 #@! TO.N,GND*
X137280000Y-115300000D03*
G04 #@! TD*
D12*
G04 #@! TO.P,R55,1*
G04 #@! TO.N,/SPI ports E & F/S2_CLK*
X133790000Y-116300000D03*
G04 #@! TO.P,R55,2*
G04 #@! TO.N,Net-(C34-Pad1)*
X134810000Y-116300000D03*
G04 #@! TD*
D17*
G04 #@! TO.P,R34,1*
G04 #@! TO.N,+3V3*
X129050000Y-119390000D03*
G04 #@! TO.P,R34,2*
G04 #@! TO.N,Net-(C24-Pad1)*
X129050000Y-120410000D03*
G04 #@! TD*
D15*
G04 #@! TO.P,R36,1*
G04 #@! TO.N,/SPI ports C & D/S1_CLK*
X131050000Y-120800000D03*
G04 #@! TO.P,R36,2*
G04 #@! TO.N,Net-(C24-Pad1)*
X131050000Y-119780000D03*
G04 #@! TD*
D17*
G04 #@! TO.P,R7,1*
G04 #@! TO.N,ESP_IO2*
X167935000Y-129390000D03*
G04 #@! TO.P,R7,2*
G04 #@! TO.N,GND*
X167935000Y-130410000D03*
G04 #@! TD*
G04 #@! TO.P,R52,1*
G04 #@! TO.N,+3V3*
X149100000Y-115190000D03*
G04 #@! TO.P,R52,2*
G04 #@! TO.N,B0_CS1*
X149100000Y-116210000D03*
G04 #@! TD*
D12*
G04 #@! TO.P,R18,1*
G04 #@! TO.N,Net-(D2-Pad1)*
X173590000Y-112700000D03*
G04 #@! TO.P,R18,2*
G04 #@! TO.N,ESP_RXD*
X174610000Y-112700000D03*
G04 #@! TD*
D18*
G04 #@! TO.P,U2,1,~{DCD}*
G04 #@! TO.N,unconnected-(U2-Pad1)*
X181600000Y-136100000D03*
G04 #@! TO.P,U2,2,~{RI}/CLK*
G04 #@! TO.N,unconnected-(U2-Pad2)*
X181600000Y-136600000D03*
G04 #@! TO.P,U2,3,GND*
G04 #@! TO.N,GND*
X181600000Y-137100000D03*
G04 #@! TO.P,U2,4,D+*
G04 #@! TO.N,USB_D+*
X181600000Y-137600000D03*
G04 #@! TO.P,U2,5,D-*
G04 #@! TO.N,USB_D-*
X181600000Y-138100000D03*
G04 #@! TO.P,U2,6,VDD*
G04 #@! TO.N,+3V3*
X181600000Y-138600000D03*
G04 #@! TO.P,U2,7,VREGIN*
X181600000Y-139100000D03*
D19*
G04 #@! TO.P,U2,8,VBUS*
G04 #@! TO.N,5V_USB*
X182550000Y-140050000D03*
G04 #@! TO.P,U2,9,~{RST}*
G04 #@! TO.N,Net-(R1-Pad2)*
X183050000Y-140050000D03*
G04 #@! TO.P,U2,10,NC*
G04 #@! TO.N,unconnected-(U2-Pad10)*
X183550000Y-140050000D03*
G04 #@! TO.P,U2,11,~{SUSPEND}*
G04 #@! TO.N,unconnected-(U2-Pad11)*
X184050000Y-140050000D03*
G04 #@! TO.P,U2,12,SUSPEND*
G04 #@! TO.N,unconnected-(U2-Pad12)*
X184550000Y-140050000D03*
G04 #@! TO.P,U2,13,CHREN*
G04 #@! TO.N,unconnected-(U2-Pad13)*
X185050000Y-140050000D03*
G04 #@! TO.P,U2,14,CHR1*
G04 #@! TO.N,unconnected-(U2-Pad14)*
X185550000Y-140050000D03*
D18*
G04 #@! TO.P,U2,15,CHR0*
G04 #@! TO.N,unconnected-(U2-Pad15)*
X186500000Y-139100000D03*
G04 #@! TO.P,U2,16,~{WAKEUP}/GPIO.3*
G04 #@! TO.N,unconnected-(U2-Pad16)*
X186500000Y-138600000D03*
G04 #@! TO.P,U2,17,RS485/GPIO.2*
G04 #@! TO.N,unconnected-(U2-Pad17)*
X186500000Y-138100000D03*
G04 #@! TO.P,U2,18,~{RXT}/GPIO.1*
G04 #@! TO.N,unconnected-(U2-Pad18)*
X186500000Y-137600000D03*
G04 #@! TO.P,U2,19,~{TXT}/GPIO.0*
G04 #@! TO.N,unconnected-(U2-Pad19)*
X186500000Y-137100000D03*
G04 #@! TO.P,U2,20,GPIO.6*
G04 #@! TO.N,unconnected-(U2-Pad20)*
X186500000Y-136600000D03*
G04 #@! TO.P,U2,21,GPIO.5*
G04 #@! TO.N,unconnected-(U2-Pad21)*
X186500000Y-136100000D03*
D19*
G04 #@! TO.P,U2,22,GPIO.4*
G04 #@! TO.N,unconnected-(U2-Pad22)*
X185550000Y-135150000D03*
G04 #@! TO.P,U2,23,~{CTS}*
G04 #@! TO.N,unconnected-(U2-Pad23)*
X185050000Y-135150000D03*
G04 #@! TO.P,U2,24,~{RTS}*
G04 #@! TO.N,Net-(Q2-Pad1)*
X184550000Y-135150000D03*
G04 #@! TO.P,U2,25,RXD*
G04 #@! TO.N,ESP_TXD*
X184050000Y-135150000D03*
G04 #@! TO.P,U2,26,TXD*
G04 #@! TO.N,Net-(R2-Pad1)*
X183550000Y-135150000D03*
G04 #@! TO.P,U2,27,~{DSR}*
G04 #@! TO.N,unconnected-(U2-Pad27)*
X183050000Y-135150000D03*
G04 #@! TO.P,U2,28,~{DTR}*
G04 #@! TO.N,Net-(Q3-Pad1)*
X182550000Y-135150000D03*
D20*
G04 #@! TO.P,U2,29,GND*
G04 #@! TO.N,GND*
X184050000Y-137600000D03*
G04 #@! TD*
D15*
G04 #@! TO.P,R15,1*
G04 #@! TO.N,Net-(P1-PadA5)*
X171510000Y-137600000D03*
G04 #@! TO.P,R15,2*
G04 #@! TO.N,GND*
X171510000Y-136580000D03*
G04 #@! TD*
D21*
G04 #@! TO.P,R33,1*
G04 #@! TO.N,/SPI ports A & B/S2_MISO*
X153910000Y-136300000D03*
G04 #@! TO.P,R33,2*
G04 #@! TO.N,Net-(J3-Pad7)*
X152890000Y-136300000D03*
G04 #@! TD*
D11*
G04 #@! TO.P,C13,1*
G04 #@! TO.N,Net-(C13-Pad1)*
X159820000Y-120000000D03*
G04 #@! TO.P,C13,2*
G04 #@! TO.N,GND*
X160780000Y-120000000D03*
G04 #@! TD*
D12*
G04 #@! TO.P,R49,1*
G04 #@! TO.N,/SPI ports E & F/S1_MOSI*
X151180000Y-117300000D03*
G04 #@! TO.P,R49,2*
G04 #@! TO.N,Net-(C32-Pad1)*
X152200000Y-117300000D03*
G04 #@! TD*
D22*
G04 #@! TO.P,U4,1,I/O1*
G04 #@! TO.N,USB_D-*
X177300000Y-137300000D03*
G04 #@! TO.P,U4,2,GND*
G04 #@! TO.N,GND*
X177300000Y-136800000D03*
G04 #@! TO.P,U4,3,I/O2*
G04 #@! TO.N,USB_D+*
X177300000Y-136300000D03*
G04 #@! TO.P,U4,4,I/O2*
G04 #@! TO.N,USB_CONN_D+*
X175800000Y-136300000D03*
G04 #@! TO.P,U4,5,VBUS*
G04 #@! TO.N,5V_USB*
X175800000Y-136800000D03*
G04 #@! TO.P,U4,6,I/O1*
G04 #@! TO.N,USB_CONN_D-*
X175800000Y-137300000D03*
G04 #@! TD*
D14*
G04 #@! TO.P,C9,1*
G04 #@! TO.N,ESP_EN*
X179700000Y-113290000D03*
G04 #@! TO.P,C9,2*
G04 #@! TO.N,GND*
X179700000Y-112330000D03*
G04 #@! TD*
D21*
G04 #@! TO.P,R26,1*
G04 #@! TO.N,/SPI ports A & B/S1_MISO*
X140410000Y-136300000D03*
G04 #@! TO.P,R26,2*
G04 #@! TO.N,Net-(J2-Pad7)*
X139390000Y-136300000D03*
G04 #@! TD*
D23*
G04 #@! TO.P,P1,A1,GND*
G04 #@! TO.N,GND*
X170110000Y-140500000D03*
G04 #@! TO.P,P1,A4,VBUS*
G04 #@! TO.N,5V_USB*
X170910000Y-140500000D03*
D24*
G04 #@! TO.P,P1,A5,CC*
G04 #@! TO.N,Net-(P1-PadA5)*
X172060000Y-140500000D03*
G04 #@! TO.P,P1,A6,D+*
G04 #@! TO.N,USB_CONN_D+*
X173060000Y-140500000D03*
G04 #@! TO.P,P1,A7,D-*
G04 #@! TO.N,USB_CONN_D-*
X173560000Y-140500000D03*
G04 #@! TO.P,P1,A8,SBU1*
G04 #@! TO.N,unconnected-(P1-PadA8)*
X174560000Y-140500000D03*
D23*
G04 #@! TO.P,P1,A9,VBUS*
G04 #@! TO.N,5V_USB*
X175710000Y-140500000D03*
G04 #@! TO.P,P1,A12,GND*
G04 #@! TO.N,GND*
X176510000Y-140500000D03*
G04 #@! TO.P,P1,B1,GND*
X176510000Y-140500000D03*
G04 #@! TO.P,P1,B4,VBUS*
G04 #@! TO.N,5V_USB*
X175710000Y-140500000D03*
D24*
G04 #@! TO.P,P1,B5,VCONN*
G04 #@! TO.N,Net-(P1-PadB5)*
X175060000Y-140500000D03*
G04 #@! TO.P,P1,B6,D+*
G04 #@! TO.N,USB_CONN_D+*
X174060000Y-140500000D03*
G04 #@! TO.P,P1,B7,D-*
G04 #@! TO.N,USB_CONN_D-*
X172560000Y-140500000D03*
G04 #@! TO.P,P1,B8,SBU2*
G04 #@! TO.N,unconnected-(P1-PadB8)*
X171560000Y-140500000D03*
D23*
G04 #@! TO.P,P1,B9,VBUS*
G04 #@! TO.N,5V_USB*
X170910000Y-140500000D03*
G04 #@! TO.P,P1,B12,GND*
G04 #@! TO.N,GND*
X170110000Y-140500000D03*
D25*
G04 #@! TO.P,P1,S1,SHIELD*
G04 #@! TO.N,unconnected-(P1-PadS1)*
X177630000Y-141080000D03*
D26*
X177630000Y-145250000D03*
D25*
X168990000Y-141080000D03*
D26*
X168990000Y-145250000D03*
G04 #@! TD*
D21*
G04 #@! TO.P,R29,1*
G04 #@! TO.N,+3V3*
X148310000Y-135800000D03*
G04 #@! TO.P,R29,2*
G04 #@! TO.N,B1_CS1*
X147290000Y-135800000D03*
G04 #@! TD*
D14*
G04 #@! TO.P,C12,1*
G04 #@! TO.N,5V_USB*
X169810000Y-137580000D03*
G04 #@! TO.P,C12,2*
G04 #@! TO.N,GND*
X169810000Y-136620000D03*
G04 #@! TD*
D15*
G04 #@! TO.P,R35,1*
G04 #@! TO.N,B0_CS2*
X130050000Y-120800000D03*
G04 #@! TO.P,R35,2*
G04 #@! TO.N,Net-(C23-Pad1)*
X130050000Y-119780000D03*
G04 #@! TD*
D27*
G04 #@! TO.P,C6,1*
G04 #@! TO.N,+3V3*
X182475000Y-110600000D03*
G04 #@! TO.P,C6,2*
G04 #@! TO.N,GND*
X180925000Y-110600000D03*
G04 #@! TD*
D28*
G04 #@! TO.P,SW2,1,1*
G04 #@! TO.N,GND*
X156100000Y-124600000D03*
G04 #@! TO.P,SW2,2,2*
G04 #@! TO.N,Net-(C14-Pad1)*
X159500000Y-124600000D03*
G04 #@! TD*
D15*
G04 #@! TO.P,R45,1*
G04 #@! TO.N,/SPI ports C & D/S2_MISO*
X133050000Y-138310000D03*
G04 #@! TO.P,R45,2*
G04 #@! TO.N,Net-(J5-Pad7)*
X133050000Y-137290000D03*
G04 #@! TD*
D17*
G04 #@! TO.P,R3,1*
G04 #@! TO.N,+3V3*
X180700000Y-112280000D03*
G04 #@! TO.P,R3,2*
G04 #@! TO.N,ESP_EN*
X180700000Y-113300000D03*
G04 #@! TD*
D29*
G04 #@! TO.P,J7,1,Pin_1*
G04 #@! TO.N,+5V*
X140850000Y-112350000D03*
G04 #@! TO.P,J7,2,Pin_2*
G04 #@! TO.N,GND*
X139600000Y-112350000D03*
G04 #@! TO.P,J7,3,Pin_3*
G04 #@! TO.N,+3V3*
X138350000Y-112350000D03*
G04 #@! TO.P,J7,4,Pin_4*
G04 #@! TO.N,Net-(C33-Pad1)*
X137100000Y-112350000D03*
G04 #@! TO.P,J7,5,Pin_5*
G04 #@! TO.N,Net-(C34-Pad1)*
X135850000Y-112350000D03*
G04 #@! TO.P,J7,6,Pin_6*
G04 #@! TO.N,Net-(C35-Pad1)*
X134600000Y-112350000D03*
G04 #@! TO.P,J7,7,Pin_7*
G04 #@! TO.N,Net-(J7-Pad7)*
X133350000Y-112350000D03*
D30*
G04 #@! TO.P,J7,MP,MountPin*
G04 #@! TO.N,GND*
X142700000Y-109150000D03*
X131500000Y-109150000D03*
G04 #@! TD*
D31*
G04 #@! TO.P,C4,1*
G04 #@! TO.N,+3V3*
X152840000Y-125900000D03*
G04 #@! TO.P,C4,2*
G04 #@! TO.N,GND*
X150140000Y-125900000D03*
G04 #@! TD*
D15*
G04 #@! TO.P,R8,1*
G04 #@! TO.N,/IO12*
X167900000Y-115100000D03*
G04 #@! TO.P,R8,2*
G04 #@! TO.N,GND*
X167900000Y-114080000D03*
G04 #@! TD*
D21*
G04 #@! TO.P,R10,1*
G04 #@! TO.N,/IO13*
X152210000Y-120300000D03*
G04 #@! TO.P,R10,2*
G04 #@! TO.N,B0-MOSI*
X151190000Y-120300000D03*
G04 #@! TD*
D32*
G04 #@! TO.P,J2,1,Pin_1*
G04 #@! TO.N,+5V*
X133350000Y-142250000D03*
G04 #@! TO.P,J2,2,Pin_2*
G04 #@! TO.N,GND*
X134600000Y-142250000D03*
G04 #@! TO.P,J2,3,Pin_3*
G04 #@! TO.N,+3V3*
X135850000Y-142250000D03*
G04 #@! TO.P,J2,4,Pin_4*
G04 #@! TO.N,Net-(C16-Pad1)*
X137100000Y-142250000D03*
G04 #@! TO.P,J2,5,Pin_5*
G04 #@! TO.N,Net-(C17-Pad1)*
X138350000Y-142250000D03*
G04 #@! TO.P,J2,6,Pin_6*
G04 #@! TO.N,Net-(C18-Pad1)*
X139600000Y-142250000D03*
G04 #@! TO.P,J2,7,Pin_7*
G04 #@! TO.N,Net-(J2-Pad7)*
X140850000Y-142250000D03*
D33*
G04 #@! TO.P,J2,MP,MountPin*
G04 #@! TO.N,GND*
X142700000Y-145450000D03*
X131500000Y-145450000D03*
G04 #@! TD*
D15*
G04 #@! TO.P,R43,1*
G04 #@! TO.N,/SPI ports C & D/S2_CLK*
X131050000Y-138310000D03*
G04 #@! TO.P,R43,2*
G04 #@! TO.N,Net-(C27-Pad1)*
X131050000Y-137290000D03*
G04 #@! TD*
D17*
G04 #@! TO.P,R5,1*
G04 #@! TO.N,Net-(Q2-Pad1)*
X155740000Y-128030000D03*
G04 #@! TO.P,R5,2*
G04 #@! TO.N,Net-(Q3-Pad2)*
X155740000Y-129050000D03*
G04 #@! TD*
D10*
G04 #@! TO.P,C21,1*
G04 #@! TO.N,Net-(C21-Pad1)*
X151270000Y-137300000D03*
G04 #@! TO.P,C21,2*
G04 #@! TO.N,GND*
X150310000Y-137300000D03*
G04 #@! TD*
D12*
G04 #@! TO.P,R57,1*
G04 #@! TO.N,/SPI ports E & F/S2_MISO*
X133790000Y-118300000D03*
G04 #@! TO.P,R57,2*
G04 #@! TO.N,Net-(J7-Pad7)*
X134810000Y-118300000D03*
G04 #@! TD*
D14*
G04 #@! TO.P,C23,1*
G04 #@! TO.N,Net-(C23-Pad1)*
X130050000Y-118270000D03*
G04 #@! TO.P,C23,2*
G04 #@! TO.N,GND*
X130050000Y-117310000D03*
G04 #@! TD*
D21*
G04 #@! TO.P,R30,1*
G04 #@! TO.N,B1_CS2*
X153910000Y-139300000D03*
G04 #@! TO.P,R30,2*
G04 #@! TO.N,Net-(C19-Pad1)*
X152890000Y-139300000D03*
G04 #@! TD*
D29*
G04 #@! TO.P,J6,1,Pin_1*
G04 #@! TO.N,+5V*
X156250000Y-112350000D03*
G04 #@! TO.P,J6,2,Pin_2*
G04 #@! TO.N,GND*
X155000000Y-112350000D03*
G04 #@! TO.P,J6,3,Pin_3*
G04 #@! TO.N,+3V3*
X153750000Y-112350000D03*
G04 #@! TO.P,J6,4,Pin_4*
G04 #@! TO.N,Net-(C30-Pad1)*
X152500000Y-112350000D03*
G04 #@! TO.P,J6,5,Pin_5*
G04 #@! TO.N,Net-(C31-Pad1)*
X151250000Y-112350000D03*
G04 #@! TO.P,J6,6,Pin_6*
G04 #@! TO.N,Net-(C32-Pad1)*
X150000000Y-112350000D03*
G04 #@! TO.P,J6,7,Pin_7*
G04 #@! TO.N,Net-(J6-Pad7)*
X148750000Y-112350000D03*
D30*
G04 #@! TO.P,J6,MP,MountPin*
G04 #@! TO.N,GND*
X146900000Y-109150000D03*
X158100000Y-109150000D03*
G04 #@! TD*
D28*
G04 #@! TO.P,SW1,1,1*
G04 #@! TO.N,GND*
X156100000Y-117800000D03*
G04 #@! TO.P,SW1,2,2*
G04 #@! TO.N,Net-(C13-Pad1)*
X159500000Y-117800000D03*
G04 #@! TD*
D11*
G04 #@! TO.P,C32,1*
G04 #@! TO.N,Net-(C32-Pad1)*
X153700000Y-117300000D03*
G04 #@! TO.P,C32,2*
G04 #@! TO.N,GND*
X154660000Y-117300000D03*
G04 #@! TD*
D21*
G04 #@! TO.P,R21,1*
G04 #@! TO.N,Net-(C14-Pad1)*
X160450000Y-129400000D03*
G04 #@! TO.P,R21,2*
G04 #@! TO.N,ESP_IO0*
X159430000Y-129400000D03*
G04 #@! TD*
G04 #@! TO.P,R32,1*
G04 #@! TO.N,/SPI ports A & B/S2_MOSI*
X153910000Y-137300000D03*
G04 #@! TO.P,R32,2*
G04 #@! TO.N,Net-(C21-Pad1)*
X152890000Y-137300000D03*
G04 #@! TD*
D34*
G04 #@! TO.P,RN1,1,R1.1*
G04 #@! TO.N,Net-(RN1-Pad1)*
X163000000Y-127800000D03*
D35*
G04 #@! TO.P,RN1,2,R2.1*
X163000000Y-127000000D03*
G04 #@! TO.P,RN1,3,R3.1*
G04 #@! TO.N,Net-(RN1-Pad3)*
X163000000Y-126200000D03*
D34*
G04 #@! TO.P,RN1,4,R4.1*
X163000000Y-125400000D03*
G04 #@! TO.P,RN1,5,R4.2*
G04 #@! TO.N,5V_USB*
X161200000Y-125400000D03*
D35*
G04 #@! TO.P,RN1,6,R3.2*
G04 #@! TO.N,GND*
X161200000Y-126200000D03*
G04 #@! TO.P,RN1,7,R2.2*
G04 #@! TO.N,+5V*
X161200000Y-127000000D03*
D34*
G04 #@! TO.P,RN1,8,R1.2*
G04 #@! TO.N,GND*
X161200000Y-127800000D03*
G04 #@! TD*
D21*
G04 #@! TO.P,R51,1*
G04 #@! TO.N,+3V3*
X137310000Y-114300000D03*
G04 #@! TO.P,R51,2*
G04 #@! TO.N,Net-(C34-Pad1)*
X136290000Y-114300000D03*
G04 #@! TD*
D36*
G04 #@! TO.P,FB1,1*
G04 #@! TO.N,Net-(FB1-Pad1)*
X159000000Y-134650000D03*
G04 #@! TO.P,FB1,2*
G04 #@! TO.N,Net-(C1-Pad1)*
X157175000Y-134650000D03*
G04 #@! TD*
D15*
G04 #@! TO.P,R4,1*
G04 #@! TO.N,Net-(Q3-Pad1)*
X156000000Y-122410000D03*
G04 #@! TO.P,R4,2*
G04 #@! TO.N,Net-(Q2-Pad2)*
X156000000Y-121390000D03*
G04 #@! TD*
D37*
G04 #@! TO.P,U3,1,GND*
G04 #@! TO.N,GND*
X187300000Y-115100000D03*
G04 #@! TO.P,U3,2,VDD*
G04 #@! TO.N,+3V3*
X186030000Y-115100000D03*
G04 #@! TO.P,U3,3,EN*
G04 #@! TO.N,ESP_EN*
X184760000Y-115100000D03*
G04 #@! TO.P,U3,4,SENSOR_VP*
G04 #@! TO.N,Net-(RN1-Pad3)*
X183490000Y-115100000D03*
G04 #@! TO.P,U3,5,SENSOR_VN*
G04 #@! TO.N,Net-(RN1-Pad1)*
X182220000Y-115100000D03*
G04 #@! TO.P,U3,6,IO34*
G04 #@! TO.N,unconnected-(U3-Pad6)*
X180950000Y-115100000D03*
G04 #@! TO.P,U3,7,IO35*
G04 #@! TO.N,ESP_IO35*
X179680000Y-115100000D03*
G04 #@! TO.P,U3,8,IO32*
G04 #@! TO.N,LED_BLUE*
X178410000Y-115100000D03*
G04 #@! TO.P,U3,9,IO33*
G04 #@! TO.N,B1_CS1*
X177140000Y-115100000D03*
G04 #@! TO.P,U3,10,IO25*
G04 #@! TO.N,B0_CS2*
X175870000Y-115100000D03*
G04 #@! TO.P,U3,11,IO26*
G04 #@! TO.N,B0_CS1*
X174600000Y-115100000D03*
G04 #@! TO.P,U3,12,IO27*
G04 #@! TO.N,B0_CS0*
X173330000Y-115100000D03*
G04 #@! TO.P,U3,13,IO14*
G04 #@! TO.N,/IO14*
X172060000Y-115100000D03*
G04 #@! TO.P,U3,14,IO12*
G04 #@! TO.N,/IO12*
X170790000Y-115100000D03*
D38*
G04 #@! TO.P,U3,15,GND*
G04 #@! TO.N,GND*
X169790000Y-117885000D03*
G04 #@! TO.P,U3,16,IO13*
G04 #@! TO.N,/IO13*
X169790000Y-119155000D03*
G04 #@! TO.P,U3,17,SHD/SD2*
G04 #@! TO.N,unconnected-(U3-Pad17)*
X169790000Y-120425000D03*
G04 #@! TO.P,U3,18,SWP/SD3*
G04 #@! TO.N,unconnected-(U3-Pad18)*
X169790000Y-121695000D03*
G04 #@! TO.P,U3,19,SCS/CMD*
G04 #@! TO.N,unconnected-(U3-Pad19)*
X169790000Y-122965000D03*
G04 #@! TO.P,U3,20,SCK/CLK*
G04 #@! TO.N,unconnected-(U3-Pad20)*
X169790000Y-124235000D03*
G04 #@! TO.P,U3,21,SDO/SD0*
G04 #@! TO.N,unconnected-(U3-Pad21)*
X169790000Y-125505000D03*
G04 #@! TO.P,U3,22,SDI/SD1*
G04 #@! TO.N,unconnected-(U3-Pad22)*
X169790000Y-126775000D03*
G04 #@! TO.P,U3,23,IO15*
G04 #@! TO.N,ESP_IO15*
X169790000Y-128045000D03*
G04 #@! TO.P,U3,24,IO2*
G04 #@! TO.N,ESP_IO2*
X169790000Y-129315000D03*
D37*
G04 #@! TO.P,U3,25,IO0*
G04 #@! TO.N,ESP_IO0*
X170790000Y-132100000D03*
G04 #@! TO.P,U3,26,IO4*
G04 #@! TO.N,LED_GREEN*
X172060000Y-132100000D03*
G04 #@! TO.P,U3,27,IO16*
G04 #@! TO.N,ESP_IO16*
X173330000Y-132100000D03*
G04 #@! TO.P,U3,28,IO17*
G04 #@! TO.N,ESP_IO17*
X174600000Y-132100000D03*
G04 #@! TO.P,U3,29,IO5*
G04 #@! TO.N,ESP_IO5*
X175870000Y-132100000D03*
G04 #@! TO.P,U3,30,IO18*
G04 #@! TO.N,/IO18*
X177140000Y-132100000D03*
G04 #@! TO.P,U3,31,IO19*
G04 #@! TO.N,/IO19*
X178410000Y-132100000D03*
G04 #@! TO.P,U3,32,NC*
G04 #@! TO.N,unconnected-(U3-Pad32)*
X179680000Y-132100000D03*
G04 #@! TO.P,U3,33,IO21*
G04 #@! TO.N,B1_CS2*
X180950000Y-132100000D03*
G04 #@! TO.P,U3,34,RXD0/IO3*
G04 #@! TO.N,ESP_RXD*
X182220000Y-132100000D03*
G04 #@! TO.P,U3,35,TXD0/IO1*
G04 #@! TO.N,ESP_TXD*
X183490000Y-132100000D03*
G04 #@! TO.P,U3,36,IO22*
G04 #@! TO.N,B1_CS0*
X184760000Y-132100000D03*
G04 #@! TO.P,U3,37,IO23*
G04 #@! TO.N,/IO23*
X186030000Y-132100000D03*
G04 #@! TO.P,U3,38,GND*
G04 #@! TO.N,GND*
X187300000Y-132100000D03*
D39*
G04 #@! TO.P,U3,39,GND*
X179800000Y-122600000D03*
G04 #@! TD*
D12*
G04 #@! TO.P,R50,1*
G04 #@! TO.N,/SPI ports E & F/S1_MISO*
X151180000Y-118300000D03*
G04 #@! TO.P,R50,2*
G04 #@! TO.N,Net-(J6-Pad7)*
X152200000Y-118300000D03*
G04 #@! TD*
D21*
G04 #@! TO.P,R16,1*
G04 #@! TO.N,Net-(P1-PadB5)*
X175600000Y-138600000D03*
G04 #@! TO.P,R16,2*
G04 #@! TO.N,GND*
X174580000Y-138600000D03*
G04 #@! TD*
D10*
G04 #@! TO.P,C7,1*
G04 #@! TO.N,+3V3*
X180340000Y-138790000D03*
G04 #@! TO.P,C7,2*
G04 #@! TO.N,GND*
X179380000Y-138790000D03*
G04 #@! TD*
D40*
G04 #@! TO.P,Q1,1,G*
G04 #@! TO.N,GND*
X161190000Y-136662500D03*
G04 #@! TO.P,Q1,2,S*
G04 #@! TO.N,Net-(FB1-Pad1)*
X159290000Y-136662500D03*
G04 #@! TO.P,Q1,3,D*
G04 #@! TO.N,+5V*
X160240000Y-138537500D03*
G04 #@! TD*
D15*
G04 #@! TO.P,R38,1*
G04 #@! TO.N,/SPI ports C & D/S1_MISO*
X133050000Y-120800000D03*
G04 #@! TO.P,R38,2*
G04 #@! TO.N,Net-(J4-Pad7)*
X133050000Y-119780000D03*
G04 #@! TD*
D10*
G04 #@! TO.P,C17,1*
G04 #@! TO.N,Net-(C17-Pad1)*
X137900000Y-138300000D03*
G04 #@! TO.P,C17,2*
G04 #@! TO.N,GND*
X136940000Y-138300000D03*
G04 #@! TD*
G04 #@! TO.P,C19,1*
G04 #@! TO.N,Net-(C19-Pad1)*
X151250000Y-139300000D03*
G04 #@! TO.P,C19,2*
G04 #@! TO.N,GND*
X150290000Y-139300000D03*
G04 #@! TD*
D14*
G04 #@! TO.P,C27,1*
G04 #@! TO.N,Net-(C27-Pad1)*
X131050000Y-135780000D03*
G04 #@! TO.P,C27,2*
G04 #@! TO.N,GND*
X131050000Y-134820000D03*
G04 #@! TD*
D11*
G04 #@! TO.P,C30,1*
G04 #@! TO.N,Net-(C30-Pad1)*
X153700000Y-115300000D03*
G04 #@! TO.P,C30,2*
G04 #@! TO.N,GND*
X154660000Y-115300000D03*
G04 #@! TD*
D13*
G04 #@! TO.P,C3,1*
G04 #@! TO.N,+3V3*
X154390000Y-125470000D03*
G04 #@! TO.P,C3,2*
G04 #@! TO.N,GND*
X154390000Y-126430000D03*
G04 #@! TD*
D15*
G04 #@! TO.P,R37,1*
G04 #@! TO.N,/SPI ports C & D/S1_MOSI*
X132050000Y-120810000D03*
G04 #@! TO.P,R37,2*
G04 #@! TO.N,Net-(C25-Pad1)*
X132050000Y-119790000D03*
G04 #@! TD*
D41*
G04 #@! TO.P,J4,1,Pin_1*
G04 #@! TO.N,+5V*
X127100000Y-115850000D03*
G04 #@! TO.P,J4,2,Pin_2*
G04 #@! TO.N,GND*
X127100000Y-117100000D03*
G04 #@! TO.P,J4,3,Pin_3*
G04 #@! TO.N,+3V3*
X127100000Y-118350000D03*
G04 #@! TO.P,J4,4,Pin_4*
G04 #@! TO.N,Net-(C23-Pad1)*
X127100000Y-119600000D03*
G04 #@! TO.P,J4,5,Pin_5*
G04 #@! TO.N,Net-(C24-Pad1)*
X127100000Y-120850000D03*
G04 #@! TO.P,J4,6,Pin_6*
G04 #@! TO.N,Net-(C25-Pad1)*
X127100000Y-122100000D03*
G04 #@! TO.P,J4,7,Pin_7*
G04 #@! TO.N,Net-(J4-Pad7)*
X127100000Y-123350000D03*
D42*
G04 #@! TO.P,J4,MP,MountPin*
G04 #@! TO.N,GND*
X123900000Y-125200000D03*
X123900000Y-114000000D03*
G04 #@! TD*
D12*
G04 #@! TO.P,R47,1*
G04 #@! TO.N,B0_CS0*
X151180000Y-115300000D03*
G04 #@! TO.P,R47,2*
G04 #@! TO.N,Net-(C30-Pad1)*
X152200000Y-115300000D03*
G04 #@! TD*
D43*
G04 #@! TO.P,C8,1*
G04 #@! TO.N,+3V3*
X179740000Y-140340000D03*
G04 #@! TO.P,C8,2*
G04 #@! TO.N,GND*
X179740000Y-143040000D03*
G04 #@! TD*
D12*
G04 #@! TO.P,R54,1*
G04 #@! TO.N,B0_CS1*
X133790000Y-115300000D03*
G04 #@! TO.P,R54,2*
G04 #@! TO.N,Net-(C33-Pad1)*
X134810000Y-115300000D03*
G04 #@! TD*
G04 #@! TO.P,R20,1*
G04 #@! TO.N,Net-(D4-Pad1)*
X173590000Y-109700000D03*
G04 #@! TO.P,R20,2*
G04 #@! TO.N,LED_BLUE*
X174610000Y-109700000D03*
G04 #@! TD*
D10*
G04 #@! TO.P,C20,1*
G04 #@! TO.N,Net-(C20-Pad1)*
X151270000Y-138300000D03*
G04 #@! TO.P,C20,2*
G04 #@! TO.N,GND*
X150310000Y-138300000D03*
G04 #@! TD*
D43*
G04 #@! TO.P,C2,1*
G04 #@! TO.N,Net-(C1-Pad1)*
X157440000Y-136600000D03*
G04 #@! TO.P,C2,2*
G04 #@! TO.N,GND*
X157440000Y-139300000D03*
G04 #@! TD*
D10*
G04 #@! TO.P,C22,1*
G04 #@! TO.N,+3V3*
X139180000Y-121100000D03*
G04 #@! TO.P,C22,2*
G04 #@! TO.N,GND*
X138220000Y-121100000D03*
G04 #@! TD*
D41*
G04 #@! TO.P,J5,1,Pin_1*
G04 #@! TO.N,+5V*
X127100000Y-131250000D03*
G04 #@! TO.P,J5,2,Pin_2*
G04 #@! TO.N,GND*
X127100000Y-132500000D03*
G04 #@! TO.P,J5,3,Pin_3*
G04 #@! TO.N,+3V3*
X127100000Y-133750000D03*
G04 #@! TO.P,J5,4,Pin_4*
G04 #@! TO.N,Net-(C26-Pad1)*
X127100000Y-135000000D03*
G04 #@! TO.P,J5,5,Pin_5*
G04 #@! TO.N,Net-(C27-Pad1)*
X127100000Y-136250000D03*
G04 #@! TO.P,J5,6,Pin_6*
G04 #@! TO.N,Net-(C28-Pad1)*
X127100000Y-137500000D03*
G04 #@! TO.P,J5,7,Pin_7*
G04 #@! TO.N,Net-(J5-Pad7)*
X127100000Y-138750000D03*
D42*
G04 #@! TO.P,J5,MP,MountPin*
G04 #@! TO.N,GND*
X123900000Y-140600000D03*
X123900000Y-129400000D03*
G04 #@! TD*
D14*
G04 #@! TO.P,C25,1*
G04 #@! TO.N,Net-(C25-Pad1)*
X132050000Y-118290000D03*
G04 #@! TO.P,C25,2*
G04 #@! TO.N,GND*
X132050000Y-117330000D03*
G04 #@! TD*
G04 #@! TO.P,C24,1*
G04 #@! TO.N,Net-(C24-Pad1)*
X131050000Y-118270000D03*
G04 #@! TO.P,C24,2*
G04 #@! TO.N,GND*
X131050000Y-117310000D03*
G04 #@! TD*
D32*
G04 #@! TO.P,J3,1,Pin_1*
G04 #@! TO.N,+5V*
X148750000Y-142250000D03*
G04 #@! TO.P,J3,2,Pin_2*
G04 #@! TO.N,GND*
X150000000Y-142250000D03*
G04 #@! TO.P,J3,3,Pin_3*
G04 #@! TO.N,+3V3*
X151250000Y-142250000D03*
G04 #@! TO.P,J3,4,Pin_4*
G04 #@! TO.N,Net-(C19-Pad1)*
X152500000Y-142250000D03*
G04 #@! TO.P,J3,5,Pin_5*
G04 #@! TO.N,Net-(C20-Pad1)*
X153750000Y-142250000D03*
G04 #@! TO.P,J3,6,Pin_6*
G04 #@! TO.N,Net-(C21-Pad1)*
X155000000Y-142250000D03*
G04 #@! TO.P,J3,7,Pin_7*
G04 #@! TO.N,Net-(J3-Pad7)*
X156250000Y-142250000D03*
D33*
G04 #@! TO.P,J3,MP,MountPin*
G04 #@! TO.N,GND*
X146900000Y-145450000D03*
X158100000Y-145450000D03*
G04 #@! TD*
D11*
G04 #@! TO.P,C14,1*
G04 #@! TO.N,Net-(C14-Pad1)*
X159820000Y-122400000D03*
G04 #@! TO.P,C14,2*
G04 #@! TO.N,GND*
X160780000Y-122400000D03*
G04 #@! TD*
D21*
G04 #@! TO.P,R14,1*
G04 #@! TO.N,/IO23*
X172310000Y-135300000D03*
G04 #@! TO.P,R14,2*
G04 #@! TO.N,B1-MOSI*
X171290000Y-135300000D03*
G04 #@! TD*
D12*
G04 #@! TO.P,R56,1*
G04 #@! TO.N,/SPI ports E & F/S2_MOSI*
X133790000Y-117300000D03*
G04 #@! TO.P,R56,2*
G04 #@! TO.N,Net-(C35-Pad1)*
X134810000Y-117300000D03*
G04 #@! TD*
D16*
G04 #@! TO.P,D3,1,K*
G04 #@! TO.N,Net-(D3-Pad1)*
X172387500Y-111200000D03*
G04 #@! TO.P,D3,2,A*
G04 #@! TO.N,+3V3*
X170812500Y-111200000D03*
G04 #@! TD*
D21*
G04 #@! TO.P,R17,1*
G04 #@! TO.N,Net-(C13-Pad1)*
X159810000Y-115600000D03*
G04 #@! TO.P,R17,2*
G04 #@! TO.N,ESP_EN*
X158790000Y-115600000D03*
G04 #@! TD*
D44*
G04 #@! TO.P,D1,1,K*
G04 #@! TO.N,+5V*
X163510000Y-137610000D03*
G04 #@! TO.P,D1,2,A*
G04 #@! TO.N,5V_USB*
X167510000Y-137610000D03*
G04 #@! TD*
D45*
G04 #@! TO.P,Q2,1,E*
G04 #@! TO.N,Net-(Q2-Pad1)*
X157625000Y-120250000D03*
G04 #@! TO.P,Q2,2,B*
G04 #@! TO.N,Net-(Q2-Pad2)*
X157625000Y-122150000D03*
G04 #@! TO.P,Q2,3,C*
G04 #@! TO.N,ESP_EN*
X159500000Y-121200000D03*
G04 #@! TD*
D46*
G04 #@! TO.P,U6,1,1OE*
G04 #@! TO.N,B0_CS2*
X133537500Y-122275000D03*
G04 #@! TO.P,U6,2,1A0*
G04 #@! TO.N,GND*
X133537500Y-122925000D03*
G04 #@! TO.P,U6,3,2Y0*
G04 #@! TO.N,unconnected-(U6-Pad3)*
X133537500Y-123575000D03*
G04 #@! TO.P,U6,4,1A1*
G04 #@! TO.N,B0-CLK*
X133537500Y-124225000D03*
G04 #@! TO.P,U6,5,2Y1*
G04 #@! TO.N,/SPI ports C & D/S2_CLK*
X133537500Y-124875000D03*
G04 #@! TO.P,U6,6,1A2*
G04 #@! TO.N,B0-MOSI*
X133537500Y-125525000D03*
G04 #@! TO.P,U6,7,2Y2*
G04 #@! TO.N,/SPI ports C & D/S2_MOSI*
X133537500Y-126175000D03*
G04 #@! TO.P,U6,8,1A3*
G04 #@! TO.N,/SPI ports C & D/S1_MISO*
X133537500Y-126825000D03*
G04 #@! TO.P,U6,9,2Y3*
G04 #@! TO.N,B1-MISO*
X133537500Y-127475000D03*
G04 #@! TO.P,U6,10,GND*
G04 #@! TO.N,GND*
X133537500Y-128125000D03*
G04 #@! TO.P,U6,11,2A3*
G04 #@! TO.N,/SPI ports C & D/S2_MISO*
X139262500Y-128125000D03*
G04 #@! TO.P,U6,12,1Y3*
G04 #@! TO.N,B0-MISO*
X139262500Y-127475000D03*
G04 #@! TO.P,U6,13,2A2*
G04 #@! TO.N,B1-MOSI*
X139262500Y-126825000D03*
G04 #@! TO.P,U6,14,1Y2*
G04 #@! TO.N,/SPI ports C & D/S1_MOSI*
X139262500Y-126175000D03*
G04 #@! TO.P,U6,15,2A1*
G04 #@! TO.N,B1-CLK*
X139262500Y-125525000D03*
G04 #@! TO.P,U6,16,1Y1*
G04 #@! TO.N,/SPI ports C & D/S1_CLK*
X139262500Y-124875000D03*
G04 #@! TO.P,U6,17,2A0*
G04 #@! TO.N,GND*
X139262500Y-124225000D03*
G04 #@! TO.P,U6,18,1Y0*
G04 #@! TO.N,unconnected-(U6-Pad18)*
X139262500Y-123575000D03*
G04 #@! TO.P,U6,19,2OE*
G04 #@! TO.N,B1_CS0*
X139262500Y-122925000D03*
G04 #@! TO.P,U6,20,VCC*
G04 #@! TO.N,+3V3*
X139262500Y-122275000D03*
G04 #@! TD*
D21*
G04 #@! TO.P,R12,1*
G04 #@! TO.N,/IO18*
X175645000Y-133900000D03*
G04 #@! TO.P,R12,2*
G04 #@! TO.N,B1-CLK*
X174625000Y-133900000D03*
G04 #@! TD*
G04 #@! TO.P,R11,1*
G04 #@! TO.N,/IO14*
X152210000Y-119300000D03*
G04 #@! TO.P,R11,2*
G04 #@! TO.N,B0-CLK*
X151190000Y-119300000D03*
G04 #@! TD*
D12*
G04 #@! TO.P,R19,1*
G04 #@! TO.N,Net-(D3-Pad1)*
X173590000Y-111200000D03*
G04 #@! TO.P,R19,2*
G04 #@! TO.N,LED_GREEN*
X174610000Y-111200000D03*
G04 #@! TD*
D11*
G04 #@! TO.P,C35,1*
G04 #@! TO.N,Net-(C35-Pad1)*
X136320000Y-117300000D03*
G04 #@! TO.P,C35,2*
G04 #@! TO.N,GND*
X137280000Y-117300000D03*
G04 #@! TD*
D10*
G04 #@! TO.P,C29,1*
G04 #@! TO.N,+3V3*
X147500000Y-114500000D03*
G04 #@! TO.P,C29,2*
G04 #@! TO.N,GND*
X146540000Y-114500000D03*
G04 #@! TD*
D21*
G04 #@! TO.P,R2,1*
G04 #@! TO.N,Net-(R2-Pad1)*
X182945000Y-133900000D03*
G04 #@! TO.P,R2,2*
G04 #@! TO.N,ESP_RXD*
X181925000Y-133900000D03*
G04 #@! TD*
D11*
G04 #@! TO.P,C31,1*
G04 #@! TO.N,Net-(C31-Pad1)*
X153700000Y-116300000D03*
G04 #@! TO.P,C31,2*
G04 #@! TO.N,GND*
X154660000Y-116300000D03*
G04 #@! TD*
D15*
G04 #@! TO.P,R42,1*
G04 #@! TO.N,B1_CS0*
X130050000Y-138310000D03*
G04 #@! TO.P,R42,2*
G04 #@! TO.N,Net-(C26-Pad1)*
X130050000Y-137290000D03*
G04 #@! TD*
D21*
G04 #@! TO.P,R25,1*
G04 #@! TO.N,/SPI ports A & B/S1_MOSI*
X140410000Y-137300000D03*
G04 #@! TO.P,R25,2*
G04 #@! TO.N,Net-(C18-Pad1)*
X139390000Y-137300000D03*
G04 #@! TD*
D47*
G04 #@! TO.P,U1,1,GND*
G04 #@! TO.N,GND*
X150400000Y-134550000D03*
G04 #@! TO.P,U1,2,VO*
G04 #@! TO.N,+3V3*
X152700000Y-134550000D03*
D48*
X152700000Y-128250000D03*
D47*
G04 #@! TO.P,U1,3,VI*
G04 #@! TO.N,Net-(C1-Pad1)*
X155000000Y-134550000D03*
G04 #@! TD*
D10*
G04 #@! TO.P,C16,1*
G04 #@! TO.N,Net-(C16-Pad1)*
X137900000Y-139300000D03*
G04 #@! TO.P,C16,2*
G04 #@! TO.N,GND*
X136940000Y-139300000D03*
G04 #@! TD*
D21*
G04 #@! TO.P,R23,1*
G04 #@! TO.N,B1_CS1*
X140410000Y-139300000D03*
G04 #@! TO.P,R23,2*
G04 #@! TO.N,Net-(C16-Pad1)*
X139390000Y-139300000D03*
G04 #@! TD*
G04 #@! TO.P,R46,1*
G04 #@! TO.N,+3V3*
X152730000Y-114300000D03*
G04 #@! TO.P,R46,2*
G04 #@! TO.N,Net-(C31-Pad1)*
X151710000Y-114300000D03*
G04 #@! TD*
D10*
G04 #@! TO.P,C18,1*
G04 #@! TO.N,Net-(C18-Pad1)*
X137900000Y-137300000D03*
G04 #@! TO.P,C18,2*
G04 #@! TO.N,GND*
X136940000Y-137300000D03*
G04 #@! TD*
D45*
G04 #@! TO.P,Q3,1,E*
G04 #@! TO.N,Net-(Q3-Pad1)*
X157302500Y-127150000D03*
G04 #@! TO.P,Q3,2,B*
G04 #@! TO.N,Net-(Q3-Pad2)*
X157302500Y-129050000D03*
G04 #@! TO.P,Q3,3,C*
G04 #@! TO.N,ESP_IO0*
X159177500Y-128100000D03*
G04 #@! TD*
D16*
G04 #@! TO.P,D4,1,K*
G04 #@! TO.N,Net-(D4-Pad1)*
X172387500Y-109700000D03*
G04 #@! TO.P,D4,2,A*
G04 #@! TO.N,+3V3*
X170812500Y-109700000D03*
G04 #@! TD*
D12*
G04 #@! TO.P,R22,1*
G04 #@! TO.N,+3V3*
X136910000Y-140300000D03*
G04 #@! TO.P,R22,2*
G04 #@! TO.N,Net-(C17-Pad1)*
X137930000Y-140300000D03*
G04 #@! TD*
D21*
G04 #@! TO.P,R31,1*
G04 #@! TO.N,/SPI ports A & B/S2_CLK*
X153910000Y-138300000D03*
G04 #@! TO.P,R31,2*
G04 #@! TO.N,Net-(C20-Pad1)*
X152890000Y-138300000D03*
G04 #@! TD*
D12*
G04 #@! TO.P,R6,1*
G04 #@! TO.N,+3V3*
X158390000Y-130400000D03*
G04 #@! TO.P,R6,2*
G04 #@! TO.N,ESP_IO0*
X159410000Y-130400000D03*
G04 #@! TD*
D43*
G04 #@! TO.P,C11,1*
G04 #@! TO.N,5V_USB*
X181840000Y-142690000D03*
G04 #@! TO.P,C11,2*
G04 #@! TO.N,GND*
X181840000Y-145390000D03*
G04 #@! TD*
D49*
G04 #@! TO.P,U5,1,1OE*
G04 #@! TO.N,B1_CS1*
X147625000Y-134700000D03*
G04 #@! TO.P,U5,2,1A0*
G04 #@! TO.N,GND*
X147625000Y-134050000D03*
G04 #@! TO.P,U5,3,2Y0*
G04 #@! TO.N,unconnected-(U5-Pad3)*
X147625000Y-133400000D03*
G04 #@! TO.P,U5,4,1A1*
G04 #@! TO.N,B1-CLK*
X147625000Y-132750000D03*
G04 #@! TO.P,U5,5,2Y1*
G04 #@! TO.N,/SPI ports A & B/S2_CLK*
X147625000Y-132100000D03*
G04 #@! TO.P,U5,6,1A2*
G04 #@! TO.N,B1-MOSI*
X147625000Y-131450000D03*
G04 #@! TO.P,U5,7,2Y2*
G04 #@! TO.N,/SPI ports A & B/S2_MOSI*
X147625000Y-130800000D03*
G04 #@! TO.P,U5,8,1A3*
G04 #@! TO.N,/SPI ports A & B/S1_MISO*
X147625000Y-130150000D03*
G04 #@! TO.P,U5,9,2Y3*
G04 #@! TO.N,B1-MISO*
X147625000Y-129500000D03*
G04 #@! TO.P,U5,10,GND*
G04 #@! TO.N,GND*
X147625000Y-128850000D03*
G04 #@! TO.P,U5,11,2A3*
G04 #@! TO.N,/SPI ports A & B/S2_MISO*
X141900000Y-128850000D03*
G04 #@! TO.P,U5,12,1Y3*
G04 #@! TO.N,B1-MISO*
X141900000Y-129500000D03*
G04 #@! TO.P,U5,13,2A2*
G04 #@! TO.N,B1-MOSI*
X141900000Y-130150000D03*
G04 #@! TO.P,U5,14,1Y2*
G04 #@! TO.N,/SPI ports A & B/S1_MOSI*
X141900000Y-130800000D03*
G04 #@! TO.P,U5,15,2A1*
G04 #@! TO.N,B1-CLK*
X141900000Y-131450000D03*
G04 #@! TO.P,U5,16,1Y1*
G04 #@! TO.N,/SPI ports A & B/S1_CLK*
X141900000Y-132100000D03*
G04 #@! TO.P,U5,17,2A0*
G04 #@! TO.N,GND*
X141900000Y-132750000D03*
G04 #@! TO.P,U5,18,1Y0*
G04 #@! TO.N,unconnected-(U5-Pad18)*
X141900000Y-133400000D03*
G04 #@! TO.P,U5,19,2OE*
G04 #@! TO.N,B1_CS2*
X141900000Y-134050000D03*
G04 #@! TO.P,U5,20,VCC*
G04 #@! TO.N,+3V3*
X141900000Y-134700000D03*
G04 #@! TD*
D21*
G04 #@! TO.P,R13,1*
G04 #@! TO.N,/IO19*
X175645000Y-134900000D03*
G04 #@! TO.P,R13,2*
G04 #@! TO.N,B1-MISO*
X174625000Y-134900000D03*
G04 #@! TD*
D17*
G04 #@! TO.P,R39,1*
G04 #@! TO.N,+3V3*
X129050000Y-134790000D03*
G04 #@! TO.P,R39,2*
G04 #@! TO.N,Net-(C27-Pad1)*
X129050000Y-135810000D03*
G04 #@! TD*
D21*
G04 #@! TO.P,R41,1*
G04 #@! TO.N,+3V3*
X135010000Y-121200000D03*
G04 #@! TO.P,R41,2*
G04 #@! TO.N,B0_CS2*
X133990000Y-121200000D03*
G04 #@! TD*
D12*
G04 #@! TO.P,R27,1*
G04 #@! TO.N,+3V3*
X152290000Y-140300000D03*
G04 #@! TO.P,R27,2*
G04 #@! TO.N,Net-(C20-Pad1)*
X153310000Y-140300000D03*
G04 #@! TD*
D50*
G04 #@! TO.P,J1,1,Pin_1*
G04 #@! TO.N,+5V*
X165200000Y-132400000D03*
D51*
G04 #@! TO.P,J1,2,Pin_2*
G04 #@! TO.N,GND*
X165200000Y-130400000D03*
G04 #@! TO.P,J1,3,Pin_3*
G04 #@! TO.N,+3V3*
X165200000Y-128400000D03*
G04 #@! TO.P,J1,4,Pin_4*
G04 #@! TO.N,ESP_IO5*
X165200000Y-126400000D03*
G04 #@! TO.P,J1,5,Pin_5*
G04 #@! TO.N,ESP_IO15*
X165200000Y-124400000D03*
G04 #@! TO.P,J1,6,Pin_6*
G04 #@! TO.N,ESP_IO16*
X165200000Y-122400000D03*
G04 #@! TO.P,J1,7,Pin_7*
G04 #@! TO.N,ESP_IO17*
X165200000Y-120400000D03*
G04 #@! TO.P,J1,8,Pin_8*
G04 #@! TO.N,ESP_IO35*
X165200000Y-118400000D03*
G04 #@! TD*
D21*
G04 #@! TO.P,R24,1*
G04 #@! TO.N,/SPI ports A & B/S1_CLK*
X140410000Y-138300000D03*
G04 #@! TO.P,R24,2*
G04 #@! TO.N,Net-(C17-Pad1)*
X139390000Y-138300000D03*
G04 #@! TD*
D10*
G04 #@! TO.P,C5,1*
G04 #@! TO.N,+3V3*
X183480000Y-112500000D03*
G04 #@! TO.P,C5,2*
G04 #@! TO.N,GND*
X182520000Y-112500000D03*
G04 #@! TD*
D21*
G04 #@! TO.P,R9,1*
G04 #@! TO.N,/IO12*
X152210000Y-121300000D03*
G04 #@! TO.P,R9,2*
G04 #@! TO.N,B0-MISO*
X151190000Y-121300000D03*
G04 #@! TD*
D46*
G04 #@! TO.P,U7,1,1OE*
G04 #@! TO.N,B0_CS0*
X141900000Y-115675000D03*
G04 #@! TO.P,U7,2,1A0*
G04 #@! TO.N,GND*
X141900000Y-116325000D03*
G04 #@! TO.P,U7,3,2Y0*
G04 #@! TO.N,unconnected-(U7-Pad3)*
X141900000Y-116975000D03*
G04 #@! TO.P,U7,4,1A1*
G04 #@! TO.N,B0-CLK*
X141900000Y-117625000D03*
G04 #@! TO.P,U7,5,2Y1*
G04 #@! TO.N,/SPI ports E & F/S2_CLK*
X141900000Y-118275000D03*
G04 #@! TO.P,U7,6,1A2*
G04 #@! TO.N,B0-MOSI*
X141900000Y-118925000D03*
G04 #@! TO.P,U7,7,2Y2*
G04 #@! TO.N,/SPI ports E & F/S2_MOSI*
X141900000Y-119575000D03*
G04 #@! TO.P,U7,8,1A3*
G04 #@! TO.N,/SPI ports E & F/S1_MISO*
X141900000Y-120225000D03*
G04 #@! TO.P,U7,9,2Y3*
G04 #@! TO.N,B0-MISO*
X141900000Y-120875000D03*
G04 #@! TO.P,U7,10,GND*
G04 #@! TO.N,GND*
X141900000Y-121525000D03*
G04 #@! TO.P,U7,11,2A3*
G04 #@! TO.N,/SPI ports E & F/S2_MISO*
X147625000Y-121525000D03*
G04 #@! TO.P,U7,12,1Y3*
G04 #@! TO.N,B0-MISO*
X147625000Y-120875000D03*
G04 #@! TO.P,U7,13,2A2*
G04 #@! TO.N,B0-MOSI*
X147625000Y-120225000D03*
G04 #@! TO.P,U7,14,1Y2*
G04 #@! TO.N,/SPI ports E & F/S1_MOSI*
X147625000Y-119575000D03*
G04 #@! TO.P,U7,15,2A1*
G04 #@! TO.N,B0-CLK*
X147625000Y-118925000D03*
G04 #@! TO.P,U7,16,1Y1*
G04 #@! TO.N,/SPI ports E & F/S1_CLK*
X147625000Y-118275000D03*
G04 #@! TO.P,U7,17,2A0*
G04 #@! TO.N,GND*
X147625000Y-117625000D03*
G04 #@! TO.P,U7,18,1Y0*
G04 #@! TO.N,unconnected-(U7-Pad18)*
X147625000Y-116975000D03*
G04 #@! TO.P,U7,19,2OE*
G04 #@! TO.N,B0_CS1*
X147625000Y-116325000D03*
G04 #@! TO.P,U7,20,VCC*
G04 #@! TO.N,+3V3*
X147625000Y-115675000D03*
G04 #@! TD*
D21*
G04 #@! TO.P,R53,1*
G04 #@! TO.N,+3V3*
X142610000Y-114500000D03*
G04 #@! TO.P,R53,2*
G04 #@! TO.N,B0_CS0*
X141590000Y-114500000D03*
G04 #@! TD*
D52*
G04 #@! TO.N,GND*
X182940000Y-138690000D03*
X148590000Y-125300000D03*
X155200000Y-117300000D03*
X148662500Y-117625000D03*
X156100000Y-123400000D03*
X149140000Y-125300000D03*
X170945000Y-117600000D03*
X181900000Y-112500000D03*
X177010000Y-139010000D03*
X155000000Y-113950000D03*
X132500000Y-128125000D03*
X140862500Y-121525000D03*
X131050000Y-134300000D03*
X128150000Y-132500000D03*
X180845000Y-124600000D03*
X178050000Y-136800000D03*
X146562500Y-134050000D03*
X123900000Y-114000000D03*
X168645000Y-118100000D03*
X140862500Y-132750000D03*
X139600000Y-113950000D03*
X150000000Y-140650000D03*
X132500000Y-122925000D03*
X149400000Y-133700000D03*
X134600000Y-140650000D03*
X149140000Y-126400000D03*
X178745000Y-122500000D03*
X181040000Y-145890000D03*
X182500000Y-111800000D03*
X123900000Y-129400000D03*
X170110000Y-139510000D03*
X155200000Y-116300000D03*
X130050000Y-134300000D03*
X187045000Y-133850000D03*
X178745000Y-124600000D03*
X134600000Y-122925000D03*
X123900000Y-140600000D03*
X187045000Y-133300000D03*
X137800000Y-115300000D03*
X177010000Y-139510000D03*
X151350000Y-134800000D03*
X170945000Y-118100000D03*
X131500000Y-109150000D03*
X184140000Y-138690000D03*
X130050000Y-116790000D03*
X179740000Y-142140000D03*
X134100000Y-140900000D03*
X157100000Y-140850000D03*
X181440000Y-140690000D03*
X149400000Y-135350000D03*
X155200000Y-115300000D03*
X157100000Y-140300000D03*
X128700000Y-132500000D03*
X156100000Y-116600000D03*
X148590000Y-125850000D03*
X180290000Y-142140000D03*
X128450000Y-132000000D03*
X140100000Y-113700000D03*
X184140000Y-136490000D03*
X177845000Y-121600000D03*
X181745000Y-123400000D03*
X151350000Y-135350000D03*
X149140000Y-125850000D03*
X160500000Y-126200000D03*
X136420000Y-138300000D03*
X185340000Y-138690000D03*
X132050000Y-134300000D03*
X160600000Y-136600000D03*
X146900000Y-145500000D03*
X182940000Y-136490000D03*
X134600000Y-128125000D03*
X179745000Y-121600000D03*
X146562500Y-128850000D03*
X168645000Y-117600000D03*
X185340000Y-136490000D03*
X146500000Y-115100000D03*
X183540000Y-137590000D03*
X157650000Y-140300000D03*
X184740000Y-137590000D03*
X156400000Y-137500000D03*
X155140000Y-126450000D03*
X138200000Y-120500000D03*
X142962500Y-116325000D03*
X158100000Y-145450000D03*
X187300000Y-113800000D03*
X149790000Y-139300000D03*
X142700000Y-145550000D03*
X146000000Y-114500000D03*
X161200000Y-137800000D03*
X128150000Y-117100000D03*
X158200000Y-140300000D03*
X148662500Y-128850000D03*
X170900000Y-136600000D03*
X142962500Y-121525000D03*
X146562500Y-117625000D03*
X149790000Y-138300000D03*
X149400000Y-134250000D03*
X128450000Y-116600000D03*
X157650000Y-140850000D03*
X180845000Y-122500000D03*
X181040000Y-145340000D03*
X179190000Y-142140000D03*
X131500000Y-145550000D03*
X151350000Y-134250000D03*
X161320000Y-120000000D03*
X169200000Y-136300000D03*
X140300000Y-124225000D03*
X142962500Y-132750000D03*
X180900000Y-109800000D03*
X187595000Y-133850000D03*
X170110000Y-138960000D03*
X142700000Y-109150000D03*
X179700000Y-111690000D03*
X149400000Y-134800000D03*
X128700000Y-117100000D03*
X123900000Y-125200000D03*
X140862500Y-116325000D03*
X156100000Y-125800000D03*
X146900000Y-109150000D03*
X181745000Y-121600000D03*
X150000000Y-141200000D03*
X180845000Y-120600000D03*
X148662500Y-134050000D03*
X151350000Y-133700000D03*
X174600000Y-138000000D03*
X155000000Y-113400000D03*
X158200000Y-140850000D03*
X137800000Y-117300000D03*
X187595000Y-133300000D03*
X167935000Y-130990000D03*
X187300000Y-116400000D03*
X167900000Y-113445000D03*
X131050000Y-116790000D03*
X132050000Y-116790000D03*
X138200000Y-121700000D03*
X139600000Y-113400000D03*
X161200000Y-128400000D03*
X161400000Y-122400000D03*
X134600000Y-141200000D03*
X176510000Y-139010000D03*
X148590000Y-126400000D03*
X180100000Y-110600000D03*
X149790000Y-137300000D03*
X149500000Y-140900000D03*
X169610000Y-138960000D03*
X181040000Y-144790000D03*
X137800000Y-116300000D03*
X169610000Y-139510000D03*
X136420000Y-139300000D03*
X138200000Y-124225000D03*
X176510000Y-139510000D03*
X178840000Y-138840000D03*
X138862500Y-134875000D03*
X136420000Y-137300000D03*
X178745000Y-120600000D03*
X158100000Y-109150000D03*
X155500000Y-113700000D03*
X177845000Y-123400000D03*
X179745000Y-123400000D03*
G04 #@! TO.N,+3V3*
X153100000Y-124300000D03*
X141000000Y-135200000D03*
X138862500Y-133875000D03*
X151800000Y-140300000D03*
X153220000Y-114300000D03*
X137800000Y-114300000D03*
X150750000Y-140900000D03*
X151250000Y-141200000D03*
X128700000Y-133750000D03*
X128150000Y-118350000D03*
X153700000Y-124900000D03*
X154300000Y-124900000D03*
X153750000Y-113950000D03*
X154250000Y-113700000D03*
X148310000Y-136400000D03*
X183480000Y-111820000D03*
X135350000Y-140900000D03*
X152500000Y-124900000D03*
X183200000Y-110600000D03*
X143200000Y-114500000D03*
X136420000Y-140300000D03*
X135850000Y-140650000D03*
X154300000Y-124300000D03*
X138850000Y-113700000D03*
X128450000Y-133250000D03*
X148100000Y-114500000D03*
X128450000Y-117850000D03*
X135850000Y-141200000D03*
X149100000Y-114635000D03*
X151250000Y-140650000D03*
X135615000Y-121200000D03*
X157790000Y-130400000D03*
X183940000Y-142240000D03*
X128150000Y-133750000D03*
X153700000Y-124300000D03*
X139200000Y-120500000D03*
X170100000Y-112700000D03*
X129050000Y-118900000D03*
X152500000Y-124300000D03*
X140342500Y-135475000D03*
X153750000Y-113400000D03*
X180710000Y-111670000D03*
X182500000Y-109800000D03*
X138350000Y-113950000D03*
X181530000Y-139530000D03*
X141800000Y-123945000D03*
X128700000Y-118350000D03*
X180740000Y-139540000D03*
X153100000Y-124900000D03*
X129050000Y-134300000D03*
X138350000Y-113400000D03*
X170100000Y-109700000D03*
X170100000Y-111200000D03*
G04 #@! TO.N,5V_USB*
X167600000Y-136400000D03*
X163300000Y-130400000D03*
X175710000Y-139610000D03*
X175000000Y-136800000D03*
G04 #@! TO.N,/SPI ports A & B/S1_CLK*
X144500000Y-132900000D03*
X141349500Y-138300000D03*
G04 #@! TO.N,/SPI ports A & B/S1_MOSI*
X143800000Y-130800000D03*
X141100000Y-137300000D03*
G04 #@! TO.N,/SPI ports A & B/S2_CLK*
X146500000Y-132100000D03*
X154500000Y-138300000D03*
G04 #@! TO.N,/SPI ports A & B/S2_MOSI*
X148800000Y-130800000D03*
X155000000Y-136900000D03*
G04 #@! TO.N,/SPI ports C & D/S1_CLK*
X131050000Y-121400000D03*
X137600000Y-124900000D03*
G04 #@! TO.N,/SPI ports C & D/S1_MOSI*
X138203200Y-126203200D03*
X132050000Y-121400000D03*
G04 #@! TO.N,/SPI ports C & D/S2_CLK*
X132500000Y-124875000D03*
X131050000Y-139300000D03*
G04 #@! TO.N,/SPI ports C & D/S2_MOSI*
X134600000Y-126200000D03*
X132050000Y-139300000D03*
G04 #@! TO.N,/SPI ports E & F/S1_MOSI*
X148746800Y-119575000D03*
X150300000Y-117600000D03*
G04 #@! TO.N,/SPI ports E & F/S2_CLK*
X140400000Y-118400000D03*
X132900000Y-116300000D03*
G04 #@! TO.N,/SPI ports E & F/S2_MOSI*
X132900000Y-117300000D03*
X140800000Y-119600000D03*
G04 #@! TO.N,+5V*
X162960000Y-139160000D03*
X125500000Y-115850000D03*
X162410000Y-139160000D03*
X164610000Y-136510000D03*
X155700000Y-110700000D03*
X133350000Y-143900000D03*
X156250000Y-110700000D03*
X164060000Y-136510000D03*
X164060000Y-138610000D03*
X125500000Y-131250000D03*
X162960000Y-138610000D03*
X133900000Y-143900000D03*
X164060000Y-135960000D03*
X162960000Y-136510000D03*
X164610000Y-139160000D03*
X125500000Y-131800000D03*
X162410000Y-136510000D03*
X162410000Y-135960000D03*
X164060000Y-139160000D03*
X125500000Y-130700000D03*
X162960000Y-135960000D03*
X156800000Y-110700000D03*
X164610000Y-135960000D03*
X164610000Y-138610000D03*
X163510000Y-135960000D03*
X148200000Y-143900000D03*
X141400000Y-110700000D03*
X125500000Y-115300000D03*
X161900000Y-130400000D03*
X160240000Y-137500000D03*
X140300000Y-110700000D03*
X163510000Y-139160000D03*
X160240000Y-139600000D03*
X125500000Y-116400000D03*
X163510000Y-136510000D03*
X140850000Y-110700000D03*
X149300000Y-143900000D03*
X132800000Y-143900000D03*
X148750000Y-143900000D03*
X163510000Y-138610000D03*
X162410000Y-138610000D03*
G04 #@! TO.N,ESP_IO5*
X175870000Y-126400000D03*
G04 #@! TO.N,ESP_IO16*
X173335000Y-122400000D03*
G04 #@! TO.N,ESP_IO17*
X174635000Y-120400000D03*
G04 #@! TO.N,ESP_IO35*
X179635000Y-116990000D03*
X166600000Y-119800000D03*
G04 #@! TO.N,USB_CONN_D-*
X173710000Y-139310000D03*
X172168030Y-139310000D03*
G04 #@! TO.N,USB_CONN_D+*
X174510000Y-139400000D03*
X172910000Y-139310000D03*
G04 #@! TO.N,/SPI ports A & B/S1_MISO*
X141100000Y-136300000D03*
X146100000Y-130150000D03*
G04 #@! TO.N,/SPI ports A & B/S2_MISO*
X148000000Y-128100000D03*
X154500000Y-136300000D03*
G04 #@! TO.N,/SPI ports C & D/S2_MISO*
X133050000Y-139300000D03*
X140600000Y-128100000D03*
G04 #@! TO.N,/SPI ports E & F/S1_MISO*
X143100000Y-120200000D03*
X150600000Y-118300000D03*
G04 #@! TO.N,/SPI ports E & F/S2_MISO*
X146300000Y-121525000D03*
X132900000Y-118500000D03*
G04 #@! TO.N,Net-(Q2-Pad1)*
X184550000Y-134300000D03*
X168335000Y-132990000D03*
G04 #@! TO.N,Net-(Q3-Pad1)*
X180730000Y-135630000D03*
X158300000Y-127400000D03*
G04 #@! TO.N,ESP_RXD*
X177600000Y-112300000D03*
X182235000Y-130590000D03*
G04 #@! TO.N,/IO12*
X169800000Y-116900000D03*
X154400000Y-120700000D03*
G04 #@! TO.N,/IO13*
X166000000Y-117000000D03*
X155200000Y-120000000D03*
G04 #@! TO.N,/IO14*
X156000000Y-119300000D03*
X172035000Y-116990000D03*
G04 #@! TO.N,B1-CLK*
X149100000Y-132700000D03*
X151700000Y-131700000D03*
G04 #@! TO.N,B1-MISO*
X140000000Y-129500000D03*
X135200000Y-127500000D03*
G04 #@! TO.N,/IO23*
X186030000Y-133690000D03*
X173000000Y-135100000D03*
G04 #@! TO.N,LED_GREEN*
X175300000Y-111200000D03*
X172035000Y-130690000D03*
G04 #@! TO.N,B1_CS1*
X146700000Y-135800000D03*
X172100000Y-121400000D03*
G04 #@! TO.N,Net-(C14-Pad1)*
X159800000Y-123400000D03*
X159800000Y-126800000D03*
G04 #@! TO.N,B1_CS2*
X156149500Y-138500000D03*
X145200000Y-134600000D03*
X172400000Y-137000000D03*
X154500000Y-139300000D03*
G04 #@! TO.N,Net-(C16-Pad1)*
X137100000Y-141200000D03*
X138400000Y-139300000D03*
G04 #@! TO.N,B0_CS2*
X175870000Y-113800000D03*
X134900000Y-120300000D03*
G04 #@! TO.N,Net-(C17-Pad1)*
X138350000Y-141200000D03*
X138900000Y-138300000D03*
G04 #@! TO.N,B1_CS0*
X148000000Y-122925000D03*
X177135000Y-129090000D03*
X140475000Y-122925000D03*
X151300000Y-123300000D03*
G04 #@! TO.N,Net-(C18-Pad1)*
X138400000Y-137300000D03*
X139600000Y-141200000D03*
G04 #@! TO.N,B0_CS0*
X173330000Y-113800000D03*
X145434520Y-113965480D03*
G04 #@! TO.N,Net-(C19-Pad1)*
X152500000Y-141200000D03*
X151790000Y-139300000D03*
G04 #@! TO.N,B0_CS1*
X146500000Y-116325000D03*
X133200000Y-115300000D03*
X174600000Y-113800000D03*
X149800000Y-116200000D03*
G04 #@! TO.N,Net-(RN1-Pad1)*
X163800000Y-126600000D03*
X182235000Y-116590000D03*
G04 #@! TO.N,Net-(RN1-Pad3)*
X183490000Y-118990000D03*
X163000000Y-124700000D03*
G04 #@! TO.N,Net-(C21-Pad1)*
X151790000Y-137300000D03*
X155000000Y-141200000D03*
G04 #@! TO.N,Net-(C28-Pad1)*
X132050000Y-136300000D03*
X128150000Y-137500000D03*
G04 #@! TO.N,Net-(C23-Pad1)*
X130050000Y-118790000D03*
X128150000Y-119600000D03*
G04 #@! TO.N,Net-(C24-Pad1)*
X128150000Y-120850000D03*
X131050000Y-119290000D03*
G04 #@! TO.N,Net-(C25-Pad1)*
X132050000Y-118790000D03*
X128150000Y-122100000D03*
G04 #@! TO.N,Net-(C26-Pad1)*
X128150000Y-135000000D03*
X130050000Y-136300000D03*
G04 #@! TO.N,Net-(C27-Pad1)*
X131050000Y-136800000D03*
X128150000Y-136250000D03*
G04 #@! TO.N,Net-(C35-Pad1)*
X135800000Y-117300000D03*
X134600000Y-113400000D03*
G04 #@! TO.N,Net-(C30-Pad1)*
X153200000Y-115300000D03*
X152500000Y-113400000D03*
G04 #@! TO.N,Net-(C31-Pad1)*
X151250000Y-113400000D03*
X152690000Y-116300000D03*
G04 #@! TO.N,Net-(C32-Pad1)*
X153200000Y-117300000D03*
X150000000Y-113400000D03*
G04 #@! TO.N,Net-(C33-Pad1)*
X137100000Y-113400000D03*
X135800000Y-115300000D03*
G04 #@! TO.N,Net-(C34-Pad1)*
X135850000Y-113400000D03*
X135300000Y-116300000D03*
G04 #@! TO.N,Net-(J2-Pad7)*
X138900000Y-136300000D03*
X140850000Y-141200000D03*
G04 #@! TO.N,Net-(J3-Pad7)*
X152400000Y-136300000D03*
X156250000Y-141200000D03*
G04 #@! TO.N,Net-(J4-Pad7)*
X133050000Y-119290000D03*
X128150000Y-123350000D03*
G04 #@! TO.N,Net-(J5-Pad7)*
X133050000Y-136800000D03*
X128150000Y-138750000D03*
G04 #@! TO.N,Net-(J6-Pad7)*
X148750000Y-113400000D03*
X152690000Y-118300000D03*
G04 #@! TO.N,Net-(J7-Pad7)*
X133350000Y-113400000D03*
X135300000Y-118300000D03*
G04 #@! TD*
D53*
G04 #@! TO.N,Net-(C1-Pad1)*
X157440000Y-136600000D02*
X157440000Y-134915000D01*
X155800000Y-135350000D02*
X155000000Y-134550000D01*
X155800000Y-136570000D02*
X155800000Y-135350000D01*
D54*
X157175000Y-134650000D02*
X155100000Y-134650000D01*
X155100000Y-134650000D02*
X155000000Y-134550000D01*
D53*
X157440000Y-134915000D02*
X157175000Y-134650000D01*
G04 #@! TO.N,GND*
X179240000Y-142140000D02*
X179240000Y-142540000D01*
X179240000Y-142540000D02*
X179740000Y-143040000D01*
X182500000Y-111800000D02*
X182500000Y-112480000D01*
X128450000Y-116600000D02*
X128450000Y-116900000D01*
X167900000Y-113445000D02*
X167900000Y-114080000D01*
X146500000Y-114540000D02*
X146540000Y-114500000D01*
D55*
X134600000Y-122925000D02*
X133537500Y-122925000D01*
X148662500Y-117625000D02*
X147625000Y-117625000D01*
D53*
X182500000Y-112480000D02*
X182520000Y-112500000D01*
X128650000Y-132500000D02*
X127100000Y-132500000D01*
X149500000Y-140900000D02*
X149800000Y-140900000D01*
X130050000Y-116790000D02*
X130050000Y-117310000D01*
X174580000Y-138600000D02*
X174580000Y-138020000D01*
X155500000Y-113700000D02*
X155300000Y-113700000D01*
X181040000Y-145340000D02*
X181790000Y-145340000D01*
X138200000Y-121080000D02*
X138220000Y-121100000D01*
X161200000Y-136672500D02*
X161190000Y-136662500D01*
X179380000Y-138790000D02*
X178890000Y-138790000D01*
D55*
X183050000Y-137100000D02*
X183540000Y-137590000D01*
D53*
X169520000Y-136620000D02*
X169200000Y-136300000D01*
X138862500Y-134875000D02*
X139382500Y-134875000D01*
D55*
X142962500Y-121525000D02*
X141900000Y-121525000D01*
D53*
X171490000Y-136600000D02*
X171510000Y-136580000D01*
X174580000Y-138020000D02*
X174600000Y-138000000D01*
D55*
X177300000Y-136800000D02*
X178050000Y-136800000D01*
D53*
X170110000Y-140500000D02*
X170110000Y-139510000D01*
X161127500Y-136600000D02*
X161190000Y-136662500D01*
X170900000Y-136600000D02*
X171490000Y-136600000D01*
X155000000Y-113900000D02*
X155000000Y-112350000D01*
X149790000Y-139300000D02*
X150290000Y-139300000D01*
X137280000Y-117300000D02*
X137800000Y-117300000D01*
X187300000Y-113800000D02*
X187300000Y-115100000D01*
D55*
X142962500Y-116325000D02*
X141900000Y-116325000D01*
D53*
X128450000Y-132000000D02*
X128450000Y-132300000D01*
X149790000Y-137300000D02*
X150310000Y-137300000D01*
X149790000Y-138300000D02*
X150310000Y-138300000D01*
X139900000Y-113700000D02*
X139600000Y-113400000D01*
X128650000Y-117100000D02*
X127100000Y-117100000D01*
X156100000Y-123400000D02*
X156100000Y-124600000D01*
X179240000Y-142140000D02*
X180240000Y-142140000D01*
X154660000Y-116300000D02*
X155200000Y-116300000D01*
X155200000Y-115300000D02*
X154660000Y-115300000D01*
X146540000Y-114500000D02*
X146000000Y-114500000D01*
X149800000Y-140900000D02*
X150000000Y-140700000D01*
X149500000Y-140900000D02*
X149700000Y-140900000D01*
X140100000Y-113700000D02*
X139800000Y-113700000D01*
X128450000Y-132200000D02*
X128150000Y-132500000D01*
X136420000Y-139300000D02*
X136940000Y-139300000D01*
X155300000Y-113700000D02*
X155000000Y-113400000D01*
X134100000Y-140900000D02*
X134300000Y-140900000D01*
X136420000Y-137300000D02*
X136940000Y-137300000D01*
X180900000Y-109800000D02*
X180900000Y-110575000D01*
D55*
X140862500Y-121525000D02*
X141900000Y-121525000D01*
X140862500Y-132750000D02*
X141900000Y-132750000D01*
X146562500Y-128850000D02*
X147625000Y-128850000D01*
D53*
X160600000Y-136600000D02*
X161127500Y-136600000D01*
D55*
X146562500Y-134050000D02*
X147625000Y-134050000D01*
X148662500Y-128850000D02*
X147625000Y-128850000D01*
X148662500Y-134050000D02*
X147625000Y-134050000D01*
D53*
X181390000Y-145840000D02*
X181840000Y-145390000D01*
X134100000Y-140900000D02*
X134400000Y-140900000D01*
X180240000Y-142540000D02*
X179740000Y-143040000D01*
X146500000Y-115100000D02*
X146500000Y-114540000D01*
X140100000Y-113700000D02*
X139900000Y-113700000D01*
X180100000Y-110600000D02*
X180925000Y-110600000D01*
X134300000Y-140900000D02*
X134600000Y-141200000D01*
D55*
X181600000Y-137100000D02*
X183050000Y-137100000D01*
D53*
X128450000Y-116600000D02*
X128450000Y-116800000D01*
X156400000Y-137500000D02*
X155830000Y-137500000D01*
X187300000Y-116400000D02*
X187300000Y-115100000D01*
X136420000Y-138300000D02*
X136940000Y-138300000D01*
X179700000Y-111690000D02*
X179700000Y-112330000D01*
X180240000Y-142140000D02*
X180240000Y-142540000D01*
D55*
X142962500Y-132750000D02*
X141900000Y-132750000D01*
D53*
X167935000Y-130990000D02*
X167935000Y-130410000D01*
X128450000Y-132300000D02*
X128650000Y-132500000D01*
X161320000Y-120000000D02*
X160780000Y-120000000D01*
X138200000Y-120500000D02*
X138200000Y-121080000D01*
X138200000Y-121120000D02*
X138220000Y-121100000D01*
X155120000Y-126430000D02*
X155140000Y-126450000D01*
X155500000Y-113700000D02*
X155200000Y-113700000D01*
X132050000Y-116790000D02*
X132050000Y-117330000D01*
X161400000Y-122400000D02*
X160780000Y-122400000D01*
X150000000Y-140700000D02*
X150000000Y-142250000D01*
D55*
X138200000Y-124225000D02*
X139262500Y-124225000D01*
D53*
X181290000Y-144840000D02*
X181840000Y-145390000D01*
X128450000Y-116800000D02*
X128150000Y-117100000D01*
X155200000Y-113700000D02*
X155000000Y-113900000D01*
X149700000Y-140900000D02*
X150000000Y-141200000D01*
X139600000Y-113900000D02*
X139600000Y-112350000D01*
X179740000Y-142140000D02*
X179740000Y-143040000D01*
X128450000Y-116900000D02*
X128650000Y-117100000D01*
X134600000Y-140700000D02*
X134600000Y-142250000D01*
X181040000Y-144840000D02*
X181040000Y-145840000D01*
X156100000Y-116600000D02*
X156100000Y-117800000D01*
X156100000Y-125800000D02*
X156100000Y-124600000D01*
X137280000Y-116300000D02*
X137800000Y-116300000D01*
X181460000Y-140710000D02*
X181440000Y-140690000D01*
X180900000Y-110575000D02*
X180925000Y-110600000D01*
X131050000Y-116790000D02*
X131050000Y-117310000D01*
X155200000Y-117300000D02*
X154660000Y-117300000D01*
X181900000Y-112500000D02*
X182520000Y-112500000D01*
D55*
X161200000Y-126200000D02*
X160500000Y-126200000D01*
D53*
X181460000Y-141240000D02*
X181460000Y-140710000D01*
X134400000Y-140900000D02*
X134600000Y-140700000D01*
X132050000Y-134300000D02*
X132050000Y-134820000D01*
X181790000Y-145340000D02*
X181840000Y-145390000D01*
X137800000Y-115300000D02*
X137280000Y-115300000D01*
D55*
X132500000Y-128125000D02*
X133537500Y-128125000D01*
D53*
X181040000Y-144840000D02*
X181290000Y-144840000D01*
X161200000Y-137800000D02*
X161200000Y-136672500D01*
D55*
X132500000Y-122925000D02*
X133537500Y-122925000D01*
X140300000Y-124225000D02*
X139262500Y-124225000D01*
D53*
X139800000Y-113700000D02*
X139600000Y-113900000D01*
D55*
X134600000Y-128125000D02*
X133537500Y-128125000D01*
D53*
X130050000Y-134300000D02*
X130050000Y-134820000D01*
X138200000Y-121700000D02*
X138200000Y-121120000D01*
X176510000Y-140500000D02*
X176510000Y-139510000D01*
X154390000Y-126430000D02*
X155120000Y-126430000D01*
X161200000Y-127800000D02*
X161200000Y-128400000D01*
D55*
X146562500Y-117625000D02*
X147625000Y-117625000D01*
X140862500Y-116325000D02*
X141900000Y-116325000D01*
D53*
X178890000Y-138790000D02*
X178840000Y-138840000D01*
X169810000Y-136620000D02*
X169520000Y-136620000D01*
X131050000Y-134300000D02*
X131050000Y-134820000D01*
X181040000Y-145840000D02*
X181390000Y-145840000D01*
X128450000Y-132000000D02*
X128450000Y-132200000D01*
G04 #@! TO.N,+3V3*
X186030000Y-113830000D02*
X186030000Y-115100000D01*
X180710000Y-112270000D02*
X180700000Y-112280000D01*
X137310000Y-114300000D02*
X137800000Y-114300000D01*
X170100000Y-112700000D02*
X170812500Y-112700000D01*
X183940000Y-142240000D02*
X183450000Y-142240000D01*
X128450000Y-133300000D02*
X128450000Y-133450000D01*
X128450000Y-117900000D02*
X128450000Y-118050000D01*
X153270000Y-125470000D02*
X153070000Y-125670000D01*
X135650000Y-140900000D02*
X135850000Y-140700000D01*
X153220000Y-114300000D02*
X152730000Y-114300000D01*
X151250000Y-141200000D02*
X151250000Y-142250000D01*
X139200000Y-120500000D02*
X139200000Y-121080000D01*
X151050000Y-140900000D02*
X151250000Y-140700000D01*
X136420000Y-140300000D02*
X136910000Y-140300000D01*
X129050000Y-134300000D02*
X129050000Y-134790000D01*
X128450000Y-133450000D02*
X128150000Y-133750000D01*
X138350000Y-113900000D02*
X138350000Y-112350000D01*
X180710000Y-111670000D02*
X180710000Y-112270000D01*
X128450000Y-133300000D02*
X128450000Y-133550000D01*
X151800000Y-140300000D02*
X152290000Y-140300000D01*
X138550000Y-113700000D02*
X138350000Y-113900000D01*
X135550000Y-140900000D02*
X135850000Y-141200000D01*
X183480000Y-112500000D02*
X184700000Y-112500000D01*
X135615000Y-121200000D02*
X135010000Y-121200000D01*
X154390000Y-125470000D02*
X153270000Y-125470000D01*
X170100000Y-111200000D02*
X170812500Y-111200000D01*
X183450000Y-142240000D02*
X183440000Y-142250000D01*
X150800000Y-140900000D02*
X150950000Y-140900000D01*
X153070000Y-125670000D02*
X152840000Y-125900000D01*
X149100000Y-114635000D02*
X149100000Y-115190000D01*
X153950000Y-113700000D02*
X153750000Y-113900000D01*
X143200000Y-114500000D02*
X142610000Y-114500000D01*
X139200000Y-121080000D02*
X139180000Y-121100000D01*
X182500000Y-109800000D02*
X182500000Y-110575000D01*
X128450000Y-133550000D02*
X128650000Y-133750000D01*
X170100000Y-109700000D02*
X170812500Y-109700000D01*
D55*
X141900000Y-134700000D02*
X140517500Y-134700000D01*
D53*
X157790000Y-130400000D02*
X158390000Y-130400000D01*
X129050000Y-118900000D02*
X129050000Y-119390000D01*
X138800000Y-113700000D02*
X138550000Y-113700000D01*
X139180000Y-122192500D02*
X139262500Y-122275000D01*
X139180000Y-121100000D02*
X139180000Y-122192500D01*
D54*
X152840000Y-128110000D02*
X152700000Y-128250000D01*
D53*
X128450000Y-118150000D02*
X128650000Y-118350000D01*
X183480000Y-111605000D02*
X182475000Y-110600000D01*
X128650000Y-133750000D02*
X127100000Y-133750000D01*
D54*
X152840000Y-126260000D02*
X152840000Y-127060000D01*
D53*
X139352500Y-133875000D02*
X138862500Y-133875000D01*
X150800000Y-140900000D02*
X151050000Y-140900000D01*
D55*
X140517500Y-134700000D02*
X140342500Y-134875000D01*
D53*
X140342500Y-135475000D02*
X140342500Y-134875000D01*
X147500000Y-114500000D02*
X147500000Y-115550000D01*
X135400000Y-140900000D02*
X135550000Y-140900000D01*
X154050000Y-113700000D02*
X153750000Y-113400000D01*
X138800000Y-113700000D02*
X138650000Y-113700000D01*
X128450000Y-118050000D02*
X128150000Y-118350000D01*
X138650000Y-113700000D02*
X138350000Y-113400000D01*
X183200000Y-110600000D02*
X182475000Y-110600000D01*
X183480000Y-111820000D02*
X183480000Y-111605000D01*
X128650000Y-118350000D02*
X127100000Y-118350000D01*
X148100000Y-114500000D02*
X147500000Y-114500000D01*
X184700000Y-112500000D02*
X186030000Y-113830000D01*
X183480000Y-112500000D02*
X183480000Y-111820000D01*
D54*
X152840000Y-127760000D02*
X152840000Y-128110000D01*
D53*
X128450000Y-117900000D02*
X128450000Y-118150000D01*
X135400000Y-140900000D02*
X135650000Y-140900000D01*
X154200000Y-113700000D02*
X153950000Y-113700000D01*
X147500000Y-115550000D02*
X147625000Y-115675000D01*
D54*
X152840000Y-125900000D02*
X152840000Y-126260000D01*
D53*
X148310000Y-136400000D02*
X148310000Y-135800000D01*
X135850000Y-140700000D02*
X135850000Y-142250000D01*
D54*
X152840000Y-127060000D02*
X152840000Y-127760000D01*
D53*
X153750000Y-113900000D02*
X153750000Y-112350000D01*
X141800000Y-123945000D02*
X141200000Y-123945000D01*
X154200000Y-113700000D02*
X154050000Y-113700000D01*
X150950000Y-140900000D02*
X151250000Y-141200000D01*
X182500000Y-110575000D02*
X182475000Y-110600000D01*
D56*
G04 #@! TO.N,ESP_EN*
X179700000Y-113290000D02*
X178800000Y-112390000D01*
D53*
X179700000Y-113290000D02*
X180690000Y-113290000D01*
D56*
X184760000Y-114160000D02*
X184760000Y-115100000D01*
X160190000Y-114200000D02*
X164200000Y-114200000D01*
X158790000Y-115600000D02*
X158790000Y-120490000D01*
X158790000Y-115600000D02*
X160190000Y-114200000D01*
X177100000Y-108800000D02*
X178800000Y-110500000D01*
X169600000Y-108800000D02*
X164200000Y-114200000D01*
X180700000Y-113300000D02*
X183900000Y-113300000D01*
X178800000Y-110500000D02*
X178800000Y-112390000D01*
X177100000Y-108800000D02*
X169600000Y-108800000D01*
D53*
X180690000Y-113290000D02*
X180700000Y-113300000D01*
D56*
X158790000Y-120490000D02*
X159500000Y-121200000D01*
X183900000Y-113300000D02*
X184760000Y-114160000D01*
D53*
G04 #@! TO.N,5V_USB*
X181840000Y-142690000D02*
X181840000Y-143036096D01*
D55*
X167600000Y-137520000D02*
X167510000Y-137610000D01*
X182550000Y-141110000D02*
X182420000Y-141240000D01*
D53*
X178281402Y-144300000D02*
X176340923Y-142359521D01*
D55*
X167600000Y-136400000D02*
X167600000Y-137520000D01*
D53*
X182420000Y-142110000D02*
X181840000Y-142690000D01*
D56*
X161200000Y-125400000D02*
X161350000Y-125400000D01*
D55*
X175800000Y-136800000D02*
X175000000Y-136800000D01*
X182550000Y-140050000D02*
X182550000Y-141110000D01*
D53*
X167540000Y-137580000D02*
X167510000Y-137610000D01*
X170910000Y-140500000D02*
X170910000Y-138680000D01*
D56*
X162300000Y-129400000D02*
X163300000Y-130400000D01*
X162300000Y-126350000D02*
X162300000Y-129400000D01*
X161350000Y-125400000D02*
X162300000Y-126350000D01*
D53*
X175710000Y-140500000D02*
X175710000Y-139610000D01*
X176340923Y-142359521D02*
X175259521Y-142359521D01*
X181840000Y-143036096D02*
X180576096Y-144300000D01*
X180576096Y-144300000D02*
X178281402Y-144300000D01*
X169810000Y-137580000D02*
X167540000Y-137580000D01*
X170910000Y-138680000D02*
X169810000Y-137580000D01*
X182420000Y-141240000D02*
X182420000Y-142110000D01*
D56*
G04 #@! TO.N,/SPI ports A & B/S1_CLK*
X140410000Y-138300000D02*
X141349500Y-138300000D01*
X143700000Y-132100000D02*
X141900000Y-132100000D01*
X144500000Y-132900000D02*
X143700000Y-132100000D01*
G04 #@! TO.N,/SPI ports A & B/S1_MOSI*
X140410000Y-137300000D02*
X141100000Y-137300000D01*
X143800000Y-130800000D02*
X141900000Y-130800000D01*
D53*
G04 #@! TO.N,/SPI ports A & B/S2_CLK*
X153910000Y-138300000D02*
X154500000Y-138300000D01*
D56*
X146500000Y-132100000D02*
X147625000Y-132100000D01*
D53*
G04 #@! TO.N,/SPI ports A & B/S2_MOSI*
X154600000Y-137300000D02*
X155000000Y-136900000D01*
X153910000Y-137300000D02*
X154600000Y-137300000D01*
D56*
X148800000Y-130800000D02*
X147625000Y-130800000D01*
D53*
G04 #@! TO.N,/SPI ports C & D/S1_CLK*
X131050000Y-121400000D02*
X131050000Y-120800000D01*
D56*
X137600000Y-124900000D02*
X139237500Y-124900000D01*
X139237500Y-124900000D02*
X139262500Y-124875000D01*
G04 #@! TO.N,/SPI ports C & D/S1_MOSI*
X138203200Y-126203200D02*
X139234300Y-126203200D01*
X139234300Y-126203200D02*
X139262500Y-126175000D01*
D53*
X132050000Y-120810000D02*
X132050000Y-121400000D01*
G04 #@! TO.N,/SPI ports C & D/S2_CLK*
X131050000Y-139300000D02*
X131050000Y-138310000D01*
D56*
X132500000Y-124875000D02*
X133537500Y-124875000D01*
G04 #@! TO.N,/SPI ports C & D/S2_MOSI*
X133562500Y-126200000D02*
X133537500Y-126175000D01*
D53*
X132050000Y-139300000D02*
X132050000Y-138310000D01*
D56*
X134600000Y-126200000D02*
X133562500Y-126200000D01*
G04 #@! TO.N,/SPI ports E & F/S1_CLK*
X150600000Y-116300000D02*
X149400000Y-117500000D01*
X149025000Y-118275000D02*
X149400000Y-117900000D01*
X147625000Y-118275000D02*
X149025000Y-118275000D01*
X149400000Y-117900000D02*
X149400000Y-117500000D01*
X151180000Y-116300000D02*
X150600000Y-116300000D01*
G04 #@! TO.N,/SPI ports E & F/S1_MOSI*
X148746800Y-119575000D02*
X147625000Y-119575000D01*
X151180000Y-117300000D02*
X150600000Y-117300000D01*
X150600000Y-117300000D02*
X150300000Y-117600000D01*
G04 #@! TO.N,/SPI ports E & F/S2_CLK*
X140525000Y-118275000D02*
X140400000Y-118400000D01*
D53*
X133790000Y-116300000D02*
X132900000Y-116300000D01*
D56*
X141900000Y-118275000D02*
X140525000Y-118275000D01*
G04 #@! TO.N,/SPI ports E & F/S2_MOSI*
X140800000Y-119600000D02*
X141875000Y-119600000D01*
D53*
X133790000Y-117300000D02*
X132900000Y-117300000D01*
D56*
X141875000Y-119600000D02*
X141900000Y-119575000D01*
G04 #@! TO.N,+5V*
X161900000Y-127500000D02*
X161900000Y-130400000D01*
X161900000Y-127500000D02*
X161400000Y-127000000D01*
X161400000Y-127000000D02*
X161200000Y-127000000D01*
D53*
X127100000Y-131250000D02*
X125500000Y-131250000D01*
X148750000Y-143900000D02*
X148750000Y-142250000D01*
X125500000Y-115300000D02*
X125500000Y-116400000D01*
X160240000Y-139600000D02*
X160240000Y-138537500D01*
X141400000Y-110700000D02*
X140300000Y-110700000D01*
X125500000Y-115850000D02*
X127100000Y-115850000D01*
X156800000Y-110700000D02*
X155700000Y-110700000D01*
X160240000Y-137500000D02*
X160240000Y-138537500D01*
X133350000Y-143900000D02*
X133350000Y-142250000D01*
X125500000Y-130700000D02*
X125500000Y-131800000D01*
X140850000Y-112350000D02*
X140850000Y-110700000D01*
X156250000Y-112350000D02*
X156250000Y-110700000D01*
X132800000Y-143900000D02*
X133900000Y-143900000D01*
X148200000Y-143900000D02*
X149300000Y-143900000D01*
G04 #@! TO.N,Net-(D2-Pad1)*
X173590000Y-112700000D02*
X172387500Y-112700000D01*
G04 #@! TO.N,Net-(D3-Pad1)*
X173590000Y-111200000D02*
X172387500Y-111200000D01*
G04 #@! TO.N,Net-(D4-Pad1)*
X173590000Y-109700000D02*
X172387500Y-109700000D01*
G04 #@! TO.N,Net-(FB1-Pad1)*
X159290000Y-136662500D02*
X159290000Y-134940000D01*
X159290000Y-134940000D02*
X159000000Y-134650000D01*
D56*
G04 #@! TO.N,ESP_IO5*
X175870000Y-132100000D02*
X175870000Y-126400000D01*
G04 #@! TO.N,ESP_IO15*
X165200000Y-124400000D02*
X166300000Y-124400000D01*
X166300000Y-124400000D02*
X167600000Y-125700000D01*
X167600000Y-127300000D02*
X167600000Y-125700000D01*
X169790000Y-128045000D02*
X168345000Y-128045000D01*
X168345000Y-128045000D02*
X167600000Y-127300000D01*
G04 #@! TO.N,ESP_IO16*
X173330000Y-122405000D02*
X173335000Y-122400000D01*
X173330000Y-132100000D02*
X173330000Y-122405000D01*
G04 #@! TO.N,ESP_IO17*
X174635000Y-120400000D02*
X174600000Y-120435000D01*
X174600000Y-120435000D02*
X174600000Y-132100000D01*
G04 #@! TO.N,ESP_IO35*
X179635000Y-116990000D02*
X179680000Y-116945000D01*
X165200000Y-118400000D02*
X166600000Y-119800000D01*
X179680000Y-116945000D02*
X179680000Y-115100000D01*
D57*
G04 #@! TO.N,USB_CONN_D-*
X172560000Y-139772482D02*
X172168030Y-139380512D01*
X173535000Y-137483200D02*
X173993200Y-137025000D01*
X172168030Y-139380512D02*
X172168030Y-139310000D01*
X172560000Y-140500000D02*
X172560000Y-139772482D01*
X173560000Y-140500000D02*
X173560000Y-139629999D01*
X173535000Y-139604999D02*
X173535000Y-137483200D01*
X173560000Y-139629999D02*
X173535000Y-139604999D01*
X173993200Y-137025000D02*
X174483228Y-137025000D01*
X175274999Y-137300000D02*
X175800000Y-137300000D01*
X175250488Y-137324511D02*
X175274999Y-137300000D01*
X174782739Y-137324511D02*
X175250488Y-137324511D01*
X174483228Y-137025000D02*
X174782739Y-137324511D01*
G04 #@! TO.N,USB_CONN_D+*
X175274999Y-136300000D02*
X175800000Y-136300000D01*
X173060000Y-139629999D02*
X173085000Y-139604999D01*
X174060000Y-139850000D02*
X174510000Y-139400000D01*
X173806800Y-136575000D02*
X174483228Y-136575000D01*
X173085000Y-137296800D02*
X173806800Y-136575000D01*
X173060000Y-140500000D02*
X173060000Y-139629999D01*
X174483228Y-136575000D02*
X174782739Y-136275489D01*
X174060000Y-140500000D02*
X174060000Y-139850000D01*
X173085000Y-139604999D02*
X173085000Y-137296800D01*
X175250488Y-136275489D02*
X175274999Y-136300000D01*
X174782739Y-136275489D02*
X175250488Y-136275489D01*
D56*
G04 #@! TO.N,/SPI ports A & B/S1_MISO*
X147625000Y-130150000D02*
X146100000Y-130150000D01*
X141100000Y-136300000D02*
X140410000Y-136300000D01*
G04 #@! TO.N,/SPI ports A & B/S2_MISO*
X146100000Y-128100000D02*
X148000000Y-128100000D01*
X141900000Y-128850000D02*
X145350000Y-128850000D01*
D53*
X153910000Y-136300000D02*
X154500000Y-136300000D01*
D56*
X145350000Y-128850000D02*
X146100000Y-128100000D01*
G04 #@! TO.N,/SPI ports C & D/S1_MISO*
X131900000Y-122500000D02*
X131900000Y-126300000D01*
X131900000Y-126300000D02*
X132425000Y-126825000D01*
X133050000Y-121350000D02*
X131900000Y-122500000D01*
X133050000Y-120800000D02*
X133050000Y-121350000D01*
X132425000Y-126825000D02*
X133537500Y-126825000D01*
G04 #@! TO.N,/SPI ports C & D/S2_MISO*
X139287500Y-128100000D02*
X139262500Y-128125000D01*
X140600000Y-128100000D02*
X139287500Y-128100000D01*
D53*
X133050000Y-139300000D02*
X133050000Y-138310000D01*
D56*
G04 #@! TO.N,/SPI ports E & F/S1_MISO*
X141900000Y-120225000D02*
X143075000Y-120225000D01*
D53*
X150600000Y-118300000D02*
X151180000Y-118300000D01*
D56*
X143075000Y-120225000D02*
X143100000Y-120200000D01*
G04 #@! TO.N,/SPI ports E & F/S2_MISO*
X146300000Y-121525000D02*
X147625000Y-121525000D01*
D53*
X133790000Y-118300000D02*
X133100000Y-118300000D01*
X133100000Y-118300000D02*
X132900000Y-118500000D01*
D56*
G04 #@! TO.N,Net-(Q2-Pad1)*
X155740000Y-126146416D02*
X155100000Y-125506416D01*
X155740000Y-128030000D02*
X155000000Y-128770000D01*
X155100000Y-121000000D02*
X155850000Y-120250000D01*
X155000000Y-128770000D02*
X155000000Y-130300000D01*
X163200000Y-133700000D02*
X167625000Y-133700000D01*
X155100000Y-125506416D02*
X155100000Y-121000000D01*
X160799511Y-131299511D02*
X163200000Y-133700000D01*
X155000000Y-130300000D02*
X155999511Y-131299511D01*
X155740000Y-128030000D02*
X155740000Y-126146416D01*
X184550000Y-134300000D02*
X184550000Y-135150000D01*
X167625000Y-133700000D02*
X168335000Y-132990000D01*
X155850000Y-120250000D02*
X157625000Y-120250000D01*
X155999511Y-131299511D02*
X160799511Y-131299511D01*
G04 #@! TO.N,Net-(Q2-Pad2)*
X156760000Y-122150000D02*
X156000000Y-121390000D01*
X157625000Y-122150000D02*
X156760000Y-122150000D01*
D55*
G04 #@! TO.N,Net-(Q3-Pad1)*
X157302500Y-127150000D02*
X158050000Y-127150000D01*
D56*
X182550000Y-135150000D02*
X181210000Y-135150000D01*
X156000000Y-122410000D02*
X157000000Y-123410000D01*
D55*
X158050000Y-127150000D02*
X158300000Y-127400000D01*
D56*
X157000000Y-126847500D02*
X157302500Y-127150000D01*
X181210000Y-135150000D02*
X180730000Y-135630000D01*
X157000000Y-123410000D02*
X157000000Y-126847500D01*
G04 #@! TO.N,Net-(Q3-Pad2)*
X155740000Y-129050000D02*
X157302500Y-129050000D01*
G04 #@! TO.N,ESP_IO0*
X159430000Y-129400000D02*
X159430000Y-128352500D01*
X159410000Y-130400000D02*
X160900000Y-130400000D01*
X166900000Y-132100000D02*
X170790000Y-132100000D01*
X166200000Y-131400000D02*
X166900000Y-132100000D01*
X161900000Y-131400000D02*
X166200000Y-131400000D01*
X159430000Y-128352500D02*
X159177500Y-128100000D01*
X160900000Y-130400000D02*
X161900000Y-131400000D01*
D53*
X159410000Y-129420000D02*
X159430000Y-129400000D01*
X159410000Y-130400000D02*
X159410000Y-129420000D01*
D56*
G04 #@! TO.N,ESP_RXD*
X177200000Y-112700000D02*
X177600000Y-112300000D01*
X174610000Y-112700000D02*
X177200000Y-112700000D01*
X181925000Y-133900000D02*
X182220000Y-133605000D01*
X182220000Y-133605000D02*
X182220000Y-132100000D01*
X182220000Y-130605000D02*
X182235000Y-130590000D01*
X182220000Y-132100000D02*
X182220000Y-130605000D01*
G04 #@! TO.N,ESP_IO2*
X168010000Y-129315000D02*
X167935000Y-129390000D01*
X169790000Y-129315000D02*
X168010000Y-129315000D01*
G04 #@! TO.N,/IO12*
X152210000Y-121300000D02*
X153800000Y-121300000D01*
X167900000Y-115100000D02*
X170790000Y-115100000D01*
X169800000Y-116900000D02*
X170790000Y-115910000D01*
X153800000Y-121300000D02*
X154400000Y-120700000D01*
X170790000Y-115910000D02*
X170790000Y-115100000D01*
G04 #@! TO.N,B0-MISO*
X145025000Y-120875000D02*
X147625000Y-120875000D01*
X151190000Y-121300000D02*
X150765000Y-120875000D01*
X144000000Y-121900000D02*
X145025000Y-120875000D01*
X141425000Y-127475000D02*
X144000000Y-124900000D01*
X150765000Y-120875000D02*
X147625000Y-120875000D01*
X141900000Y-120875000D02*
X147625000Y-120875000D01*
X144000000Y-124900000D02*
X144000000Y-121900000D01*
X139262500Y-127475000D02*
X141425000Y-127475000D01*
G04 #@! TO.N,/IO13*
X166000000Y-117000000D02*
X168155000Y-119155000D01*
X152510000Y-120000000D02*
X152210000Y-120300000D01*
X155200000Y-120000000D02*
X152510000Y-120000000D01*
X168155000Y-119155000D02*
X169790000Y-119155000D01*
G04 #@! TO.N,B0-MOSI*
X133537500Y-125525000D02*
X134775000Y-125525000D01*
X143025000Y-118925000D02*
X144325000Y-120225000D01*
X137000000Y-120300000D02*
X138375000Y-118925000D01*
X151190000Y-120300000D02*
X151115000Y-120225000D01*
X138375000Y-118925000D02*
X141900000Y-118925000D01*
X151115000Y-120225000D02*
X147625000Y-120225000D01*
X141900000Y-118925000D02*
X143025000Y-118925000D01*
X137000000Y-123300000D02*
X137000000Y-120300000D01*
X144325000Y-120225000D02*
X147625000Y-120225000D01*
X134775000Y-125525000D02*
X137000000Y-123300000D01*
G04 #@! TO.N,/IO14*
X152210000Y-119300000D02*
X156000000Y-119300000D01*
X172060000Y-116965000D02*
X172060000Y-115100000D01*
X172035000Y-116990000D02*
X172060000Y-116965000D01*
G04 #@! TO.N,B0-CLK*
X138675000Y-117625000D02*
X141900000Y-117625000D01*
X151190000Y-119300000D02*
X150000000Y-119300000D01*
X136200000Y-120100000D02*
X138675000Y-117625000D01*
X144525000Y-117625000D02*
X145825000Y-118925000D01*
X133537500Y-124225000D02*
X134975000Y-124225000D01*
X150000000Y-119300000D02*
X149625000Y-118925000D01*
X147625000Y-118925000D02*
X149625000Y-118925000D01*
X134975000Y-124225000D02*
X136200000Y-123000000D01*
X145825000Y-118925000D02*
X147625000Y-118925000D01*
X136200000Y-123000000D02*
X136200000Y-120100000D01*
X141900000Y-117625000D02*
X144525000Y-117625000D01*
G04 #@! TO.N,/IO18*
X177140000Y-132100000D02*
X177140000Y-133205000D01*
X176445000Y-133900000D02*
X175645000Y-133900000D01*
X177140000Y-133205000D02*
X176445000Y-133900000D01*
G04 #@! TO.N,B1-CLK*
X137400000Y-126300000D02*
X137400000Y-130000000D01*
X160200000Y-131700000D02*
X162600000Y-134100000D01*
X174425000Y-134100000D02*
X174625000Y-133900000D01*
X141900000Y-131450000D02*
X144150000Y-131450000D01*
X147625000Y-132750000D02*
X149050000Y-132750000D01*
X138850000Y-131450000D02*
X141900000Y-131450000D01*
X149050000Y-132750000D02*
X149100000Y-132700000D01*
X151700000Y-131700000D02*
X160200000Y-131700000D01*
X144150000Y-131450000D02*
X145450000Y-132750000D01*
X138175000Y-125525000D02*
X137400000Y-126300000D01*
X145450000Y-132750000D02*
X147625000Y-132750000D01*
X162600000Y-134100000D02*
X174425000Y-134100000D01*
X137400000Y-130000000D02*
X138850000Y-131450000D01*
X139262500Y-125525000D02*
X138175000Y-125525000D01*
G04 #@! TO.N,/IO19*
X178410000Y-132100000D02*
X178410000Y-133235000D01*
X178410000Y-133235000D02*
X176745000Y-134900000D01*
X176745000Y-134900000D02*
X175645000Y-134900000D01*
G04 #@! TO.N,B1-MISO*
X133562500Y-127500000D02*
X133537500Y-127475000D01*
X141900000Y-129500000D02*
X147625000Y-129500000D01*
X148600000Y-129500000D02*
X147625000Y-129500000D01*
X160100000Y-132500000D02*
X162100000Y-134500000D01*
X141900000Y-129500000D02*
X140000000Y-129500000D01*
X151600000Y-132500000D02*
X160100000Y-132500000D01*
X174625000Y-134900000D02*
X174225000Y-134500000D01*
X174225000Y-134500000D02*
X162100000Y-134500000D01*
X151600000Y-132500000D02*
X148600000Y-129500000D01*
X135200000Y-127500000D02*
X133562500Y-127500000D01*
D53*
G04 #@! TO.N,/IO23*
X173000000Y-135100000D02*
X172510000Y-135100000D01*
X172510000Y-135100000D02*
X172310000Y-135300000D01*
D56*
X186030000Y-133690000D02*
X186030000Y-132100000D01*
G04 #@! TO.N,B1-MOSI*
X138550000Y-130150000D02*
X137800000Y-129400000D01*
X147625000Y-131450000D02*
X148850000Y-131450000D01*
X161900000Y-135300000D02*
X159700000Y-133100000D01*
X141900000Y-130150000D02*
X144650000Y-130150000D01*
X144650000Y-130150000D02*
X145950000Y-131450000D01*
X145950000Y-131450000D02*
X147625000Y-131450000D01*
X171290000Y-135300000D02*
X161900000Y-135300000D01*
X137800000Y-129400000D02*
X137800000Y-127400000D01*
X137800000Y-127400000D02*
X138375000Y-126825000D01*
X150500000Y-133100000D02*
X159700000Y-133100000D01*
X141900000Y-130150000D02*
X138550000Y-130150000D01*
X148850000Y-131450000D02*
X150500000Y-133100000D01*
X138375000Y-126825000D02*
X139262500Y-126825000D01*
G04 #@! TO.N,LED_GREEN*
X172060000Y-132100000D02*
X172060000Y-130715000D01*
X172060000Y-130715000D02*
X172035000Y-130690000D01*
X174610000Y-111200000D02*
X175300000Y-111200000D01*
G04 #@! TO.N,LED_BLUE*
X176700000Y-109700000D02*
X178410000Y-111410000D01*
X178410000Y-111410000D02*
X178410000Y-115100000D01*
X174610000Y-109700000D02*
X176700000Y-109700000D01*
G04 #@! TO.N,B1_CS1*
X140410000Y-139300000D02*
X141300000Y-139300000D01*
X147290000Y-135035000D02*
X147625000Y-134700000D01*
X177140000Y-116360000D02*
X177140000Y-115100000D01*
X172100000Y-121400000D02*
X177140000Y-116360000D01*
X147290000Y-135800000D02*
X146700000Y-135800000D01*
X141300000Y-139300000D02*
X145900000Y-134700000D01*
X145900000Y-134700000D02*
X147625000Y-134700000D01*
X147290000Y-135800000D02*
X147290000Y-135035000D01*
G04 #@! TO.N,Net-(C14-Pad1)*
X160450000Y-129400000D02*
X160450000Y-127450000D01*
X159800000Y-122420000D02*
X159820000Y-122400000D01*
X159800000Y-123400000D02*
X159800000Y-122420000D01*
D53*
X159500000Y-123700000D02*
X159800000Y-123400000D01*
D56*
X160450000Y-127450000D02*
X159800000Y-126800000D01*
D53*
X159500000Y-124600000D02*
X159500000Y-123700000D01*
D56*
G04 #@! TO.N,B1_CS2*
X141900000Y-134050000D02*
X144650000Y-134050000D01*
X173550000Y-135850000D02*
X178350000Y-135850000D01*
X144650000Y-134050000D02*
X145200000Y-134600000D01*
X172400000Y-137000000D02*
X173550000Y-135850000D01*
D53*
X154500000Y-139300000D02*
X153910000Y-139300000D01*
D56*
X178350000Y-135850000D02*
X180950000Y-133250000D01*
X154500000Y-139300000D02*
X155349500Y-139300000D01*
X180950000Y-133250000D02*
X180950000Y-132100000D01*
D55*
X141900000Y-134050000D02*
X140547500Y-134050000D01*
X140547500Y-134050000D02*
X140372500Y-133875000D01*
D56*
X155349500Y-139300000D02*
X156149500Y-138500000D01*
D53*
G04 #@! TO.N,Net-(C16-Pad1)*
X137100000Y-142250000D02*
X137100000Y-141200000D01*
X137900000Y-139300000D02*
X139390000Y-139300000D01*
G04 #@! TO.N,B0_CS2*
X175870000Y-113800000D02*
X175870000Y-115100000D01*
D56*
X134000000Y-121200000D02*
X134900000Y-120300000D01*
X133537500Y-122275000D02*
X133537500Y-121652500D01*
X133990000Y-121200000D02*
X134000000Y-121200000D01*
X133537500Y-121652500D02*
X133990000Y-121200000D01*
X130050000Y-120800000D02*
X130565480Y-120284520D01*
X130565480Y-120284520D02*
X133362958Y-120284520D01*
X133990000Y-120911562D02*
X133990000Y-121200000D01*
X133362958Y-120284520D02*
X133990000Y-120911562D01*
D53*
G04 #@! TO.N,Net-(C17-Pad1)*
X138350000Y-141200000D02*
X138350000Y-142250000D01*
X137900000Y-138300000D02*
X139390000Y-138300000D01*
X138350000Y-141200000D02*
X138350000Y-140720000D01*
X138350000Y-140720000D02*
X137930000Y-140300000D01*
D56*
G04 #@! TO.N,B1_CS0*
X138175000Y-122925000D02*
X139262500Y-122925000D01*
X135920489Y-125179511D02*
X138175000Y-122925000D01*
X151300000Y-123300000D02*
X150925000Y-122925000D01*
X183335000Y-129090000D02*
X184760000Y-130515000D01*
X140475000Y-122925000D02*
X139262500Y-122925000D01*
X130050000Y-139250000D02*
X130800000Y-140000000D01*
X184760000Y-130515000D02*
X184760000Y-132100000D01*
X133056416Y-140000000D02*
X135920489Y-137135927D01*
X130800000Y-140000000D02*
X133056416Y-140000000D01*
X141200000Y-122925000D02*
X140475000Y-122925000D01*
X177135000Y-129090000D02*
X183335000Y-129090000D01*
X135920489Y-137135927D02*
X135920489Y-125179511D01*
X130050000Y-138310000D02*
X130050000Y-139250000D01*
X150925000Y-122925000D02*
X148000000Y-122925000D01*
D53*
G04 #@! TO.N,Net-(C18-Pad1)*
X139600000Y-141200000D02*
X139600000Y-142250000D01*
X137900000Y-137300000D02*
X139390000Y-137300000D01*
D56*
G04 #@! TO.N,B0_CS0*
X151180000Y-115300000D02*
X150600000Y-115300000D01*
D55*
X141590000Y-114500000D02*
X141590000Y-115365000D01*
D53*
X173330000Y-113800000D02*
X173330000Y-115100000D01*
D56*
X143725000Y-115675000D02*
X145434520Y-113965480D01*
X145434520Y-113965480D02*
X149265480Y-113965480D01*
X141900000Y-115675000D02*
X143725000Y-115675000D01*
X150600000Y-115300000D02*
X149265480Y-113965480D01*
D55*
X141590000Y-115365000D02*
X141900000Y-115675000D01*
D53*
G04 #@! TO.N,Net-(C19-Pad1)*
X151250000Y-139300000D02*
X152890000Y-139300000D01*
X152500000Y-141200000D02*
X152500000Y-142250000D01*
D56*
G04 #@! TO.N,B0_CS1*
X133790000Y-115300000D02*
X133200000Y-115300000D01*
D53*
X174600000Y-113800000D02*
X174600000Y-115100000D01*
D56*
X149100000Y-116210000D02*
X149790000Y-116210000D01*
X148985000Y-116325000D02*
X149100000Y-116210000D01*
X149790000Y-116210000D02*
X149800000Y-116200000D01*
X147625000Y-116325000D02*
X148985000Y-116325000D01*
X147625000Y-116325000D02*
X146500000Y-116325000D01*
G04 #@! TO.N,Net-(C20-Pad1)*
X153400000Y-140210000D02*
X153310000Y-140300000D01*
D53*
X153750000Y-141200000D02*
X153750000Y-142250000D01*
X153750000Y-141200000D02*
X153750000Y-140740000D01*
X151270000Y-138300000D02*
X152890000Y-138300000D01*
D56*
X153400000Y-138810000D02*
X153400000Y-140210000D01*
D53*
X153750000Y-140740000D02*
X153310000Y-140300000D01*
D56*
X152890000Y-138300000D02*
X153400000Y-138810000D01*
G04 #@! TO.N,Net-(RN1-Pad1)*
X163000000Y-127000000D02*
X163400000Y-127000000D01*
X182220000Y-116575000D02*
X182235000Y-116590000D01*
X182220000Y-115100000D02*
X182220000Y-116575000D01*
X163400000Y-127000000D02*
X163800000Y-126600000D01*
D53*
X163000000Y-127000000D02*
X163000000Y-127800000D01*
D56*
G04 #@! TO.N,Net-(RN1-Pad3)*
X163000000Y-125400000D02*
X163000000Y-124700000D01*
D53*
X163000000Y-125400000D02*
X163000000Y-126200000D01*
D56*
X183490000Y-115100000D02*
X183490000Y-118990000D01*
D57*
G04 #@! TO.N,USB_D+*
X180143199Y-137624999D02*
X181575001Y-137624999D01*
X178267261Y-136275489D02*
X178566772Y-136575000D01*
X177300000Y-136300000D02*
X177808228Y-136300000D01*
X181575001Y-137624999D02*
X181600000Y-137600000D01*
X177808228Y-136300000D02*
X177832739Y-136275489D01*
X179093200Y-136575000D02*
X180143199Y-137624999D01*
X177832739Y-136275489D02*
X178267261Y-136275489D01*
X178566772Y-136575000D02*
X179093200Y-136575000D01*
G04 #@! TO.N,USB_D-*
X181575001Y-138075001D02*
X181600000Y-138100000D01*
X177808228Y-137300000D02*
X177832739Y-137324511D01*
X178267261Y-137324511D02*
X178566772Y-137025000D01*
X177832739Y-137324511D02*
X178267261Y-137324511D01*
X179956801Y-138075001D02*
X181575001Y-138075001D01*
X178566772Y-137025000D02*
X178906800Y-137025000D01*
X178906800Y-137025000D02*
X179956801Y-138075001D01*
X177300000Y-137300000D02*
X177808228Y-137300000D01*
D56*
G04 #@! TO.N,ESP_TXD*
X184050000Y-134050000D02*
X183490000Y-133490000D01*
X184050000Y-135150000D02*
X184050000Y-134050000D01*
X183490000Y-133490000D02*
X183490000Y-132100000D01*
D53*
G04 #@! TO.N,Net-(C13-Pad1)*
X159500000Y-119680000D02*
X159820000Y-120000000D01*
D56*
X159810000Y-117490000D02*
X159500000Y-117800000D01*
X159810000Y-115600000D02*
X159810000Y-117490000D01*
D53*
X159500000Y-117800000D02*
X159500000Y-119680000D01*
G04 #@! TO.N,Net-(C21-Pad1)*
X151270000Y-137300000D02*
X152890000Y-137300000D01*
X155000000Y-141200000D02*
X155000000Y-142250000D01*
D56*
G04 #@! TO.N,Net-(P1-PadA5)*
X172060000Y-139908386D02*
X171510000Y-139358386D01*
X171510000Y-139358386D02*
X171510000Y-137600000D01*
X172060000Y-140500000D02*
X172060000Y-139908386D01*
G04 #@! TO.N,Net-(P1-PadB5)*
X175060000Y-139140000D02*
X175600000Y-138600000D01*
X175060000Y-140500000D02*
X175060000Y-139140000D01*
D58*
G04 #@! TO.N,Net-(R1-Pad2)*
X183050000Y-140840000D02*
X183440000Y-141230000D01*
X183050000Y-140050000D02*
X183050000Y-140840000D01*
D56*
G04 #@! TO.N,Net-(R2-Pad1)*
X183550000Y-134505000D02*
X182945000Y-133900000D01*
X183550000Y-135150000D02*
X183550000Y-134505000D01*
D53*
G04 #@! TO.N,Net-(C28-Pad1)*
X132050000Y-136300000D02*
X132050000Y-135780000D01*
X132050000Y-135780000D02*
X132050000Y-137290000D01*
X128150000Y-137500000D02*
X127100000Y-137500000D01*
G04 #@! TO.N,Net-(C23-Pad1)*
X130050000Y-118270000D02*
X130050000Y-119780000D01*
X128150000Y-119600000D02*
X127100000Y-119600000D01*
X130050000Y-118270000D02*
X130050000Y-118790000D01*
G04 #@! TO.N,Net-(C24-Pad1)*
X131050000Y-119780000D02*
X131050000Y-118270000D01*
X128150000Y-120850000D02*
X128610000Y-120850000D01*
X128150000Y-120850000D02*
X127100000Y-120850000D01*
X128610000Y-120850000D02*
X129050000Y-120410000D01*
X131050000Y-119290000D02*
X131050000Y-119780000D01*
G04 #@! TO.N,Net-(C25-Pad1)*
X128150000Y-122100000D02*
X127100000Y-122100000D01*
X132050000Y-118290000D02*
X132050000Y-119790000D01*
X132050000Y-118790000D02*
X132050000Y-118290000D01*
G04 #@! TO.N,Net-(C26-Pad1)*
X128150000Y-135000000D02*
X127100000Y-135000000D01*
X130050000Y-137290000D02*
X130050000Y-135780000D01*
X130050000Y-135780000D02*
X130050000Y-136300000D01*
G04 #@! TO.N,Net-(C27-Pad1)*
X131050000Y-136800000D02*
X131050000Y-137290000D01*
X128150000Y-136250000D02*
X127100000Y-136250000D01*
X131050000Y-135780000D02*
X131050000Y-137290000D01*
X128610000Y-136250000D02*
X129050000Y-135810000D01*
X128150000Y-136250000D02*
X128610000Y-136250000D01*
G04 #@! TO.N,Net-(C35-Pad1)*
X134600000Y-113400000D02*
X134600000Y-112350000D01*
X136320000Y-117300000D02*
X134810000Y-117300000D01*
G04 #@! TO.N,Net-(C30-Pad1)*
X152500000Y-113400000D02*
X152500000Y-112350000D01*
X153700000Y-115300000D02*
X152200000Y-115300000D01*
G04 #@! TO.N,Net-(C31-Pad1)*
X151250000Y-113400000D02*
X151250000Y-112350000D01*
X151250000Y-113840000D02*
X151710000Y-114300000D01*
X153700000Y-116300000D02*
X152200000Y-116300000D01*
X151250000Y-113400000D02*
X151250000Y-113840000D01*
G04 #@! TO.N,Net-(C32-Pad1)*
X150000000Y-113400000D02*
X150000000Y-112350000D01*
X153700000Y-117300000D02*
X152200000Y-117300000D01*
G04 #@! TO.N,Net-(C33-Pad1)*
X136320000Y-115300000D02*
X134810000Y-115300000D01*
X137100000Y-113400000D02*
X137100000Y-112350000D01*
G04 #@! TO.N,Net-(C34-Pad1)*
X135850000Y-113860000D02*
X136290000Y-114300000D01*
X135850000Y-113400000D02*
X135850000Y-113860000D01*
X135850000Y-113400000D02*
X135850000Y-112350000D01*
X136320000Y-116300000D02*
X134810000Y-116300000D01*
G04 #@! TO.N,Net-(J2-Pad7)*
X138900000Y-136300000D02*
X139390000Y-136300000D01*
X140850000Y-141200000D02*
X140850000Y-142250000D01*
G04 #@! TO.N,Net-(J3-Pad7)*
X156250000Y-141200000D02*
X156250000Y-142250000D01*
X152400000Y-136300000D02*
X152890000Y-136300000D01*
G04 #@! TO.N,Net-(J4-Pad7)*
X133050000Y-119290000D02*
X133050000Y-119780000D01*
X128150000Y-123350000D02*
X127100000Y-123350000D01*
G04 #@! TO.N,Net-(J5-Pad7)*
X133050000Y-136800000D02*
X133050000Y-137290000D01*
X128150000Y-138750000D02*
X127100000Y-138750000D01*
G04 #@! TO.N,Net-(J6-Pad7)*
X152690000Y-118300000D02*
X152200000Y-118300000D01*
X148750000Y-113400000D02*
X148750000Y-112350000D01*
G04 #@! TO.N,Net-(J7-Pad7)*
X135300000Y-118300000D02*
X134810000Y-118300000D01*
X133350000Y-113400000D02*
X133350000Y-112350000D01*
G04 #@! TD*
G04 #@! TA.AperFunction,Conductor*
G04 #@! TO.N,+5V*
G36*
X164852121Y-135630002D02*
G01*
X164898614Y-135683658D01*
X164910000Y-135736000D01*
X164910000Y-136684000D01*
X164889998Y-136752121D01*
X164836342Y-136798614D01*
X164784000Y-136810000D01*
X162236000Y-136810000D01*
X162167879Y-136789998D01*
X162121386Y-136736342D01*
X162110000Y-136684000D01*
X162110000Y-135736000D01*
X162130002Y-135667879D01*
X162183658Y-135621386D01*
X162236000Y-135610000D01*
X164784000Y-135610000D01*
X164852121Y-135630002D01*
G37*
G04 #@! TD.AperFunction*
G04 #@! TD*
G04 #@! TA.AperFunction,Conductor*
G04 #@! TO.N,+3V3*
G36*
X142542121Y-134520002D02*
G01*
X142588614Y-134573658D01*
X142600000Y-134626000D01*
X142600000Y-134774000D01*
X142579998Y-134842121D01*
X142526342Y-134888614D01*
X142474000Y-134900000D01*
X141500000Y-134900000D01*
X141500000Y-135674000D01*
X141479998Y-135742121D01*
X141426342Y-135788614D01*
X141374000Y-135800000D01*
X140126000Y-135800000D01*
X140057879Y-135779998D01*
X140011386Y-135726342D01*
X140000000Y-135674000D01*
X140000000Y-134626000D01*
X140020002Y-134557879D01*
X140073658Y-134511386D01*
X140126000Y-134500000D01*
X142474000Y-134500000D01*
X142542121Y-134520002D01*
G37*
G04 #@! TD.AperFunction*
G04 #@! TD*
G04 #@! TA.AperFunction,Conductor*
G04 #@! TO.N,GND*
G36*
X169659425Y-117305924D02*
G01*
X169666874Y-117309719D01*
X169800000Y-117330804D01*
X169933126Y-117309719D01*
X169940575Y-117305924D01*
X169977975Y-117300000D01*
X171119000Y-117300000D01*
X171187121Y-117320002D01*
X171233614Y-117373658D01*
X171245000Y-117426000D01*
X171245000Y-118374000D01*
X171224998Y-118442121D01*
X171171342Y-118488614D01*
X171119000Y-118500000D01*
X168471000Y-118500000D01*
X168402879Y-118479998D01*
X168356386Y-118426342D01*
X168345000Y-118374000D01*
X168345000Y-117426000D01*
X168365002Y-117357879D01*
X168418658Y-117311386D01*
X168471000Y-117300000D01*
X169622025Y-117300000D01*
X169659425Y-117305924D01*
G37*
G04 #@! TD.AperFunction*
G04 #@! TD*
G04 #@! TA.AperFunction,Conductor*
G04 #@! TO.N,GND*
G36*
X170339538Y-138680002D02*
G01*
X170360512Y-138696905D01*
X170373095Y-138709488D01*
X170407121Y-138771800D01*
X170410000Y-138798583D01*
X170410000Y-139784000D01*
X170389998Y-139852121D01*
X170336342Y-139898614D01*
X170284000Y-139910000D01*
X169436000Y-139910000D01*
X169367879Y-139889998D01*
X169321386Y-139836342D01*
X169310000Y-139784000D01*
X169310000Y-138786000D01*
X169330002Y-138717879D01*
X169383658Y-138671386D01*
X169436000Y-138660000D01*
X170271417Y-138660000D01*
X170339538Y-138680002D01*
G37*
G04 #@! TD.AperFunction*
G04 #@! TD*
G04 #@! TA.AperFunction,Conductor*
G04 #@! TO.N,5V_USB*
G36*
X171201621Y-140230002D02*
G01*
X171248114Y-140283658D01*
X171259500Y-140336000D01*
X171259500Y-141094820D01*
X171268233Y-141138722D01*
X171275127Y-141149040D01*
X171275128Y-141149042D01*
X171291943Y-141174207D01*
X171301496Y-141188504D01*
X171311815Y-141195399D01*
X171340958Y-141214872D01*
X171340960Y-141214873D01*
X171351278Y-141221767D01*
X171395180Y-141230500D01*
X171724820Y-141230500D01*
X171768722Y-141221767D01*
X171769599Y-141221181D01*
X171832370Y-141214432D01*
X171846517Y-141218586D01*
X171851278Y-141221767D01*
X171895180Y-141230500D01*
X172224820Y-141230500D01*
X172268722Y-141221767D01*
X172269599Y-141221181D01*
X172332370Y-141214432D01*
X172346517Y-141218586D01*
X172351278Y-141221767D01*
X172395180Y-141230500D01*
X172724820Y-141230500D01*
X172768722Y-141221767D01*
X172769599Y-141221181D01*
X172832370Y-141214432D01*
X172846517Y-141218586D01*
X172851278Y-141221767D01*
X172895180Y-141230500D01*
X173224820Y-141230500D01*
X173268722Y-141221767D01*
X173269599Y-141221181D01*
X173332370Y-141214432D01*
X173346517Y-141218586D01*
X173351278Y-141221767D01*
X173395180Y-141230500D01*
X173724820Y-141230500D01*
X173768722Y-141221767D01*
X173769599Y-141221181D01*
X173832370Y-141214432D01*
X173846517Y-141218586D01*
X173851278Y-141221767D01*
X173895180Y-141230500D01*
X174224820Y-141230500D01*
X174268722Y-141221767D01*
X174269599Y-141221181D01*
X174332370Y-141214432D01*
X174346517Y-141218586D01*
X174351278Y-141221767D01*
X174395180Y-141230500D01*
X174724820Y-141230500D01*
X174768722Y-141221767D01*
X174769599Y-141221181D01*
X174832370Y-141214432D01*
X174846517Y-141218586D01*
X174851278Y-141221767D01*
X174895180Y-141230500D01*
X175224820Y-141230500D01*
X175268722Y-141221767D01*
X175279040Y-141214873D01*
X175279042Y-141214872D01*
X175308185Y-141195399D01*
X175318504Y-141188504D01*
X175328057Y-141174207D01*
X175344872Y-141149042D01*
X175344873Y-141149040D01*
X175351767Y-141138722D01*
X175360500Y-141094820D01*
X175360500Y-140336000D01*
X175380502Y-140267879D01*
X175434158Y-140221386D01*
X175486500Y-140210000D01*
X175884000Y-140210000D01*
X175952121Y-140230002D01*
X175998614Y-140283658D01*
X176010000Y-140336000D01*
X176010000Y-140959583D01*
X175989998Y-141027704D01*
X175934042Y-141075219D01*
X175912145Y-141084695D01*
X175794930Y-141179614D01*
X175707558Y-141302558D01*
X175656467Y-141444468D01*
X175645420Y-141594891D01*
X175675233Y-141742743D01*
X175743707Y-141877132D01*
X175845799Y-141988156D01*
X175853099Y-141992682D01*
X175853100Y-141992683D01*
X175950397Y-142053010D01*
X175997752Y-142105906D01*
X176010000Y-142160096D01*
X176010000Y-142484000D01*
X175989998Y-142552121D01*
X175936342Y-142598614D01*
X175884000Y-142610000D01*
X170736000Y-142610000D01*
X170667879Y-142589998D01*
X170621386Y-142536342D01*
X170610000Y-142484000D01*
X170610000Y-142160417D01*
X170630002Y-142092296D01*
X170685958Y-142044781D01*
X170707855Y-142035305D01*
X170825070Y-141940386D01*
X170912442Y-141817442D01*
X170963533Y-141675532D01*
X170974580Y-141525109D01*
X170944767Y-141377257D01*
X170876293Y-141242868D01*
X170774201Y-141131844D01*
X170766900Y-141127317D01*
X170669603Y-141066990D01*
X170622248Y-141014094D01*
X170610000Y-140959904D01*
X170610000Y-140336000D01*
X170630002Y-140267879D01*
X170683658Y-140221386D01*
X170736000Y-140210000D01*
X171133500Y-140210000D01*
X171201621Y-140230002D01*
G37*
G04 #@! TD.AperFunction*
G04 #@! TD*
G04 #@! TA.AperFunction,Conductor*
G04 #@! TO.N,+3V3*
G36*
X154642121Y-123920002D02*
G01*
X154688614Y-123973658D01*
X154700000Y-124026000D01*
X154700000Y-125274000D01*
X154679998Y-125342121D01*
X154626342Y-125388614D01*
X154574000Y-125400000D01*
X152226000Y-125400000D01*
X152157879Y-125379998D01*
X152111386Y-125326342D01*
X152100000Y-125274000D01*
X152100000Y-124026000D01*
X152120002Y-123957879D01*
X152173658Y-123911386D01*
X152226000Y-123900000D01*
X154574000Y-123900000D01*
X154642121Y-123920002D01*
G37*
G04 #@! TD.AperFunction*
G04 #@! TD*
G04 #@! TA.AperFunction,Conductor*
G04 #@! TO.N,GND*
G36*
X151642121Y-133420002D02*
G01*
X151688614Y-133473658D01*
X151700000Y-133526000D01*
X151700000Y-135574000D01*
X151679998Y-135642121D01*
X151626342Y-135688614D01*
X151574000Y-135700000D01*
X149226000Y-135700000D01*
X149157879Y-135679998D01*
X149111386Y-135626342D01*
X149100000Y-135574000D01*
X149100000Y-133526000D01*
X149120002Y-133457879D01*
X149173658Y-133411386D01*
X149226000Y-133400000D01*
X151574000Y-133400000D01*
X151642121Y-133420002D01*
G37*
G04 #@! TD.AperFunction*
G04 #@! TD*
G04 #@! TA.AperFunction,Conductor*
G04 #@! TO.N,GND*
G36*
X157636121Y-139066002D02*
G01*
X157682614Y-139119658D01*
X157694000Y-139172000D01*
X157694000Y-140489884D01*
X157698475Y-140505123D01*
X157699865Y-140506328D01*
X157707548Y-140507999D01*
X157912095Y-140507999D01*
X157918614Y-140507662D01*
X158014206Y-140497743D01*
X158027600Y-140494851D01*
X158181784Y-140443412D01*
X158194962Y-140437239D01*
X158332807Y-140351937D01*
X158344208Y-140342901D01*
X158374827Y-140312229D01*
X158437110Y-140278150D01*
X158507930Y-140283153D01*
X158564803Y-140325651D01*
X158589671Y-140392150D01*
X158590000Y-140401247D01*
X158590000Y-141074000D01*
X158569998Y-141142121D01*
X158516342Y-141188614D01*
X158464000Y-141200000D01*
X156816000Y-141200000D01*
X156747879Y-141179998D01*
X156701386Y-141126342D01*
X156690000Y-141074000D01*
X156690000Y-140615380D01*
X156710002Y-140547259D01*
X156763658Y-140500766D01*
X156833932Y-140490662D01*
X156846976Y-140493738D01*
X156846985Y-140493696D01*
X156867086Y-140498005D01*
X156961438Y-140507672D01*
X156967854Y-140508000D01*
X157167885Y-140508000D01*
X157183124Y-140503525D01*
X157184329Y-140502135D01*
X157186000Y-140494452D01*
X157186000Y-139172000D01*
X157206002Y-139103879D01*
X157259658Y-139057386D01*
X157312000Y-139046000D01*
X157568000Y-139046000D01*
X157636121Y-139066002D01*
G37*
G04 #@! TD.AperFunction*
G04 #@! TD*
G04 #@! TA.AperFunction,Conductor*
G04 #@! TO.N,GND*
G36*
X148942494Y-125020002D02*
G01*
X148988987Y-125073658D01*
X148999091Y-125143932D01*
X148993966Y-125165668D01*
X148944862Y-125313710D01*
X148941995Y-125327086D01*
X148932328Y-125421438D01*
X148932000Y-125427855D01*
X148932000Y-125627885D01*
X148936475Y-125643124D01*
X148937865Y-125644329D01*
X148945548Y-125646000D01*
X150268000Y-125646000D01*
X150336121Y-125666002D01*
X150382614Y-125719658D01*
X150394000Y-125772000D01*
X150394000Y-126028000D01*
X150373998Y-126096121D01*
X150320342Y-126142614D01*
X150268000Y-126154000D01*
X148950116Y-126154000D01*
X148934877Y-126158475D01*
X148933672Y-126159865D01*
X148932001Y-126167548D01*
X148932001Y-126372095D01*
X148932338Y-126378614D01*
X148942257Y-126474206D01*
X148945150Y-126487603D01*
X148994032Y-126634125D01*
X148996616Y-126705074D01*
X148960432Y-126766158D01*
X148896967Y-126797982D01*
X148874508Y-126800000D01*
X148416000Y-126800000D01*
X148347879Y-126779998D01*
X148301386Y-126726342D01*
X148290000Y-126674000D01*
X148290000Y-125126000D01*
X148310002Y-125057879D01*
X148363658Y-125011386D01*
X148416000Y-125000000D01*
X148874373Y-125000000D01*
X148942494Y-125020002D01*
G37*
G04 #@! TD.AperFunction*
G04 #@! TD*
G04 #@! TA.AperFunction,Conductor*
G04 #@! TO.N,GND*
G36*
X187787121Y-133020002D02*
G01*
X187833614Y-133073658D01*
X187845000Y-133126000D01*
X187845000Y-134074000D01*
X187824998Y-134142121D01*
X187771342Y-134188614D01*
X187719000Y-134200000D01*
X186871000Y-134200000D01*
X186802879Y-134179998D01*
X186756386Y-134126342D01*
X186745000Y-134074000D01*
X186745000Y-133126000D01*
X186765002Y-133057879D01*
X186818658Y-133011386D01*
X186871000Y-133000000D01*
X187719000Y-133000000D01*
X187787121Y-133020002D01*
G37*
G04 #@! TD.AperFunction*
G04 #@! TD*
G04 #@! TA.AperFunction,Conductor*
G04 #@! TO.N,GND*
G36*
X177252121Y-138730002D02*
G01*
X177298614Y-138783658D01*
X177310000Y-138836000D01*
X177310000Y-139784000D01*
X177289998Y-139852121D01*
X177236342Y-139898614D01*
X177184000Y-139910000D01*
X176336000Y-139910000D01*
X176267879Y-139889998D01*
X176221386Y-139836342D01*
X176210000Y-139784000D01*
X176210000Y-138836000D01*
X176230002Y-138767879D01*
X176283658Y-138721386D01*
X176336000Y-138710000D01*
X177184000Y-138710000D01*
X177252121Y-138730002D01*
G37*
G04 #@! TD.AperFunction*
G04 #@! TD*
G04 #@! TA.AperFunction,Conductor*
G04 #@! TO.N,+3V3*
G36*
X181982121Y-138460002D02*
G01*
X182028614Y-138513658D01*
X182040000Y-138566000D01*
X182040000Y-139814000D01*
X182019998Y-139882121D01*
X181966342Y-139928614D01*
X181914000Y-139940000D01*
X180540000Y-139940000D01*
X180540000Y-140914000D01*
X180519998Y-140982121D01*
X180466342Y-141028614D01*
X180414000Y-141040000D01*
X179066000Y-141040000D01*
X178997879Y-141019998D01*
X178951386Y-140966342D01*
X178940000Y-140914000D01*
X178940000Y-139666000D01*
X178960002Y-139597879D01*
X179013658Y-139551386D01*
X179066000Y-139540000D01*
X180040000Y-139540000D01*
X180040000Y-138566000D01*
X180060002Y-138497879D01*
X180113658Y-138451386D01*
X180166000Y-138440000D01*
X181914000Y-138440000D01*
X181982121Y-138460002D01*
G37*
G04 #@! TD.AperFunction*
G04 #@! TD*
G04 #@! TA.AperFunction,Conductor*
G04 #@! TO.N,+5V*
G36*
X164852121Y-138330002D02*
G01*
X164898614Y-138383658D01*
X164910000Y-138436000D01*
X164910000Y-139784000D01*
X164889998Y-139852121D01*
X164836342Y-139898614D01*
X164784000Y-139910000D01*
X160036000Y-139910000D01*
X159967879Y-139889998D01*
X159921386Y-139836342D01*
X159910000Y-139784000D01*
X159910000Y-138436000D01*
X159930002Y-138367879D01*
X159983658Y-138321386D01*
X160036000Y-138310000D01*
X164784000Y-138310000D01*
X164852121Y-138330002D01*
G37*
G04 #@! TD.AperFunction*
G04 #@! TD*
M02*
