G04 #@! TF.GenerationSoftware,KiCad,Pcbnew,(6.0.4)*
G04 #@! TF.CreationDate,2022-07-05T08:29:47+02:00*
G04 #@! TF.ProjectId,esp32-spi-hub,65737033-322d-4737-9069-2d6875622e6b,rev?*
G04 #@! TF.SameCoordinates,Original*
G04 #@! TF.FileFunction,Legend,Bot*
G04 #@! TF.FilePolarity,Positive*
%FSLAX46Y46*%
G04 Gerber Fmt 4.6, Leading zero omitted, Abs format (unit mm)*
G04 Created by KiCad (PCBNEW (6.0.4)) date 2022-07-05 08:29:47*
%MOMM*%
%LPD*%
G01*
G04 APERTURE LIST*
%ADD10C,0.100000*%
%ADD11C,0.010000*%
G04 APERTURE END LIST*
D10*
X169160238Y-127961904D02*
X168665000Y-127961904D01*
X168931666Y-128266666D01*
X168817380Y-128266666D01*
X168741190Y-128304761D01*
X168703095Y-128342857D01*
X168665000Y-128419047D01*
X168665000Y-128609523D01*
X168703095Y-128685714D01*
X168741190Y-128723809D01*
X168817380Y-128761904D01*
X169045952Y-128761904D01*
X169122142Y-128723809D01*
X169160238Y-128685714D01*
X168436428Y-127961904D02*
X168169761Y-128761904D01*
X167903095Y-127961904D01*
X167712619Y-127961904D02*
X167217380Y-127961904D01*
X167484047Y-128266666D01*
X167369761Y-128266666D01*
X167293571Y-128304761D01*
X167255476Y-128342857D01*
X167217380Y-128419047D01*
X167217380Y-128609523D01*
X167255476Y-128685714D01*
X167293571Y-128723809D01*
X167369761Y-128761904D01*
X167598333Y-128761904D01*
X167674523Y-128723809D01*
X167712619Y-128685714D01*
X168855476Y-126761904D02*
X168855476Y-125961904D01*
X168322142Y-125961904D02*
X168169761Y-125961904D01*
X168093571Y-126000000D01*
X168017380Y-126076190D01*
X167979285Y-126228571D01*
X167979285Y-126495238D01*
X168017380Y-126647619D01*
X168093571Y-126723809D01*
X168169761Y-126761904D01*
X168322142Y-126761904D01*
X168398333Y-126723809D01*
X168474523Y-126647619D01*
X168512619Y-126495238D01*
X168512619Y-126228571D01*
X168474523Y-126076190D01*
X168398333Y-126000000D01*
X168322142Y-125961904D01*
X167255476Y-125961904D02*
X167636428Y-125961904D01*
X167674523Y-126342857D01*
X167636428Y-126304761D01*
X167560238Y-126266666D01*
X167369761Y-126266666D01*
X167293571Y-126304761D01*
X167255476Y-126342857D01*
X167217380Y-126419047D01*
X167217380Y-126609523D01*
X167255476Y-126685714D01*
X167293571Y-126723809D01*
X167369761Y-126761904D01*
X167560238Y-126761904D01*
X167636428Y-126723809D01*
X167674523Y-126685714D01*
X169617380Y-124761904D02*
X169617380Y-123961904D01*
X169084047Y-123961904D02*
X168931666Y-123961904D01*
X168855476Y-124000000D01*
X168779285Y-124076190D01*
X168741190Y-124228571D01*
X168741190Y-124495238D01*
X168779285Y-124647619D01*
X168855476Y-124723809D01*
X168931666Y-124761904D01*
X169084047Y-124761904D01*
X169160238Y-124723809D01*
X169236428Y-124647619D01*
X169274523Y-124495238D01*
X169274523Y-124228571D01*
X169236428Y-124076190D01*
X169160238Y-124000000D01*
X169084047Y-123961904D01*
X167979285Y-124761904D02*
X168436428Y-124761904D01*
X168207857Y-124761904D02*
X168207857Y-123961904D01*
X168284047Y-124076190D01*
X168360238Y-124152380D01*
X168436428Y-124190476D01*
X167255476Y-123961904D02*
X167636428Y-123961904D01*
X167674523Y-124342857D01*
X167636428Y-124304761D01*
X167560238Y-124266666D01*
X167369761Y-124266666D01*
X167293571Y-124304761D01*
X167255476Y-124342857D01*
X167217380Y-124419047D01*
X167217380Y-124609523D01*
X167255476Y-124685714D01*
X167293571Y-124723809D01*
X167369761Y-124761904D01*
X167560238Y-124761904D01*
X167636428Y-124723809D01*
X167674523Y-124685714D01*
X167941190Y-131961904D02*
X168322142Y-131961904D01*
X168360238Y-132342857D01*
X168322142Y-132304761D01*
X168245952Y-132266666D01*
X168055476Y-132266666D01*
X167979285Y-132304761D01*
X167941190Y-132342857D01*
X167903095Y-132419047D01*
X167903095Y-132609523D01*
X167941190Y-132685714D01*
X167979285Y-132723809D01*
X168055476Y-132761904D01*
X168245952Y-132761904D01*
X168322142Y-132723809D01*
X168360238Y-132685714D01*
X167674523Y-131961904D02*
X167407857Y-132761904D01*
X167141190Y-131961904D01*
X169617380Y-122861904D02*
X169617380Y-122061904D01*
X169084047Y-122061904D02*
X168931666Y-122061904D01*
X168855476Y-122100000D01*
X168779285Y-122176190D01*
X168741190Y-122328571D01*
X168741190Y-122595238D01*
X168779285Y-122747619D01*
X168855476Y-122823809D01*
X168931666Y-122861904D01*
X169084047Y-122861904D01*
X169160238Y-122823809D01*
X169236428Y-122747619D01*
X169274523Y-122595238D01*
X169274523Y-122328571D01*
X169236428Y-122176190D01*
X169160238Y-122100000D01*
X169084047Y-122061904D01*
X167979285Y-122861904D02*
X168436428Y-122861904D01*
X168207857Y-122861904D02*
X168207857Y-122061904D01*
X168284047Y-122176190D01*
X168360238Y-122252380D01*
X168436428Y-122290476D01*
X167293571Y-122061904D02*
X167445952Y-122061904D01*
X167522142Y-122100000D01*
X167560238Y-122138095D01*
X167636428Y-122252380D01*
X167674523Y-122404761D01*
X167674523Y-122709523D01*
X167636428Y-122785714D01*
X167598333Y-122823809D01*
X167522142Y-122861904D01*
X167369761Y-122861904D01*
X167293571Y-122823809D01*
X167255476Y-122785714D01*
X167217380Y-122709523D01*
X167217380Y-122519047D01*
X167255476Y-122442857D01*
X167293571Y-122404761D01*
X167369761Y-122366666D01*
X167522142Y-122366666D01*
X167598333Y-122404761D01*
X167636428Y-122442857D01*
X167674523Y-122519047D01*
X169617380Y-120761904D02*
X169617380Y-119961904D01*
X169084047Y-119961904D02*
X168931666Y-119961904D01*
X168855476Y-120000000D01*
X168779285Y-120076190D01*
X168741190Y-120228571D01*
X168741190Y-120495238D01*
X168779285Y-120647619D01*
X168855476Y-120723809D01*
X168931666Y-120761904D01*
X169084047Y-120761904D01*
X169160238Y-120723809D01*
X169236428Y-120647619D01*
X169274523Y-120495238D01*
X169274523Y-120228571D01*
X169236428Y-120076190D01*
X169160238Y-120000000D01*
X169084047Y-119961904D01*
X167979285Y-120761904D02*
X168436428Y-120761904D01*
X168207857Y-120761904D02*
X168207857Y-119961904D01*
X168284047Y-120076190D01*
X168360238Y-120152380D01*
X168436428Y-120190476D01*
X167712619Y-119961904D02*
X167179285Y-119961904D01*
X167522142Y-120761904D01*
X168893571Y-130000000D02*
X168969761Y-129961904D01*
X169084047Y-129961904D01*
X169198333Y-130000000D01*
X169274523Y-130076190D01*
X169312619Y-130152380D01*
X169350714Y-130304761D01*
X169350714Y-130419047D01*
X169312619Y-130571428D01*
X169274523Y-130647619D01*
X169198333Y-130723809D01*
X169084047Y-130761904D01*
X169007857Y-130761904D01*
X168893571Y-130723809D01*
X168855476Y-130685714D01*
X168855476Y-130419047D01*
X169007857Y-130419047D01*
X168512619Y-130761904D02*
X168512619Y-129961904D01*
X168055476Y-130761904D01*
X168055476Y-129961904D01*
X167674523Y-130761904D02*
X167674523Y-129961904D01*
X167484047Y-129961904D01*
X167369761Y-130000000D01*
X167293571Y-130076190D01*
X167255476Y-130152380D01*
X167217380Y-130304761D01*
X167217380Y-130419047D01*
X167255476Y-130571428D01*
X167293571Y-130647619D01*
X167369761Y-130723809D01*
X167484047Y-130761904D01*
X167674523Y-130761904D01*
X177693571Y-118761904D02*
X177693571Y-118228571D01*
X177693571Y-117961904D02*
X177731666Y-118000000D01*
X177693571Y-118038095D01*
X177655476Y-118000000D01*
X177693571Y-117961904D01*
X177693571Y-118038095D01*
X177312619Y-118228571D02*
X177312619Y-118761904D01*
X177312619Y-118304761D02*
X177274523Y-118266666D01*
X177198333Y-118228571D01*
X177084047Y-118228571D01*
X177007857Y-118266666D01*
X176969761Y-118342857D01*
X176969761Y-118761904D01*
X176588809Y-118228571D02*
X176588809Y-119028571D01*
X176588809Y-118266666D02*
X176512619Y-118228571D01*
X176360238Y-118228571D01*
X176284047Y-118266666D01*
X176245952Y-118304761D01*
X176207857Y-118380952D01*
X176207857Y-118609523D01*
X176245952Y-118685714D01*
X176284047Y-118723809D01*
X176360238Y-118761904D01*
X176512619Y-118761904D01*
X176588809Y-118723809D01*
X175522142Y-118228571D02*
X175522142Y-118761904D01*
X175865000Y-118228571D02*
X175865000Y-118647619D01*
X175826904Y-118723809D01*
X175750714Y-118761904D01*
X175636428Y-118761904D01*
X175560238Y-118723809D01*
X175522142Y-118685714D01*
X175255476Y-118228571D02*
X174950714Y-118228571D01*
X175141190Y-117961904D02*
X175141190Y-118647619D01*
X175103095Y-118723809D01*
X175026904Y-118761904D01*
X174950714Y-118761904D01*
X173960238Y-118761904D02*
X174036428Y-118723809D01*
X174074523Y-118685714D01*
X174112619Y-118609523D01*
X174112619Y-118380952D01*
X174074523Y-118304761D01*
X174036428Y-118266666D01*
X173960238Y-118228571D01*
X173845952Y-118228571D01*
X173769761Y-118266666D01*
X173731666Y-118304761D01*
X173693571Y-118380952D01*
X173693571Y-118609523D01*
X173731666Y-118685714D01*
X173769761Y-118723809D01*
X173845952Y-118761904D01*
X173960238Y-118761904D01*
X173350714Y-118228571D02*
X173350714Y-118761904D01*
X173350714Y-118304761D02*
X173312619Y-118266666D01*
X173236428Y-118228571D01*
X173122142Y-118228571D01*
X173045952Y-118266666D01*
X173007857Y-118342857D01*
X173007857Y-118761904D01*
X172512619Y-118761904D02*
X172588809Y-118723809D01*
X172626904Y-118647619D01*
X172626904Y-117961904D01*
X172284047Y-118228571D02*
X172093571Y-118761904D01*
X171903095Y-118228571D02*
X172093571Y-118761904D01*
X172169761Y-118952380D01*
X172207857Y-118990476D01*
X172284047Y-119028571D01*
X171598333Y-118457142D02*
X170988809Y-118457142D01*
X170607857Y-118228571D02*
X169998333Y-118457142D01*
X170607857Y-118685714D01*
X169617380Y-118761904D02*
X169617380Y-117961904D01*
X169084047Y-117961904D02*
X168931666Y-117961904D01*
X168855476Y-118000000D01*
X168779285Y-118076190D01*
X168741190Y-118228571D01*
X168741190Y-118495238D01*
X168779285Y-118647619D01*
X168855476Y-118723809D01*
X168931666Y-118761904D01*
X169084047Y-118761904D01*
X169160238Y-118723809D01*
X169236428Y-118647619D01*
X169274523Y-118495238D01*
X169274523Y-118228571D01*
X169236428Y-118076190D01*
X169160238Y-118000000D01*
X169084047Y-117961904D01*
X168474523Y-117961904D02*
X167979285Y-117961904D01*
X168245952Y-118266666D01*
X168131666Y-118266666D01*
X168055476Y-118304761D01*
X168017380Y-118342857D01*
X167979285Y-118419047D01*
X167979285Y-118609523D01*
X168017380Y-118685714D01*
X168055476Y-118723809D01*
X168131666Y-118761904D01*
X168360238Y-118761904D01*
X168436428Y-118723809D01*
X168474523Y-118685714D01*
X167255476Y-117961904D02*
X167636428Y-117961904D01*
X167674523Y-118342857D01*
X167636428Y-118304761D01*
X167560238Y-118266666D01*
X167369761Y-118266666D01*
X167293571Y-118304761D01*
X167255476Y-118342857D01*
X167217380Y-118419047D01*
X167217380Y-118609523D01*
X167255476Y-118685714D01*
X167293571Y-118723809D01*
X167369761Y-118761904D01*
X167560238Y-118761904D01*
X167636428Y-118723809D01*
X167674523Y-118685714D01*
G04 #@! TO.C,REF\u002A\u002A*
G36*
X186672971Y-125017822D02*
G01*
X183152178Y-125017822D01*
X183152178Y-124150198D01*
X186672971Y-124150198D01*
X186672971Y-125017822D01*
G37*
D11*
X186672971Y-125017822D02*
X183152178Y-125017822D01*
X183152178Y-124150198D01*
X186672971Y-124150198D01*
X186672971Y-125017822D01*
G36*
X185911662Y-119760696D02*
G01*
X185951314Y-119761782D01*
X186019109Y-119761782D01*
X186019109Y-119874951D01*
X185859577Y-119874951D01*
X185844682Y-120052732D01*
X185842682Y-120077037D01*
X185838023Y-120137880D01*
X185834731Y-120187389D01*
X185833092Y-120220992D01*
X185833390Y-120234116D01*
X185837724Y-120230343D01*
X185857496Y-120210676D01*
X185891679Y-120175818D01*
X185938541Y-120127576D01*
X185996354Y-120067757D01*
X186063387Y-119998167D01*
X186137912Y-119920615D01*
X186218197Y-119836907D01*
X186302513Y-119748849D01*
X186389130Y-119658250D01*
X186476319Y-119566915D01*
X186562349Y-119476653D01*
X186645492Y-119389269D01*
X186724016Y-119306572D01*
X186796192Y-119230368D01*
X186860291Y-119162463D01*
X186914583Y-119104666D01*
X187011592Y-119001040D01*
X187012034Y-119089315D01*
X187012475Y-119177589D01*
X186411938Y-119809158D01*
X185811401Y-120440726D01*
X185799396Y-120584674D01*
X185751365Y-121160635D01*
X185742876Y-121262791D01*
X185732343Y-121390612D01*
X185722621Y-121509767D01*
X185713898Y-121617914D01*
X185706358Y-121712713D01*
X185700187Y-121791819D01*
X185695573Y-121852892D01*
X185692700Y-121893590D01*
X185691754Y-121911570D01*
X185694251Y-121919808D01*
X185705471Y-121937599D01*
X185726751Y-121964411D01*
X185737021Y-121976129D01*
X185759225Y-122001466D01*
X185804023Y-122049986D01*
X185862281Y-122111192D01*
X185935129Y-122186307D01*
X186023703Y-122276550D01*
X186129134Y-122383145D01*
X186198492Y-122453093D01*
X186295179Y-122550658D01*
X186391526Y-122647941D01*
X186484638Y-122742014D01*
X186571618Y-122829950D01*
X186649569Y-122908820D01*
X186715596Y-122975699D01*
X186766802Y-123027658D01*
X186967514Y-123231620D01*
X186931058Y-123269671D01*
X186922460Y-123278245D01*
X186897095Y-123299297D01*
X186879695Y-123307723D01*
X186866071Y-123300530D01*
X186840743Y-123278944D01*
X186810379Y-123247995D01*
X186791896Y-123228448D01*
X186757427Y-123192752D01*
X186708712Y-123142684D01*
X186647469Y-123080001D01*
X186575420Y-123006457D01*
X186494285Y-122923810D01*
X186405784Y-122833815D01*
X186311637Y-122738228D01*
X186213565Y-122638805D01*
X185671161Y-122089343D01*
X185649066Y-122374746D01*
X185644250Y-122435662D01*
X185637216Y-122517548D01*
X185630872Y-122579569D01*
X185624748Y-122624987D01*
X185618373Y-122657062D01*
X185611277Y-122679052D01*
X185602991Y-122694219D01*
X185591393Y-122715416D01*
X185581850Y-122754386D01*
X185579010Y-122810531D01*
X185579010Y-122892773D01*
X185352674Y-122892773D01*
X185352674Y-122716733D01*
X184507082Y-122716733D01*
X184458203Y-122772262D01*
X184444836Y-122786722D01*
X184372388Y-122844813D01*
X184290532Y-122880576D01*
X184201900Y-122892773D01*
X184123692Y-122886306D01*
X184035233Y-122859047D01*
X183959507Y-122810328D01*
X183944748Y-122796403D01*
X183907864Y-122751328D01*
X183875503Y-122698819D01*
X183852297Y-122647061D01*
X183842879Y-122604239D01*
X183842697Y-122598023D01*
X183841342Y-122575246D01*
X183837800Y-122559513D01*
X183830390Y-122552068D01*
X183817431Y-122554156D01*
X183797243Y-122567020D01*
X183768145Y-122591905D01*
X183728456Y-122630053D01*
X183676496Y-122682710D01*
X183610584Y-122751119D01*
X183529040Y-122836524D01*
X183485604Y-122882112D01*
X183413000Y-122958441D01*
X183344309Y-123030808D01*
X183282223Y-123096366D01*
X183229434Y-123152274D01*
X183188634Y-123195686D01*
X183162515Y-123223758D01*
X183091119Y-123301436D01*
X183002863Y-123213416D01*
X183548690Y-122641287D01*
X183583105Y-122605188D01*
X183705546Y-122476272D01*
X183810651Y-122364754D01*
X183898736Y-122270288D01*
X183970116Y-122192529D01*
X184020588Y-122136174D01*
X184227247Y-122136174D01*
X184228872Y-122149434D01*
X184229156Y-122150819D01*
X184242698Y-122182228D01*
X184269748Y-122196863D01*
X184353129Y-122228063D01*
X184427418Y-122280038D01*
X184485846Y-122348791D01*
X184525890Y-122431315D01*
X184545026Y-122524606D01*
X184551364Y-122603565D01*
X185500838Y-122603565D01*
X185507458Y-122575273D01*
X185508629Y-122568329D01*
X185512268Y-122537281D01*
X185517234Y-122487081D01*
X185523157Y-122421727D01*
X185529669Y-122345219D01*
X185536401Y-122261555D01*
X185558724Y-121976129D01*
X185257826Y-121670565D01*
X185202636Y-121614704D01*
X185135109Y-121546888D01*
X185074529Y-121486643D01*
X185023021Y-121436052D01*
X184982710Y-121397200D01*
X184955722Y-121372170D01*
X184944182Y-121363046D01*
X184936444Y-121367405D01*
X184913395Y-121387241D01*
X184878709Y-121420375D01*
X184835487Y-121463820D01*
X184786832Y-121514587D01*
X184774140Y-121528051D01*
X184717229Y-121588275D01*
X184649414Y-121659864D01*
X184575800Y-121737437D01*
X184501493Y-121815611D01*
X184431599Y-121889005D01*
X184427401Y-121893409D01*
X184362420Y-121961785D01*
X184312836Y-122014732D01*
X184276688Y-122054767D01*
X184252016Y-122084411D01*
X184236858Y-122106181D01*
X184229256Y-122122595D01*
X184227247Y-122136174D01*
X184020588Y-122136174D01*
X184025105Y-122131131D01*
X184064019Y-122085748D01*
X184087173Y-122056035D01*
X184094882Y-122041644D01*
X184094883Y-122041559D01*
X184093825Y-122023624D01*
X184090737Y-121983421D01*
X184085858Y-121923687D01*
X184079432Y-121847158D01*
X184071700Y-121756569D01*
X184062905Y-121654657D01*
X184053287Y-121544159D01*
X184043091Y-121427811D01*
X184032556Y-121308348D01*
X184021926Y-121188507D01*
X184011442Y-121071025D01*
X184001346Y-120958637D01*
X183991881Y-120854081D01*
X183983288Y-120760091D01*
X183975809Y-120679405D01*
X183969687Y-120614759D01*
X183965162Y-120568888D01*
X183962478Y-120544530D01*
X183957067Y-120503732D01*
X184086253Y-120503732D01*
X184087908Y-120534653D01*
X184091549Y-120586653D01*
X184096995Y-120657487D01*
X184104063Y-120744911D01*
X184112570Y-120846681D01*
X184122335Y-120960552D01*
X184133174Y-121084279D01*
X184144907Y-121215618D01*
X184154079Y-121316908D01*
X184165566Y-121442526D01*
X184176322Y-121558762D01*
X184186131Y-121663380D01*
X184194781Y-121754140D01*
X184202057Y-121828804D01*
X184207746Y-121885134D01*
X184211634Y-121920891D01*
X184213506Y-121933837D01*
X184219188Y-121929826D01*
X184240020Y-121910138D01*
X184273872Y-121876322D01*
X184318412Y-121830837D01*
X184371310Y-121776146D01*
X184430236Y-121714710D01*
X184492858Y-121648990D01*
X184556848Y-121581449D01*
X184619874Y-121514547D01*
X184679606Y-121450746D01*
X184733713Y-121392507D01*
X184779865Y-121342292D01*
X184815733Y-121302563D01*
X184838984Y-121275780D01*
X184845778Y-121266477D01*
X185027601Y-121266477D01*
X185303305Y-121541968D01*
X185370726Y-121609224D01*
X185434267Y-121672162D01*
X185483490Y-121720100D01*
X185520196Y-121754594D01*
X185546190Y-121777199D01*
X185563276Y-121789471D01*
X185573256Y-121792966D01*
X185577935Y-121789238D01*
X185579116Y-121779844D01*
X185579873Y-121764749D01*
X185582601Y-121725883D01*
X185587108Y-121666895D01*
X185593179Y-121590473D01*
X185600596Y-121499305D01*
X185609142Y-121396080D01*
X185618602Y-121283483D01*
X185628758Y-121164205D01*
X185637723Y-121059077D01*
X185647066Y-120948351D01*
X185655443Y-120847814D01*
X185662653Y-120759943D01*
X185668496Y-120687215D01*
X185672769Y-120632110D01*
X185675273Y-120597104D01*
X185675805Y-120584674D01*
X185675384Y-120584908D01*
X185663509Y-120596350D01*
X185637130Y-120623198D01*
X185598570Y-120663018D01*
X185550153Y-120713372D01*
X185494203Y-120771828D01*
X185433042Y-120835948D01*
X185368995Y-120903298D01*
X185304385Y-120971443D01*
X185241535Y-121037948D01*
X185182768Y-121100377D01*
X185130409Y-121156295D01*
X185029533Y-121264406D01*
X185027601Y-121266477D01*
X184845778Y-121266477D01*
X184847290Y-121264406D01*
X184839148Y-121253383D01*
X184815478Y-121226999D01*
X184778478Y-121187527D01*
X184730350Y-121137191D01*
X184673296Y-121078217D01*
X184609520Y-121012830D01*
X184541222Y-120943255D01*
X184470605Y-120871716D01*
X184399871Y-120800438D01*
X184331222Y-120731647D01*
X184266861Y-120667566D01*
X184208989Y-120610422D01*
X184159810Y-120562439D01*
X184121524Y-120525841D01*
X184096334Y-120502854D01*
X184086442Y-120495703D01*
X184086253Y-120503732D01*
X183957067Y-120503732D01*
X183955390Y-120491089D01*
X183680297Y-120491089D01*
X183680140Y-120390495D01*
X183780891Y-120390495D01*
X183862624Y-120390495D01*
X183869895Y-120390489D01*
X183910950Y-120389613D01*
X183933277Y-120385867D01*
X183942529Y-120377270D01*
X183944357Y-120361840D01*
X183936306Y-120339159D01*
X183908730Y-120301428D01*
X183862624Y-120252179D01*
X183780891Y-120171172D01*
X183780891Y-120390495D01*
X183680140Y-120390495D01*
X183679968Y-120280471D01*
X183679639Y-120069852D01*
X183227914Y-119610891D01*
X182776189Y-119151931D01*
X182775570Y-119064848D01*
X182774951Y-118977767D01*
X183316769Y-119526952D01*
X183369137Y-119579998D01*
X183477803Y-119689772D01*
X183570709Y-119783114D01*
X183649055Y-119861173D01*
X183714043Y-119925097D01*
X183766872Y-119976035D01*
X183808743Y-120015135D01*
X183840855Y-120043548D01*
X183864410Y-120062420D01*
X183880608Y-120072901D01*
X183890649Y-120076139D01*
X183907579Y-120075158D01*
X183917084Y-120067996D01*
X183918723Y-120048401D01*
X183914782Y-120010124D01*
X183912065Y-119986025D01*
X183908284Y-119945744D01*
X183906760Y-119918961D01*
X183906015Y-119909728D01*
X183898746Y-119899839D01*
X183878668Y-119896562D01*
X183839689Y-119897992D01*
X183829737Y-119898553D01*
X183789898Y-119897921D01*
X183761560Y-119889167D01*
X183741586Y-119874951D01*
X184024852Y-119874951D01*
X184029013Y-119922104D01*
X184030935Y-119943498D01*
X184036924Y-120001909D01*
X184042826Y-120040381D01*
X184049727Y-120062912D01*
X184058712Y-120073498D01*
X184070870Y-120076139D01*
X184081801Y-120077937D01*
X184089050Y-120086530D01*
X184093100Y-120106505D01*
X184094863Y-120142450D01*
X184095248Y-120198952D01*
X184095248Y-120321766D01*
X184135447Y-120361840D01*
X184233565Y-120459654D01*
X184371881Y-120597542D01*
X184371881Y-120491089D01*
X185126337Y-120491089D01*
X185126337Y-120730000D01*
X184507831Y-120730000D01*
X184717592Y-120946906D01*
X184757770Y-120988334D01*
X184813328Y-121045200D01*
X184861570Y-121094082D01*
X184899971Y-121132441D01*
X184926003Y-121157741D01*
X184937140Y-121167442D01*
X184941373Y-121164767D01*
X184961224Y-121146782D01*
X184995451Y-121113481D01*
X185042227Y-121066712D01*
X185099724Y-121008325D01*
X185166112Y-120940169D01*
X185239564Y-120864094D01*
X185318251Y-120781950D01*
X185397341Y-120698943D01*
X185474871Y-120617136D01*
X185537746Y-120550083D01*
X185587502Y-120496007D01*
X185625678Y-120453129D01*
X185653811Y-120419673D01*
X185673440Y-120393861D01*
X185686101Y-120373914D01*
X185693334Y-120358056D01*
X185696675Y-120344509D01*
X185697561Y-120337910D01*
X185701488Y-120301548D01*
X185706459Y-120248018D01*
X185711927Y-120183421D01*
X185717344Y-120113862D01*
X185719181Y-120089635D01*
X185724488Y-120024178D01*
X185729548Y-119967717D01*
X185733863Y-119925618D01*
X185736934Y-119903243D01*
X185742955Y-119874951D01*
X184024852Y-119874951D01*
X183741586Y-119874951D01*
X183733630Y-119869289D01*
X183728820Y-119865104D01*
X183689482Y-119814427D01*
X183673903Y-119761782D01*
X184014698Y-119761782D01*
X185429221Y-119761782D01*
X185641881Y-119761782D01*
X185698908Y-119761782D01*
X185715993Y-119761662D01*
X185741308Y-119759462D01*
X185748616Y-119752334D01*
X185742943Y-119737508D01*
X185741267Y-119734682D01*
X185722448Y-119712944D01*
X185695183Y-119688820D01*
X185667987Y-119669254D01*
X185649371Y-119661188D01*
X185647697Y-119662463D01*
X185643544Y-119679976D01*
X185641881Y-119711485D01*
X185641881Y-119761782D01*
X185429221Y-119761782D01*
X185425526Y-119671095D01*
X185421832Y-119580407D01*
X185346386Y-119565252D01*
X185308551Y-119558379D01*
X185245368Y-119548756D01*
X185186065Y-119541496D01*
X185101188Y-119532893D01*
X185101188Y-119636040D01*
X184522773Y-119636040D01*
X184522773Y-119545122D01*
X184450471Y-119553753D01*
X184339998Y-119572249D01*
X184228816Y-119605691D01*
X184136850Y-119652324D01*
X184062542Y-119712786D01*
X184014698Y-119761782D01*
X183673903Y-119761782D01*
X183672172Y-119755934D01*
X183677474Y-119694575D01*
X183705975Y-119635297D01*
X183708733Y-119631606D01*
X183746822Y-119599851D01*
X183796476Y-119581067D01*
X183850002Y-119576071D01*
X183899707Y-119585678D01*
X183937900Y-119610704D01*
X183950831Y-119623480D01*
X183963428Y-119626576D01*
X183981467Y-119616998D01*
X184011928Y-119593082D01*
X184021274Y-119585731D01*
X184093430Y-119539339D01*
X184178915Y-119498084D01*
X184248830Y-119472575D01*
X184623367Y-119472575D01*
X184623367Y-119535446D01*
X185000594Y-119535446D01*
X185000594Y-119472575D01*
X184623367Y-119472575D01*
X184248830Y-119472575D01*
X184269767Y-119464936D01*
X184358027Y-119442868D01*
X184435736Y-119434852D01*
X184443991Y-119434788D01*
X184489879Y-119430321D01*
X184515079Y-119417795D01*
X184522773Y-119395784D01*
X184523676Y-119388849D01*
X184528615Y-119382885D01*
X184540611Y-119378519D01*
X184562680Y-119375503D01*
X184597836Y-119373590D01*
X184649094Y-119372530D01*
X184719471Y-119372077D01*
X184811980Y-119371980D01*
X184898660Y-119372150D01*
X184972332Y-119372834D01*
X185026265Y-119374215D01*
X185063288Y-119376470D01*
X185086230Y-119379778D01*
X185097920Y-119384320D01*
X185101188Y-119390272D01*
X185111937Y-119404888D01*
X185142055Y-119414215D01*
X185153582Y-119415847D01*
X185192886Y-119421591D01*
X185245188Y-119429378D01*
X185302376Y-119438003D01*
X185333916Y-119442393D01*
X185380074Y-119447148D01*
X185412641Y-119448295D01*
X185426023Y-119445495D01*
X185428308Y-119443671D01*
X185449405Y-119439165D01*
X185487355Y-119436029D01*
X185536048Y-119434852D01*
X185641881Y-119434852D01*
X185641894Y-119472575D01*
X185641894Y-119475718D01*
X185642388Y-119488668D01*
X185648819Y-119510411D01*
X185667123Y-119528851D01*
X185702830Y-119550801D01*
X185734174Y-119570854D01*
X185781893Y-119609356D01*
X185825138Y-119652579D01*
X185858219Y-119694627D01*
X185875442Y-119729604D01*
X185879662Y-119743081D01*
X185887480Y-119752334D01*
X185890116Y-119755454D01*
X185911662Y-119760696D01*
G37*
X185911662Y-119760696D02*
X185951314Y-119761782D01*
X186019109Y-119761782D01*
X186019109Y-119874951D01*
X185859577Y-119874951D01*
X185844682Y-120052732D01*
X185842682Y-120077037D01*
X185838023Y-120137880D01*
X185834731Y-120187389D01*
X185833092Y-120220992D01*
X185833390Y-120234116D01*
X185837724Y-120230343D01*
X185857496Y-120210676D01*
X185891679Y-120175818D01*
X185938541Y-120127576D01*
X185996354Y-120067757D01*
X186063387Y-119998167D01*
X186137912Y-119920615D01*
X186218197Y-119836907D01*
X186302513Y-119748849D01*
X186389130Y-119658250D01*
X186476319Y-119566915D01*
X186562349Y-119476653D01*
X186645492Y-119389269D01*
X186724016Y-119306572D01*
X186796192Y-119230368D01*
X186860291Y-119162463D01*
X186914583Y-119104666D01*
X187011592Y-119001040D01*
X187012034Y-119089315D01*
X187012475Y-119177589D01*
X186411938Y-119809158D01*
X185811401Y-120440726D01*
X185799396Y-120584674D01*
X185751365Y-121160635D01*
X185742876Y-121262791D01*
X185732343Y-121390612D01*
X185722621Y-121509767D01*
X185713898Y-121617914D01*
X185706358Y-121712713D01*
X185700187Y-121791819D01*
X185695573Y-121852892D01*
X185692700Y-121893590D01*
X185691754Y-121911570D01*
X185694251Y-121919808D01*
X185705471Y-121937599D01*
X185726751Y-121964411D01*
X185737021Y-121976129D01*
X185759225Y-122001466D01*
X185804023Y-122049986D01*
X185862281Y-122111192D01*
X185935129Y-122186307D01*
X186023703Y-122276550D01*
X186129134Y-122383145D01*
X186198492Y-122453093D01*
X186295179Y-122550658D01*
X186391526Y-122647941D01*
X186484638Y-122742014D01*
X186571618Y-122829950D01*
X186649569Y-122908820D01*
X186715596Y-122975699D01*
X186766802Y-123027658D01*
X186967514Y-123231620D01*
X186931058Y-123269671D01*
X186922460Y-123278245D01*
X186897095Y-123299297D01*
X186879695Y-123307723D01*
X186866071Y-123300530D01*
X186840743Y-123278944D01*
X186810379Y-123247995D01*
X186791896Y-123228448D01*
X186757427Y-123192752D01*
X186708712Y-123142684D01*
X186647469Y-123080001D01*
X186575420Y-123006457D01*
X186494285Y-122923810D01*
X186405784Y-122833815D01*
X186311637Y-122738228D01*
X186213565Y-122638805D01*
X185671161Y-122089343D01*
X185649066Y-122374746D01*
X185644250Y-122435662D01*
X185637216Y-122517548D01*
X185630872Y-122579569D01*
X185624748Y-122624987D01*
X185618373Y-122657062D01*
X185611277Y-122679052D01*
X185602991Y-122694219D01*
X185591393Y-122715416D01*
X185581850Y-122754386D01*
X185579010Y-122810531D01*
X185579010Y-122892773D01*
X185352674Y-122892773D01*
X185352674Y-122716733D01*
X184507082Y-122716733D01*
X184458203Y-122772262D01*
X184444836Y-122786722D01*
X184372388Y-122844813D01*
X184290532Y-122880576D01*
X184201900Y-122892773D01*
X184123692Y-122886306D01*
X184035233Y-122859047D01*
X183959507Y-122810328D01*
X183944748Y-122796403D01*
X183907864Y-122751328D01*
X183875503Y-122698819D01*
X183852297Y-122647061D01*
X183842879Y-122604239D01*
X183842697Y-122598023D01*
X183841342Y-122575246D01*
X183837800Y-122559513D01*
X183830390Y-122552068D01*
X183817431Y-122554156D01*
X183797243Y-122567020D01*
X183768145Y-122591905D01*
X183728456Y-122630053D01*
X183676496Y-122682710D01*
X183610584Y-122751119D01*
X183529040Y-122836524D01*
X183485604Y-122882112D01*
X183413000Y-122958441D01*
X183344309Y-123030808D01*
X183282223Y-123096366D01*
X183229434Y-123152274D01*
X183188634Y-123195686D01*
X183162515Y-123223758D01*
X183091119Y-123301436D01*
X183002863Y-123213416D01*
X183548690Y-122641287D01*
X183583105Y-122605188D01*
X183705546Y-122476272D01*
X183810651Y-122364754D01*
X183898736Y-122270288D01*
X183970116Y-122192529D01*
X184020588Y-122136174D01*
X184227247Y-122136174D01*
X184228872Y-122149434D01*
X184229156Y-122150819D01*
X184242698Y-122182228D01*
X184269748Y-122196863D01*
X184353129Y-122228063D01*
X184427418Y-122280038D01*
X184485846Y-122348791D01*
X184525890Y-122431315D01*
X184545026Y-122524606D01*
X184551364Y-122603565D01*
X185500838Y-122603565D01*
X185507458Y-122575273D01*
X185508629Y-122568329D01*
X185512268Y-122537281D01*
X185517234Y-122487081D01*
X185523157Y-122421727D01*
X185529669Y-122345219D01*
X185536401Y-122261555D01*
X185558724Y-121976129D01*
X185257826Y-121670565D01*
X185202636Y-121614704D01*
X185135109Y-121546888D01*
X185074529Y-121486643D01*
X185023021Y-121436052D01*
X184982710Y-121397200D01*
X184955722Y-121372170D01*
X184944182Y-121363046D01*
X184936444Y-121367405D01*
X184913395Y-121387241D01*
X184878709Y-121420375D01*
X184835487Y-121463820D01*
X184786832Y-121514587D01*
X184774140Y-121528051D01*
X184717229Y-121588275D01*
X184649414Y-121659864D01*
X184575800Y-121737437D01*
X184501493Y-121815611D01*
X184431599Y-121889005D01*
X184427401Y-121893409D01*
X184362420Y-121961785D01*
X184312836Y-122014732D01*
X184276688Y-122054767D01*
X184252016Y-122084411D01*
X184236858Y-122106181D01*
X184229256Y-122122595D01*
X184227247Y-122136174D01*
X184020588Y-122136174D01*
X184025105Y-122131131D01*
X184064019Y-122085748D01*
X184087173Y-122056035D01*
X184094882Y-122041644D01*
X184094883Y-122041559D01*
X184093825Y-122023624D01*
X184090737Y-121983421D01*
X184085858Y-121923687D01*
X184079432Y-121847158D01*
X184071700Y-121756569D01*
X184062905Y-121654657D01*
X184053287Y-121544159D01*
X184043091Y-121427811D01*
X184032556Y-121308348D01*
X184021926Y-121188507D01*
X184011442Y-121071025D01*
X184001346Y-120958637D01*
X183991881Y-120854081D01*
X183983288Y-120760091D01*
X183975809Y-120679405D01*
X183969687Y-120614759D01*
X183965162Y-120568888D01*
X183962478Y-120544530D01*
X183957067Y-120503732D01*
X184086253Y-120503732D01*
X184087908Y-120534653D01*
X184091549Y-120586653D01*
X184096995Y-120657487D01*
X184104063Y-120744911D01*
X184112570Y-120846681D01*
X184122335Y-120960552D01*
X184133174Y-121084279D01*
X184144907Y-121215618D01*
X184154079Y-121316908D01*
X184165566Y-121442526D01*
X184176322Y-121558762D01*
X184186131Y-121663380D01*
X184194781Y-121754140D01*
X184202057Y-121828804D01*
X184207746Y-121885134D01*
X184211634Y-121920891D01*
X184213506Y-121933837D01*
X184219188Y-121929826D01*
X184240020Y-121910138D01*
X184273872Y-121876322D01*
X184318412Y-121830837D01*
X184371310Y-121776146D01*
X184430236Y-121714710D01*
X184492858Y-121648990D01*
X184556848Y-121581449D01*
X184619874Y-121514547D01*
X184679606Y-121450746D01*
X184733713Y-121392507D01*
X184779865Y-121342292D01*
X184815733Y-121302563D01*
X184838984Y-121275780D01*
X184845778Y-121266477D01*
X185027601Y-121266477D01*
X185303305Y-121541968D01*
X185370726Y-121609224D01*
X185434267Y-121672162D01*
X185483490Y-121720100D01*
X185520196Y-121754594D01*
X185546190Y-121777199D01*
X185563276Y-121789471D01*
X185573256Y-121792966D01*
X185577935Y-121789238D01*
X185579116Y-121779844D01*
X185579873Y-121764749D01*
X185582601Y-121725883D01*
X185587108Y-121666895D01*
X185593179Y-121590473D01*
X185600596Y-121499305D01*
X185609142Y-121396080D01*
X185618602Y-121283483D01*
X185628758Y-121164205D01*
X185637723Y-121059077D01*
X185647066Y-120948351D01*
X185655443Y-120847814D01*
X185662653Y-120759943D01*
X185668496Y-120687215D01*
X185672769Y-120632110D01*
X185675273Y-120597104D01*
X185675805Y-120584674D01*
X185675384Y-120584908D01*
X185663509Y-120596350D01*
X185637130Y-120623198D01*
X185598570Y-120663018D01*
X185550153Y-120713372D01*
X185494203Y-120771828D01*
X185433042Y-120835948D01*
X185368995Y-120903298D01*
X185304385Y-120971443D01*
X185241535Y-121037948D01*
X185182768Y-121100377D01*
X185130409Y-121156295D01*
X185029533Y-121264406D01*
X185027601Y-121266477D01*
X184845778Y-121266477D01*
X184847290Y-121264406D01*
X184839148Y-121253383D01*
X184815478Y-121226999D01*
X184778478Y-121187527D01*
X184730350Y-121137191D01*
X184673296Y-121078217D01*
X184609520Y-121012830D01*
X184541222Y-120943255D01*
X184470605Y-120871716D01*
X184399871Y-120800438D01*
X184331222Y-120731647D01*
X184266861Y-120667566D01*
X184208989Y-120610422D01*
X184159810Y-120562439D01*
X184121524Y-120525841D01*
X184096334Y-120502854D01*
X184086442Y-120495703D01*
X184086253Y-120503732D01*
X183957067Y-120503732D01*
X183955390Y-120491089D01*
X183680297Y-120491089D01*
X183680140Y-120390495D01*
X183780891Y-120390495D01*
X183862624Y-120390495D01*
X183869895Y-120390489D01*
X183910950Y-120389613D01*
X183933277Y-120385867D01*
X183942529Y-120377270D01*
X183944357Y-120361840D01*
X183936306Y-120339159D01*
X183908730Y-120301428D01*
X183862624Y-120252179D01*
X183780891Y-120171172D01*
X183780891Y-120390495D01*
X183680140Y-120390495D01*
X183679968Y-120280471D01*
X183679639Y-120069852D01*
X183227914Y-119610891D01*
X182776189Y-119151931D01*
X182775570Y-119064848D01*
X182774951Y-118977767D01*
X183316769Y-119526952D01*
X183369137Y-119579998D01*
X183477803Y-119689772D01*
X183570709Y-119783114D01*
X183649055Y-119861173D01*
X183714043Y-119925097D01*
X183766872Y-119976035D01*
X183808743Y-120015135D01*
X183840855Y-120043548D01*
X183864410Y-120062420D01*
X183880608Y-120072901D01*
X183890649Y-120076139D01*
X183907579Y-120075158D01*
X183917084Y-120067996D01*
X183918723Y-120048401D01*
X183914782Y-120010124D01*
X183912065Y-119986025D01*
X183908284Y-119945744D01*
X183906760Y-119918961D01*
X183906015Y-119909728D01*
X183898746Y-119899839D01*
X183878668Y-119896562D01*
X183839689Y-119897992D01*
X183829737Y-119898553D01*
X183789898Y-119897921D01*
X183761560Y-119889167D01*
X183741586Y-119874951D01*
X184024852Y-119874951D01*
X184029013Y-119922104D01*
X184030935Y-119943498D01*
X184036924Y-120001909D01*
X184042826Y-120040381D01*
X184049727Y-120062912D01*
X184058712Y-120073498D01*
X184070870Y-120076139D01*
X184081801Y-120077937D01*
X184089050Y-120086530D01*
X184093100Y-120106505D01*
X184094863Y-120142450D01*
X184095248Y-120198952D01*
X184095248Y-120321766D01*
X184135447Y-120361840D01*
X184233565Y-120459654D01*
X184371881Y-120597542D01*
X184371881Y-120491089D01*
X185126337Y-120491089D01*
X185126337Y-120730000D01*
X184507831Y-120730000D01*
X184717592Y-120946906D01*
X184757770Y-120988334D01*
X184813328Y-121045200D01*
X184861570Y-121094082D01*
X184899971Y-121132441D01*
X184926003Y-121157741D01*
X184937140Y-121167442D01*
X184941373Y-121164767D01*
X184961224Y-121146782D01*
X184995451Y-121113481D01*
X185042227Y-121066712D01*
X185099724Y-121008325D01*
X185166112Y-120940169D01*
X185239564Y-120864094D01*
X185318251Y-120781950D01*
X185397341Y-120698943D01*
X185474871Y-120617136D01*
X185537746Y-120550083D01*
X185587502Y-120496007D01*
X185625678Y-120453129D01*
X185653811Y-120419673D01*
X185673440Y-120393861D01*
X185686101Y-120373914D01*
X185693334Y-120358056D01*
X185696675Y-120344509D01*
X185697561Y-120337910D01*
X185701488Y-120301548D01*
X185706459Y-120248018D01*
X185711927Y-120183421D01*
X185717344Y-120113862D01*
X185719181Y-120089635D01*
X185724488Y-120024178D01*
X185729548Y-119967717D01*
X185733863Y-119925618D01*
X185736934Y-119903243D01*
X185742955Y-119874951D01*
X184024852Y-119874951D01*
X183741586Y-119874951D01*
X183733630Y-119869289D01*
X183728820Y-119865104D01*
X183689482Y-119814427D01*
X183673903Y-119761782D01*
X184014698Y-119761782D01*
X185429221Y-119761782D01*
X185641881Y-119761782D01*
X185698908Y-119761782D01*
X185715993Y-119761662D01*
X185741308Y-119759462D01*
X185748616Y-119752334D01*
X185742943Y-119737508D01*
X185741267Y-119734682D01*
X185722448Y-119712944D01*
X185695183Y-119688820D01*
X185667987Y-119669254D01*
X185649371Y-119661188D01*
X185647697Y-119662463D01*
X185643544Y-119679976D01*
X185641881Y-119711485D01*
X185641881Y-119761782D01*
X185429221Y-119761782D01*
X185425526Y-119671095D01*
X185421832Y-119580407D01*
X185346386Y-119565252D01*
X185308551Y-119558379D01*
X185245368Y-119548756D01*
X185186065Y-119541496D01*
X185101188Y-119532893D01*
X185101188Y-119636040D01*
X184522773Y-119636040D01*
X184522773Y-119545122D01*
X184450471Y-119553753D01*
X184339998Y-119572249D01*
X184228816Y-119605691D01*
X184136850Y-119652324D01*
X184062542Y-119712786D01*
X184014698Y-119761782D01*
X183673903Y-119761782D01*
X183672172Y-119755934D01*
X183677474Y-119694575D01*
X183705975Y-119635297D01*
X183708733Y-119631606D01*
X183746822Y-119599851D01*
X183796476Y-119581067D01*
X183850002Y-119576071D01*
X183899707Y-119585678D01*
X183937900Y-119610704D01*
X183950831Y-119623480D01*
X183963428Y-119626576D01*
X183981467Y-119616998D01*
X184011928Y-119593082D01*
X184021274Y-119585731D01*
X184093430Y-119539339D01*
X184178915Y-119498084D01*
X184248830Y-119472575D01*
X184623367Y-119472575D01*
X184623367Y-119535446D01*
X185000594Y-119535446D01*
X185000594Y-119472575D01*
X184623367Y-119472575D01*
X184248830Y-119472575D01*
X184269767Y-119464936D01*
X184358027Y-119442868D01*
X184435736Y-119434852D01*
X184443991Y-119434788D01*
X184489879Y-119430321D01*
X184515079Y-119417795D01*
X184522773Y-119395784D01*
X184523676Y-119388849D01*
X184528615Y-119382885D01*
X184540611Y-119378519D01*
X184562680Y-119375503D01*
X184597836Y-119373590D01*
X184649094Y-119372530D01*
X184719471Y-119372077D01*
X184811980Y-119371980D01*
X184898660Y-119372150D01*
X184972332Y-119372834D01*
X185026265Y-119374215D01*
X185063288Y-119376470D01*
X185086230Y-119379778D01*
X185097920Y-119384320D01*
X185101188Y-119390272D01*
X185111937Y-119404888D01*
X185142055Y-119414215D01*
X185153582Y-119415847D01*
X185192886Y-119421591D01*
X185245188Y-119429378D01*
X185302376Y-119438003D01*
X185333916Y-119442393D01*
X185380074Y-119447148D01*
X185412641Y-119448295D01*
X185426023Y-119445495D01*
X185428308Y-119443671D01*
X185449405Y-119439165D01*
X185487355Y-119436029D01*
X185536048Y-119434852D01*
X185641881Y-119434852D01*
X185641894Y-119472575D01*
X185641894Y-119475718D01*
X185642388Y-119488668D01*
X185648819Y-119510411D01*
X185667123Y-119528851D01*
X185702830Y-119550801D01*
X185734174Y-119570854D01*
X185781893Y-119609356D01*
X185825138Y-119652579D01*
X185858219Y-119694627D01*
X185875442Y-119729604D01*
X185879662Y-119743081D01*
X185887480Y-119752334D01*
X185890116Y-119755454D01*
X185911662Y-119760696D01*
G36*
X184023764Y-126784612D02*
G01*
X184112450Y-126786413D01*
X184199419Y-126789212D01*
X184279782Y-126792930D01*
X184348646Y-126797490D01*
X184401120Y-126802813D01*
X184591921Y-126834241D01*
X184865623Y-126901153D01*
X185129787Y-126991971D01*
X185383047Y-127105897D01*
X185624041Y-127242133D01*
X185851402Y-127399882D01*
X186063767Y-127578344D01*
X186259770Y-127776723D01*
X186438048Y-127994218D01*
X186516872Y-128105017D01*
X186664354Y-128345637D01*
X186788081Y-128597714D01*
X186887795Y-128860614D01*
X186963241Y-129133706D01*
X187014162Y-129416354D01*
X187017963Y-129448472D01*
X187025334Y-129542014D01*
X187030066Y-129651854D01*
X187032161Y-129770887D01*
X187031618Y-129892009D01*
X187028437Y-130008118D01*
X187022618Y-130112107D01*
X187014162Y-130196875D01*
X187000945Y-130285709D01*
X186942808Y-130562383D01*
X186860958Y-130829070D01*
X186756385Y-131084573D01*
X186630079Y-131327698D01*
X186483030Y-131557247D01*
X186316227Y-131772026D01*
X186130660Y-131970838D01*
X185927320Y-132152487D01*
X185707195Y-132315777D01*
X185471277Y-132459513D01*
X185220553Y-132582498D01*
X184956016Y-132683536D01*
X184874934Y-132708667D01*
X184747338Y-132743083D01*
X184614872Y-132773706D01*
X184487271Y-132798341D01*
X184374271Y-132814789D01*
X184373762Y-132814847D01*
X184328417Y-132818531D01*
X184265909Y-132821663D01*
X184191083Y-132824197D01*
X184108783Y-132826083D01*
X184023854Y-132827274D01*
X183941142Y-132827723D01*
X183865490Y-132827382D01*
X183801744Y-132826203D01*
X183754749Y-132824138D01*
X183729349Y-132821141D01*
X183699583Y-132813164D01*
X183699583Y-131896186D01*
X183974089Y-131896504D01*
X184029233Y-131896352D01*
X184154742Y-131893680D01*
X184262894Y-131887016D01*
X184360130Y-131875463D01*
X184452893Y-131858129D01*
X184547623Y-131834118D01*
X184650763Y-131802535D01*
X184834252Y-131733336D01*
X185042307Y-131629931D01*
X185235845Y-131505719D01*
X185413579Y-131362168D01*
X185574219Y-131200748D01*
X185716478Y-131022928D01*
X185839069Y-130830177D01*
X185940701Y-130623965D01*
X186020089Y-130405759D01*
X186075943Y-130177031D01*
X186077181Y-130170233D01*
X186089149Y-130080571D01*
X186097116Y-129973837D01*
X186101074Y-129857234D01*
X186101015Y-129737965D01*
X186096934Y-129623234D01*
X186088823Y-129520244D01*
X186076674Y-129436197D01*
X186056515Y-129343629D01*
X185988456Y-129114193D01*
X185897234Y-128896394D01*
X185783527Y-128691520D01*
X185648015Y-128500861D01*
X185491378Y-128325705D01*
X185432099Y-128268408D01*
X185279702Y-128139326D01*
X185117062Y-128027977D01*
X184936511Y-127928879D01*
X184860803Y-127892911D01*
X184678168Y-127818839D01*
X184497580Y-127765075D01*
X184313141Y-127730382D01*
X184118953Y-127713523D01*
X183909119Y-127713259D01*
X183699583Y-127720530D01*
X183699583Y-126800065D01*
X183729349Y-126792088D01*
X183749697Y-126788945D01*
X183796330Y-126785975D01*
X183860813Y-126784315D01*
X183938255Y-126783887D01*
X184023764Y-126784612D01*
G37*
X184023764Y-126784612D02*
X184112450Y-126786413D01*
X184199419Y-126789212D01*
X184279782Y-126792930D01*
X184348646Y-126797490D01*
X184401120Y-126802813D01*
X184591921Y-126834241D01*
X184865623Y-126901153D01*
X185129787Y-126991971D01*
X185383047Y-127105897D01*
X185624041Y-127242133D01*
X185851402Y-127399882D01*
X186063767Y-127578344D01*
X186259770Y-127776723D01*
X186438048Y-127994218D01*
X186516872Y-128105017D01*
X186664354Y-128345637D01*
X186788081Y-128597714D01*
X186887795Y-128860614D01*
X186963241Y-129133706D01*
X187014162Y-129416354D01*
X187017963Y-129448472D01*
X187025334Y-129542014D01*
X187030066Y-129651854D01*
X187032161Y-129770887D01*
X187031618Y-129892009D01*
X187028437Y-130008118D01*
X187022618Y-130112107D01*
X187014162Y-130196875D01*
X187000945Y-130285709D01*
X186942808Y-130562383D01*
X186860958Y-130829070D01*
X186756385Y-131084573D01*
X186630079Y-131327698D01*
X186483030Y-131557247D01*
X186316227Y-131772026D01*
X186130660Y-131970838D01*
X185927320Y-132152487D01*
X185707195Y-132315777D01*
X185471277Y-132459513D01*
X185220553Y-132582498D01*
X184956016Y-132683536D01*
X184874934Y-132708667D01*
X184747338Y-132743083D01*
X184614872Y-132773706D01*
X184487271Y-132798341D01*
X184374271Y-132814789D01*
X184373762Y-132814847D01*
X184328417Y-132818531D01*
X184265909Y-132821663D01*
X184191083Y-132824197D01*
X184108783Y-132826083D01*
X184023854Y-132827274D01*
X183941142Y-132827723D01*
X183865490Y-132827382D01*
X183801744Y-132826203D01*
X183754749Y-132824138D01*
X183729349Y-132821141D01*
X183699583Y-132813164D01*
X183699583Y-131896186D01*
X183974089Y-131896504D01*
X184029233Y-131896352D01*
X184154742Y-131893680D01*
X184262894Y-131887016D01*
X184360130Y-131875463D01*
X184452893Y-131858129D01*
X184547623Y-131834118D01*
X184650763Y-131802535D01*
X184834252Y-131733336D01*
X185042307Y-131629931D01*
X185235845Y-131505719D01*
X185413579Y-131362168D01*
X185574219Y-131200748D01*
X185716478Y-131022928D01*
X185839069Y-130830177D01*
X185940701Y-130623965D01*
X186020089Y-130405759D01*
X186075943Y-130177031D01*
X186077181Y-130170233D01*
X186089149Y-130080571D01*
X186097116Y-129973837D01*
X186101074Y-129857234D01*
X186101015Y-129737965D01*
X186096934Y-129623234D01*
X186088823Y-129520244D01*
X186076674Y-129436197D01*
X186056515Y-129343629D01*
X185988456Y-129114193D01*
X185897234Y-128896394D01*
X185783527Y-128691520D01*
X185648015Y-128500861D01*
X185491378Y-128325705D01*
X185432099Y-128268408D01*
X185279702Y-128139326D01*
X185117062Y-128027977D01*
X184936511Y-127928879D01*
X184860803Y-127892911D01*
X184678168Y-127818839D01*
X184497580Y-127765075D01*
X184313141Y-127730382D01*
X184118953Y-127713523D01*
X183909119Y-127713259D01*
X183699583Y-127720530D01*
X183699583Y-126800065D01*
X183729349Y-126792088D01*
X183749697Y-126788945D01*
X183796330Y-126785975D01*
X183860813Y-126784315D01*
X183938255Y-126783887D01*
X184023764Y-126784612D01*
G36*
X178847787Y-126784008D02*
G01*
X178959313Y-126784968D01*
X179092615Y-126789356D01*
X179212480Y-126797981D01*
X179326300Y-126811592D01*
X179441470Y-126830938D01*
X179565381Y-126856769D01*
X179665691Y-126881267D01*
X179922400Y-126962322D01*
X180172491Y-127067517D01*
X180413515Y-127195325D01*
X180643027Y-127344214D01*
X180858578Y-127512656D01*
X181057720Y-127699121D01*
X181238007Y-127902079D01*
X181241427Y-127906325D01*
X181402924Y-128128177D01*
X181543879Y-128365877D01*
X181663609Y-128617809D01*
X181761431Y-128882354D01*
X181836661Y-129157894D01*
X181888617Y-129442812D01*
X181894662Y-129500752D01*
X181899834Y-129587298D01*
X181902981Y-129687925D01*
X181904105Y-129796009D01*
X181903208Y-129904923D01*
X181900292Y-130008046D01*
X181895359Y-130098751D01*
X181888410Y-130170416D01*
X181885865Y-130189155D01*
X181834588Y-130467092D01*
X181759289Y-130738532D01*
X181660975Y-131001089D01*
X181540652Y-131252378D01*
X181399327Y-131490012D01*
X181238007Y-131711607D01*
X181201460Y-131755859D01*
X181067650Y-131901982D01*
X180916573Y-132046431D01*
X180754786Y-132183545D01*
X180588844Y-132307667D01*
X180425303Y-132413135D01*
X180369501Y-132445068D01*
X180156315Y-132552465D01*
X179930575Y-132645284D01*
X179698614Y-132721376D01*
X179466763Y-132778594D01*
X179241354Y-132814789D01*
X179234289Y-132815526D01*
X179185821Y-132818981D01*
X179117842Y-132822126D01*
X179036109Y-132824766D01*
X178946376Y-132826709D01*
X178854401Y-132827762D01*
X178566667Y-132829479D01*
X178566667Y-131896776D01*
X178854401Y-131896799D01*
X178925141Y-131896664D01*
X179010832Y-131895769D01*
X179079119Y-131893702D01*
X179135391Y-131890078D01*
X179185042Y-131884513D01*
X179233462Y-131876622D01*
X179286044Y-131866021D01*
X179291745Y-131864794D01*
X179525262Y-131801206D01*
X179746309Y-131714624D01*
X179953891Y-131605719D01*
X180147010Y-131475163D01*
X180324667Y-131323630D01*
X180485866Y-131151791D01*
X180629608Y-130960319D01*
X180639064Y-130945967D01*
X180695440Y-130851569D01*
X180751718Y-130743892D01*
X180804815Y-130629878D01*
X180851648Y-130516469D01*
X180889136Y-130410611D01*
X180914196Y-130319244D01*
X180923561Y-130276250D01*
X179161979Y-130276250D01*
X179161979Y-129336979D01*
X180923561Y-129336979D01*
X180914196Y-129293984D01*
X180908102Y-129268388D01*
X180880625Y-129177488D01*
X180842318Y-129073702D01*
X180796164Y-128963866D01*
X180745145Y-128854820D01*
X180692244Y-128753402D01*
X180640446Y-128666449D01*
X180615807Y-128629379D01*
X180475547Y-128446430D01*
X180315951Y-128280418D01*
X180138780Y-128132544D01*
X179945799Y-128004009D01*
X179738768Y-127896012D01*
X179519451Y-127809754D01*
X179289611Y-127746436D01*
X179255711Y-127739308D01*
X179209012Y-127731008D01*
X179161524Y-127724996D01*
X179108112Y-127720914D01*
X179043645Y-127718408D01*
X178962990Y-127717120D01*
X178861015Y-127716695D01*
X178566665Y-127716406D01*
X178566667Y-126783750D01*
X178847787Y-126784008D01*
G37*
X178847787Y-126784008D02*
X178959313Y-126784968D01*
X179092615Y-126789356D01*
X179212480Y-126797981D01*
X179326300Y-126811592D01*
X179441470Y-126830938D01*
X179565381Y-126856769D01*
X179665691Y-126881267D01*
X179922400Y-126962322D01*
X180172491Y-127067517D01*
X180413515Y-127195325D01*
X180643027Y-127344214D01*
X180858578Y-127512656D01*
X181057720Y-127699121D01*
X181238007Y-127902079D01*
X181241427Y-127906325D01*
X181402924Y-128128177D01*
X181543879Y-128365877D01*
X181663609Y-128617809D01*
X181761431Y-128882354D01*
X181836661Y-129157894D01*
X181888617Y-129442812D01*
X181894662Y-129500752D01*
X181899834Y-129587298D01*
X181902981Y-129687925D01*
X181904105Y-129796009D01*
X181903208Y-129904923D01*
X181900292Y-130008046D01*
X181895359Y-130098751D01*
X181888410Y-130170416D01*
X181885865Y-130189155D01*
X181834588Y-130467092D01*
X181759289Y-130738532D01*
X181660975Y-131001089D01*
X181540652Y-131252378D01*
X181399327Y-131490012D01*
X181238007Y-131711607D01*
X181201460Y-131755859D01*
X181067650Y-131901982D01*
X180916573Y-132046431D01*
X180754786Y-132183545D01*
X180588844Y-132307667D01*
X180425303Y-132413135D01*
X180369501Y-132445068D01*
X180156315Y-132552465D01*
X179930575Y-132645284D01*
X179698614Y-132721376D01*
X179466763Y-132778594D01*
X179241354Y-132814789D01*
X179234289Y-132815526D01*
X179185821Y-132818981D01*
X179117842Y-132822126D01*
X179036109Y-132824766D01*
X178946376Y-132826709D01*
X178854401Y-132827762D01*
X178566667Y-132829479D01*
X178566667Y-131896776D01*
X178854401Y-131896799D01*
X178925141Y-131896664D01*
X179010832Y-131895769D01*
X179079119Y-131893702D01*
X179135391Y-131890078D01*
X179185042Y-131884513D01*
X179233462Y-131876622D01*
X179286044Y-131866021D01*
X179291745Y-131864794D01*
X179525262Y-131801206D01*
X179746309Y-131714624D01*
X179953891Y-131605719D01*
X180147010Y-131475163D01*
X180324667Y-131323630D01*
X180485866Y-131151791D01*
X180629608Y-130960319D01*
X180639064Y-130945967D01*
X180695440Y-130851569D01*
X180751718Y-130743892D01*
X180804815Y-130629878D01*
X180851648Y-130516469D01*
X180889136Y-130410611D01*
X180914196Y-130319244D01*
X180923561Y-130276250D01*
X179161979Y-130276250D01*
X179161979Y-129336979D01*
X180923561Y-129336979D01*
X180914196Y-129293984D01*
X180908102Y-129268388D01*
X180880625Y-129177488D01*
X180842318Y-129073702D01*
X180796164Y-128963866D01*
X180745145Y-128854820D01*
X180692244Y-128753402D01*
X180640446Y-128666449D01*
X180615807Y-128629379D01*
X180475547Y-128446430D01*
X180315951Y-128280418D01*
X180138780Y-128132544D01*
X179945799Y-128004009D01*
X179738768Y-127896012D01*
X179519451Y-127809754D01*
X179289611Y-127746436D01*
X179255711Y-127739308D01*
X179209012Y-127731008D01*
X179161524Y-127724996D01*
X179108112Y-127720914D01*
X179043645Y-127718408D01*
X178962990Y-127717120D01*
X178861015Y-127716695D01*
X178566665Y-127716406D01*
X178566667Y-126783750D01*
X178847787Y-126784008D01*
G04 #@! TD*
M02*
