G04 #@! TF.GenerationSoftware,KiCad,Pcbnew,(6.0.4)*
G04 #@! TF.CreationDate,2022-07-05T08:29:47+02:00*
G04 #@! TF.ProjectId,esp32-spi-hub,65737033-322d-4737-9069-2d6875622e6b,rev?*
G04 #@! TF.SameCoordinates,Original*
G04 #@! TF.FileFunction,Soldermask,Top*
G04 #@! TF.FilePolarity,Negative*
%FSLAX46Y46*%
G04 Gerber Fmt 4.6, Leading zero omitted, Abs format (unit mm)*
G04 Created by KiCad (PCBNEW (6.0.4)) date 2022-07-05 08:29:47*
%MOMM*%
%LPD*%
G01*
G04 APERTURE LIST*
G04 Aperture macros list*
%AMRoundRect*
0 Rectangle with rounded corners*
0 $1 Rounding radius*
0 $2 $3 $4 $5 $6 $7 $8 $9 X,Y pos of 4 corners*
0 Add a 4 corners polygon primitive as box body*
4,1,4,$2,$3,$4,$5,$6,$7,$8,$9,$2,$3,0*
0 Add four circle primitives for the rounded corners*
1,1,$1+$1,$2,$3*
1,1,$1+$1,$4,$5*
1,1,$1+$1,$6,$7*
1,1,$1+$1,$8,$9*
0 Add four rect primitives between the rounded corners*
20,1,$1+$1,$2,$3,$4,$5,0*
20,1,$1+$1,$4,$5,$6,$7,0*
20,1,$1+$1,$6,$7,$8,$9,0*
20,1,$1+$1,$8,$9,$2,$3,0*%
G04 Aperture macros list end*
%ADD10RoundRect,0.140000X0.140000X0.170000X-0.140000X0.170000X-0.140000X-0.170000X0.140000X-0.170000X0*%
%ADD11RoundRect,0.140000X-0.140000X-0.170000X0.140000X-0.170000X0.140000X0.170000X-0.140000X0.170000X0*%
%ADD12RoundRect,0.135000X-0.135000X-0.185000X0.135000X-0.185000X0.135000X0.185000X-0.135000X0.185000X0*%
%ADD13RoundRect,0.140000X-0.170000X0.140000X-0.170000X-0.140000X0.170000X-0.140000X0.170000X0.140000X0*%
%ADD14C,3.000000*%
%ADD15RoundRect,0.140000X0.170000X-0.140000X0.170000X0.140000X-0.170000X0.140000X-0.170000X-0.140000X0*%
%ADD16RoundRect,0.135000X0.185000X-0.135000X0.185000X0.135000X-0.185000X0.135000X-0.185000X-0.135000X0*%
%ADD17RoundRect,0.218750X0.218750X0.256250X-0.218750X0.256250X-0.218750X-0.256250X0.218750X-0.256250X0*%
%ADD18RoundRect,0.135000X-0.185000X0.135000X-0.185000X-0.135000X0.185000X-0.135000X0.185000X0.135000X0*%
%ADD19RoundRect,0.062500X-0.337500X-0.062500X0.337500X-0.062500X0.337500X0.062500X-0.337500X0.062500X0*%
%ADD20RoundRect,0.062500X-0.062500X-0.337500X0.062500X-0.337500X0.062500X0.337500X-0.062500X0.337500X0*%
%ADD21R,3.350000X3.350000*%
%ADD22RoundRect,0.135000X0.135000X0.185000X-0.135000X0.185000X-0.135000X-0.185000X0.135000X-0.185000X0*%
%ADD23R,0.700000X0.340000*%
%ADD24C,0.600000*%
%ADD25R,0.600000X1.160000*%
%ADD26R,0.300000X1.160000*%
%ADD27O,0.900000X2.000000*%
%ADD28O,0.900000X1.700000*%
%ADD29RoundRect,0.225000X0.225000X0.250000X-0.225000X0.250000X-0.225000X-0.250000X0.225000X-0.250000X0*%
%ADD30C,0.800000*%
%ADD31R,0.900000X1.700000*%
%ADD32RoundRect,0.150000X0.150000X0.700000X-0.150000X0.700000X-0.150000X-0.700000X0.150000X-0.700000X0*%
%ADD33RoundRect,0.250000X0.250000X1.100000X-0.250000X1.100000X-0.250000X-1.100000X0.250000X-1.100000X0*%
%ADD34RoundRect,0.250000X0.450000X0.425000X-0.450000X0.425000X-0.450000X-0.425000X0.450000X-0.425000X0*%
%ADD35RoundRect,0.150000X-0.150000X-0.700000X0.150000X-0.700000X0.150000X0.700000X-0.150000X0.700000X0*%
%ADD36RoundRect,0.250000X-0.250000X-1.100000X0.250000X-1.100000X0.250000X1.100000X-0.250000X1.100000X0*%
%ADD37R,0.800000X0.500000*%
%ADD38R,0.800000X0.400000*%
%ADD39RoundRect,0.250000X0.262500X0.450000X-0.262500X0.450000X-0.262500X-0.450000X0.262500X-0.450000X0*%
%ADD40R,0.900000X2.000000*%
%ADD41R,2.000000X0.900000*%
%ADD42R,5.000000X5.000000*%
%ADD43RoundRect,0.150000X-0.150000X0.587500X-0.150000X-0.587500X0.150000X-0.587500X0.150000X0.587500X0*%
%ADD44RoundRect,0.150000X-0.700000X0.150000X-0.700000X-0.150000X0.700000X-0.150000X0.700000X0.150000X0*%
%ADD45RoundRect,0.250000X-1.100000X0.250000X-1.100000X-0.250000X1.100000X-0.250000X1.100000X0.250000X0*%
%ADD46RoundRect,0.250000X-0.425000X0.450000X-0.425000X-0.450000X0.425000X-0.450000X0.425000X0.450000X0*%
%ADD47R,2.500000X1.800000*%
%ADD48RoundRect,0.150000X-0.587500X-0.150000X0.587500X-0.150000X0.587500X0.150000X-0.587500X0.150000X0*%
%ADD49RoundRect,0.100000X-0.637500X-0.100000X0.637500X-0.100000X0.637500X0.100000X-0.637500X0.100000X0*%
%ADD50R,1.500000X2.000000*%
%ADD51R,3.800000X2.000000*%
%ADD52RoundRect,0.100000X0.637500X0.100000X-0.637500X0.100000X-0.637500X-0.100000X0.637500X-0.100000X0*%
%ADD53R,1.350000X1.350000*%
%ADD54O,1.350000X1.350000*%
G04 APERTURE END LIST*
D10*
G04 #@! TO.C,C10*
X182420000Y-141240000D03*
X181460000Y-141240000D03*
G04 #@! TD*
D11*
G04 #@! TO.C,C34*
X136320000Y-116300000D03*
X137280000Y-116300000D03*
G04 #@! TD*
D12*
G04 #@! TO.C,R28*
X139352500Y-133875000D03*
X140372500Y-133875000D03*
G04 #@! TD*
D13*
G04 #@! TO.C,C1*
X155800000Y-136570000D03*
X155800000Y-137530000D03*
G04 #@! TD*
D14*
G04 #@! TO.C,H6*
X124600000Y-144800000D03*
G04 #@! TD*
D15*
G04 #@! TO.C,C28*
X132050000Y-135780000D03*
X132050000Y-134820000D03*
G04 #@! TD*
D16*
G04 #@! TO.C,R44*
X132050000Y-138310000D03*
X132050000Y-137290000D03*
G04 #@! TD*
G04 #@! TO.C,R40*
X141200000Y-123945000D03*
X141200000Y-122925000D03*
G04 #@! TD*
D15*
G04 #@! TO.C,C26*
X130050000Y-135780000D03*
X130050000Y-134820000D03*
G04 #@! TD*
D16*
G04 #@! TO.C,R1*
X183440000Y-142250000D03*
X183440000Y-141230000D03*
G04 #@! TD*
D14*
G04 #@! TO.C,H3*
X186500000Y-109800000D03*
G04 #@! TD*
D10*
G04 #@! TO.C,C15*
X140342500Y-134875000D03*
X139382500Y-134875000D03*
G04 #@! TD*
D12*
G04 #@! TO.C,R48*
X151180000Y-116300000D03*
X152200000Y-116300000D03*
G04 #@! TD*
D17*
G04 #@! TO.C,D2*
X172387500Y-112700000D03*
X170812500Y-112700000D03*
G04 #@! TD*
D11*
G04 #@! TO.C,C33*
X136320000Y-115300000D03*
X137280000Y-115300000D03*
G04 #@! TD*
D14*
G04 #@! TO.C,H1*
X124600000Y-109800000D03*
G04 #@! TD*
D12*
G04 #@! TO.C,R55*
X133790000Y-116300000D03*
X134810000Y-116300000D03*
G04 #@! TD*
D18*
G04 #@! TO.C,R34*
X129050000Y-119390000D03*
X129050000Y-120410000D03*
G04 #@! TD*
D16*
G04 #@! TO.C,R36*
X131050000Y-120800000D03*
X131050000Y-119780000D03*
G04 #@! TD*
D18*
G04 #@! TO.C,R7*
X167935000Y-129390000D03*
X167935000Y-130410000D03*
G04 #@! TD*
G04 #@! TO.C,R52*
X149100000Y-115190000D03*
X149100000Y-116210000D03*
G04 #@! TD*
D12*
G04 #@! TO.C,R18*
X173590000Y-112700000D03*
X174610000Y-112700000D03*
G04 #@! TD*
D19*
G04 #@! TO.C,U2*
X181600000Y-136100000D03*
X181600000Y-136600000D03*
X181600000Y-137100000D03*
X181600000Y-137600000D03*
X181600000Y-138100000D03*
X181600000Y-138600000D03*
X181600000Y-139100000D03*
D20*
X182550000Y-140050000D03*
X183050000Y-140050000D03*
X183550000Y-140050000D03*
X184050000Y-140050000D03*
X184550000Y-140050000D03*
X185050000Y-140050000D03*
X185550000Y-140050000D03*
D19*
X186500000Y-139100000D03*
X186500000Y-138600000D03*
X186500000Y-138100000D03*
X186500000Y-137600000D03*
X186500000Y-137100000D03*
X186500000Y-136600000D03*
X186500000Y-136100000D03*
D20*
X185550000Y-135150000D03*
X185050000Y-135150000D03*
X184550000Y-135150000D03*
X184050000Y-135150000D03*
X183550000Y-135150000D03*
X183050000Y-135150000D03*
X182550000Y-135150000D03*
D21*
X184050000Y-137600000D03*
G04 #@! TD*
D16*
G04 #@! TO.C,R15*
X171510000Y-137600000D03*
X171510000Y-136580000D03*
G04 #@! TD*
D22*
G04 #@! TO.C,R33*
X153910000Y-136300000D03*
X152890000Y-136300000D03*
G04 #@! TD*
D11*
G04 #@! TO.C,C13*
X159820000Y-120000000D03*
X160780000Y-120000000D03*
G04 #@! TD*
D12*
G04 #@! TO.C,R49*
X151180000Y-117300000D03*
X152200000Y-117300000D03*
G04 #@! TD*
D23*
G04 #@! TO.C,U4*
X177300000Y-137300000D03*
X177300000Y-136800000D03*
X177300000Y-136300000D03*
X175800000Y-136300000D03*
X175800000Y-136800000D03*
X175800000Y-137300000D03*
G04 #@! TD*
D15*
G04 #@! TO.C,C9*
X179700000Y-113290000D03*
X179700000Y-112330000D03*
G04 #@! TD*
D22*
G04 #@! TO.C,R26*
X140410000Y-136300000D03*
X139390000Y-136300000D03*
G04 #@! TD*
D24*
G04 #@! TO.C,P1*
X170420000Y-141560000D03*
X176200000Y-141560000D03*
D25*
X170110000Y-140500000D03*
X170910000Y-140500000D03*
D26*
X172060000Y-140500000D03*
X173060000Y-140500000D03*
X173560000Y-140500000D03*
X174560000Y-140500000D03*
D25*
X175710000Y-140500000D03*
X176510000Y-140500000D03*
X176510000Y-140500000D03*
X175710000Y-140500000D03*
D26*
X175060000Y-140500000D03*
X174060000Y-140500000D03*
X172560000Y-140500000D03*
X171560000Y-140500000D03*
D25*
X170910000Y-140500000D03*
X170110000Y-140500000D03*
D27*
X177630000Y-141080000D03*
D28*
X177630000Y-145250000D03*
D27*
X168990000Y-141080000D03*
D28*
X168990000Y-145250000D03*
G04 #@! TD*
D22*
G04 #@! TO.C,R29*
X148310000Y-135800000D03*
X147290000Y-135800000D03*
G04 #@! TD*
D15*
G04 #@! TO.C,C12*
X169810000Y-137580000D03*
X169810000Y-136620000D03*
G04 #@! TD*
D16*
G04 #@! TO.C,R35*
X130050000Y-120800000D03*
X130050000Y-119780000D03*
G04 #@! TD*
D29*
G04 #@! TO.C,C6*
X182475000Y-110600000D03*
X180925000Y-110600000D03*
G04 #@! TD*
D30*
G04 #@! TO.C,SW2*
X157800000Y-124600000D03*
D31*
X156100000Y-124600000D03*
X159500000Y-124600000D03*
G04 #@! TD*
D16*
G04 #@! TO.C,R45*
X133050000Y-138310000D03*
X133050000Y-137290000D03*
G04 #@! TD*
D18*
G04 #@! TO.C,R3*
X180700000Y-112280000D03*
X180700000Y-113300000D03*
G04 #@! TD*
D32*
G04 #@! TO.C,J7*
X140850000Y-112350000D03*
X139600000Y-112350000D03*
X138350000Y-112350000D03*
X137100000Y-112350000D03*
X135850000Y-112350000D03*
X134600000Y-112350000D03*
X133350000Y-112350000D03*
D33*
X142700000Y-109150000D03*
X131500000Y-109150000D03*
G04 #@! TD*
D34*
G04 #@! TO.C,C4*
X152840000Y-125900000D03*
X150140000Y-125900000D03*
G04 #@! TD*
D16*
G04 #@! TO.C,R8*
X167900000Y-115100000D03*
X167900000Y-114080000D03*
G04 #@! TD*
D22*
G04 #@! TO.C,R10*
X152210000Y-120300000D03*
X151190000Y-120300000D03*
G04 #@! TD*
D35*
G04 #@! TO.C,J2*
X133350000Y-142250000D03*
X134600000Y-142250000D03*
X135850000Y-142250000D03*
X137100000Y-142250000D03*
X138350000Y-142250000D03*
X139600000Y-142250000D03*
X140850000Y-142250000D03*
D36*
X142700000Y-145450000D03*
X131500000Y-145450000D03*
G04 #@! TD*
D16*
G04 #@! TO.C,R43*
X131050000Y-138310000D03*
X131050000Y-137290000D03*
G04 #@! TD*
D18*
G04 #@! TO.C,R5*
X155740000Y-128030000D03*
X155740000Y-129050000D03*
G04 #@! TD*
D10*
G04 #@! TO.C,C21*
X151270000Y-137300000D03*
X150310000Y-137300000D03*
G04 #@! TD*
D12*
G04 #@! TO.C,R57*
X133790000Y-118300000D03*
X134810000Y-118300000D03*
G04 #@! TD*
D15*
G04 #@! TO.C,C23*
X130050000Y-118270000D03*
X130050000Y-117310000D03*
G04 #@! TD*
D22*
G04 #@! TO.C,R30*
X153910000Y-139300000D03*
X152890000Y-139300000D03*
G04 #@! TD*
D32*
G04 #@! TO.C,J6*
X156250000Y-112350000D03*
X155000000Y-112350000D03*
X153750000Y-112350000D03*
X152500000Y-112350000D03*
X151250000Y-112350000D03*
X150000000Y-112350000D03*
X148750000Y-112350000D03*
D33*
X146900000Y-109150000D03*
X158100000Y-109150000D03*
G04 #@! TD*
D30*
G04 #@! TO.C,SW1*
X157800000Y-117800000D03*
D31*
X156100000Y-117800000D03*
X159500000Y-117800000D03*
G04 #@! TD*
D11*
G04 #@! TO.C,C32*
X153700000Y-117300000D03*
X154660000Y-117300000D03*
G04 #@! TD*
D22*
G04 #@! TO.C,R21*
X160450000Y-129400000D03*
X159430000Y-129400000D03*
G04 #@! TD*
G04 #@! TO.C,R32*
X153910000Y-137300000D03*
X152890000Y-137300000D03*
G04 #@! TD*
D37*
G04 #@! TO.C,RN1*
X163000000Y-127800000D03*
D38*
X163000000Y-127000000D03*
X163000000Y-126200000D03*
D37*
X163000000Y-125400000D03*
X161200000Y-125400000D03*
D38*
X161200000Y-126200000D03*
X161200000Y-127000000D03*
D37*
X161200000Y-127800000D03*
G04 #@! TD*
D22*
G04 #@! TO.C,R51*
X137310000Y-114300000D03*
X136290000Y-114300000D03*
G04 #@! TD*
D39*
G04 #@! TO.C,FB1*
X159000000Y-134650000D03*
X157175000Y-134650000D03*
G04 #@! TD*
D16*
G04 #@! TO.C,R4*
X156000000Y-122410000D03*
X156000000Y-121390000D03*
G04 #@! TD*
D40*
G04 #@! TO.C,U3*
X187300000Y-115100000D03*
X186030000Y-115100000D03*
X184760000Y-115100000D03*
X183490000Y-115100000D03*
X182220000Y-115100000D03*
X180950000Y-115100000D03*
X179680000Y-115100000D03*
X178410000Y-115100000D03*
X177140000Y-115100000D03*
X175870000Y-115100000D03*
X174600000Y-115100000D03*
X173330000Y-115100000D03*
X172060000Y-115100000D03*
X170790000Y-115100000D03*
D41*
X169790000Y-117885000D03*
X169790000Y-119155000D03*
X169790000Y-120425000D03*
X169790000Y-121695000D03*
X169790000Y-122965000D03*
X169790000Y-124235000D03*
X169790000Y-125505000D03*
X169790000Y-126775000D03*
X169790000Y-128045000D03*
X169790000Y-129315000D03*
D40*
X170790000Y-132100000D03*
X172060000Y-132100000D03*
X173330000Y-132100000D03*
X174600000Y-132100000D03*
X175870000Y-132100000D03*
X177140000Y-132100000D03*
X178410000Y-132100000D03*
X179680000Y-132100000D03*
X180950000Y-132100000D03*
X182220000Y-132100000D03*
X183490000Y-132100000D03*
X184760000Y-132100000D03*
X186030000Y-132100000D03*
X187300000Y-132100000D03*
D42*
X179800000Y-122600000D03*
G04 #@! TD*
D12*
G04 #@! TO.C,R50*
X151180000Y-118300000D03*
X152200000Y-118300000D03*
G04 #@! TD*
D22*
G04 #@! TO.C,R16*
X175600000Y-138600000D03*
X174580000Y-138600000D03*
G04 #@! TD*
D10*
G04 #@! TO.C,C7*
X180340000Y-138790000D03*
X179380000Y-138790000D03*
G04 #@! TD*
D43*
G04 #@! TO.C,Q1*
X161190000Y-136662500D03*
X159290000Y-136662500D03*
X160240000Y-138537500D03*
G04 #@! TD*
D16*
G04 #@! TO.C,R38*
X133050000Y-120800000D03*
X133050000Y-119780000D03*
G04 #@! TD*
D10*
G04 #@! TO.C,C17*
X137900000Y-138300000D03*
X136940000Y-138300000D03*
G04 #@! TD*
D14*
G04 #@! TO.C,H4*
X186500000Y-144800000D03*
G04 #@! TD*
D10*
G04 #@! TO.C,C19*
X151250000Y-139300000D03*
X150290000Y-139300000D03*
G04 #@! TD*
D15*
G04 #@! TO.C,C27*
X131050000Y-135780000D03*
X131050000Y-134820000D03*
G04 #@! TD*
D11*
G04 #@! TO.C,C30*
X153700000Y-115300000D03*
X154660000Y-115300000D03*
G04 #@! TD*
D13*
G04 #@! TO.C,C3*
X154390000Y-125470000D03*
X154390000Y-126430000D03*
G04 #@! TD*
D16*
G04 #@! TO.C,R37*
X132050000Y-120810000D03*
X132050000Y-119790000D03*
G04 #@! TD*
D44*
G04 #@! TO.C,J4*
X127100000Y-115850000D03*
X127100000Y-117100000D03*
X127100000Y-118350000D03*
X127100000Y-119600000D03*
X127100000Y-120850000D03*
X127100000Y-122100000D03*
X127100000Y-123350000D03*
D45*
X123900000Y-125200000D03*
X123900000Y-114000000D03*
G04 #@! TD*
D12*
G04 #@! TO.C,R47*
X151180000Y-115300000D03*
X152200000Y-115300000D03*
G04 #@! TD*
D46*
G04 #@! TO.C,C8*
X179740000Y-140340000D03*
X179740000Y-143040000D03*
G04 #@! TD*
D12*
G04 #@! TO.C,R54*
X133790000Y-115300000D03*
X134810000Y-115300000D03*
G04 #@! TD*
G04 #@! TO.C,R20*
X173590000Y-109700000D03*
X174610000Y-109700000D03*
G04 #@! TD*
D10*
G04 #@! TO.C,C20*
X151270000Y-138300000D03*
X150310000Y-138300000D03*
G04 #@! TD*
D46*
G04 #@! TO.C,C2*
X157440000Y-136600000D03*
X157440000Y-139300000D03*
G04 #@! TD*
D10*
G04 #@! TO.C,C22*
X139180000Y-121100000D03*
X138220000Y-121100000D03*
G04 #@! TD*
D44*
G04 #@! TO.C,J5*
X127100000Y-131250000D03*
X127100000Y-132500000D03*
X127100000Y-133750000D03*
X127100000Y-135000000D03*
X127100000Y-136250000D03*
X127100000Y-137500000D03*
X127100000Y-138750000D03*
D45*
X123900000Y-140600000D03*
X123900000Y-129400000D03*
G04 #@! TD*
D15*
G04 #@! TO.C,C25*
X132050000Y-118290000D03*
X132050000Y-117330000D03*
G04 #@! TD*
G04 #@! TO.C,C24*
X131050000Y-118270000D03*
X131050000Y-117310000D03*
G04 #@! TD*
D14*
G04 #@! TO.C,H2*
X163500000Y-109800000D03*
G04 #@! TD*
D35*
G04 #@! TO.C,J3*
X148750000Y-142250000D03*
X150000000Y-142250000D03*
X151250000Y-142250000D03*
X152500000Y-142250000D03*
X153750000Y-142250000D03*
X155000000Y-142250000D03*
X156250000Y-142250000D03*
D36*
X146900000Y-145450000D03*
X158100000Y-145450000D03*
G04 #@! TD*
D11*
G04 #@! TO.C,C14*
X159820000Y-122400000D03*
X160780000Y-122400000D03*
G04 #@! TD*
D22*
G04 #@! TO.C,R14*
X172310000Y-135300000D03*
X171290000Y-135300000D03*
G04 #@! TD*
D12*
G04 #@! TO.C,R56*
X133790000Y-117300000D03*
X134810000Y-117300000D03*
G04 #@! TD*
D17*
G04 #@! TO.C,D3*
X172387500Y-111200000D03*
X170812500Y-111200000D03*
G04 #@! TD*
D22*
G04 #@! TO.C,R17*
X159810000Y-115600000D03*
X158790000Y-115600000D03*
G04 #@! TD*
D47*
G04 #@! TO.C,D1*
X163510000Y-137610000D03*
X167510000Y-137610000D03*
G04 #@! TD*
D48*
G04 #@! TO.C,Q2*
X157625000Y-120250000D03*
X157625000Y-122150000D03*
X159500000Y-121200000D03*
G04 #@! TD*
D49*
G04 #@! TO.C,U6*
X133537500Y-122275000D03*
X133537500Y-122925000D03*
X133537500Y-123575000D03*
X133537500Y-124225000D03*
X133537500Y-124875000D03*
X133537500Y-125525000D03*
X133537500Y-126175000D03*
X133537500Y-126825000D03*
X133537500Y-127475000D03*
X133537500Y-128125000D03*
X139262500Y-128125000D03*
X139262500Y-127475000D03*
X139262500Y-126825000D03*
X139262500Y-126175000D03*
X139262500Y-125525000D03*
X139262500Y-124875000D03*
X139262500Y-124225000D03*
X139262500Y-123575000D03*
X139262500Y-122925000D03*
X139262500Y-122275000D03*
G04 #@! TD*
D22*
G04 #@! TO.C,R12*
X175645000Y-133900000D03*
X174625000Y-133900000D03*
G04 #@! TD*
G04 #@! TO.C,R11*
X152210000Y-119300000D03*
X151190000Y-119300000D03*
G04 #@! TD*
D12*
G04 #@! TO.C,R19*
X173590000Y-111200000D03*
X174610000Y-111200000D03*
G04 #@! TD*
D11*
G04 #@! TO.C,C35*
X136320000Y-117300000D03*
X137280000Y-117300000D03*
G04 #@! TD*
D10*
G04 #@! TO.C,C29*
X147500000Y-114500000D03*
X146540000Y-114500000D03*
G04 #@! TD*
D22*
G04 #@! TO.C,R2*
X182945000Y-133900000D03*
X181925000Y-133900000D03*
G04 #@! TD*
D11*
G04 #@! TO.C,C31*
X153700000Y-116300000D03*
X154660000Y-116300000D03*
G04 #@! TD*
D16*
G04 #@! TO.C,R42*
X130050000Y-138310000D03*
X130050000Y-137290000D03*
G04 #@! TD*
D22*
G04 #@! TO.C,R25*
X140410000Y-137300000D03*
X139390000Y-137300000D03*
G04 #@! TD*
D50*
G04 #@! TO.C,U1*
X150400000Y-134550000D03*
X152700000Y-134550000D03*
D51*
X152700000Y-128250000D03*
D50*
X155000000Y-134550000D03*
G04 #@! TD*
D10*
G04 #@! TO.C,C16*
X137900000Y-139300000D03*
X136940000Y-139300000D03*
G04 #@! TD*
D22*
G04 #@! TO.C,R23*
X140410000Y-139300000D03*
X139390000Y-139300000D03*
G04 #@! TD*
G04 #@! TO.C,R46*
X152730000Y-114300000D03*
X151710000Y-114300000D03*
G04 #@! TD*
D10*
G04 #@! TO.C,C18*
X137900000Y-137300000D03*
X136940000Y-137300000D03*
G04 #@! TD*
D48*
G04 #@! TO.C,Q3*
X157302500Y-127150000D03*
X157302500Y-129050000D03*
X159177500Y-128100000D03*
G04 #@! TD*
D17*
G04 #@! TO.C,D4*
X172387500Y-109700000D03*
X170812500Y-109700000D03*
G04 #@! TD*
D12*
G04 #@! TO.C,R22*
X136910000Y-140300000D03*
X137930000Y-140300000D03*
G04 #@! TD*
D14*
G04 #@! TO.C,H5*
X163500000Y-144800000D03*
G04 #@! TD*
D22*
G04 #@! TO.C,R31*
X153910000Y-138300000D03*
X152890000Y-138300000D03*
G04 #@! TD*
D12*
G04 #@! TO.C,R6*
X158390000Y-130400000D03*
X159410000Y-130400000D03*
G04 #@! TD*
D46*
G04 #@! TO.C,C11*
X181840000Y-142690000D03*
X181840000Y-145390000D03*
G04 #@! TD*
D52*
G04 #@! TO.C,U5*
X147625000Y-134700000D03*
X147625000Y-134050000D03*
X147625000Y-133400000D03*
X147625000Y-132750000D03*
X147625000Y-132100000D03*
X147625000Y-131450000D03*
X147625000Y-130800000D03*
X147625000Y-130150000D03*
X147625000Y-129500000D03*
X147625000Y-128850000D03*
X141900000Y-128850000D03*
X141900000Y-129500000D03*
X141900000Y-130150000D03*
X141900000Y-130800000D03*
X141900000Y-131450000D03*
X141900000Y-132100000D03*
X141900000Y-132750000D03*
X141900000Y-133400000D03*
X141900000Y-134050000D03*
X141900000Y-134700000D03*
G04 #@! TD*
D22*
G04 #@! TO.C,R13*
X175645000Y-134900000D03*
X174625000Y-134900000D03*
G04 #@! TD*
D18*
G04 #@! TO.C,R39*
X129050000Y-134790000D03*
X129050000Y-135810000D03*
G04 #@! TD*
D22*
G04 #@! TO.C,R41*
X135010000Y-121200000D03*
X133990000Y-121200000D03*
G04 #@! TD*
D12*
G04 #@! TO.C,R27*
X152290000Y-140300000D03*
X153310000Y-140300000D03*
G04 #@! TD*
D53*
G04 #@! TO.C,J1*
X165200000Y-132400000D03*
D54*
X165200000Y-130400000D03*
X165200000Y-128400000D03*
X165200000Y-126400000D03*
X165200000Y-124400000D03*
X165200000Y-122400000D03*
X165200000Y-120400000D03*
X165200000Y-118400000D03*
G04 #@! TD*
D22*
G04 #@! TO.C,R24*
X140410000Y-138300000D03*
X139390000Y-138300000D03*
G04 #@! TD*
D10*
G04 #@! TO.C,C5*
X183480000Y-112500000D03*
X182520000Y-112500000D03*
G04 #@! TD*
D22*
G04 #@! TO.C,R9*
X152210000Y-121300000D03*
X151190000Y-121300000D03*
G04 #@! TD*
D49*
G04 #@! TO.C,U7*
X141900000Y-115675000D03*
X141900000Y-116325000D03*
X141900000Y-116975000D03*
X141900000Y-117625000D03*
X141900000Y-118275000D03*
X141900000Y-118925000D03*
X141900000Y-119575000D03*
X141900000Y-120225000D03*
X141900000Y-120875000D03*
X141900000Y-121525000D03*
X147625000Y-121525000D03*
X147625000Y-120875000D03*
X147625000Y-120225000D03*
X147625000Y-119575000D03*
X147625000Y-118925000D03*
X147625000Y-118275000D03*
X147625000Y-117625000D03*
X147625000Y-116975000D03*
X147625000Y-116325000D03*
X147625000Y-115675000D03*
G04 #@! TD*
D22*
G04 #@! TO.C,R53*
X142610000Y-114500000D03*
X141590000Y-114500000D03*
G04 #@! TD*
M02*
